<svg xmlns="http://www.w3.org/2000/svg" width="340" height="340" fill="none" viewBox="0 0 340 340">
  <path fill="#F2D4CF" d="M185.22 233.031c-34.66.17-62.28-3.7-95.79-12.55-13-3.43-44.43-15.36-44.43-15.36 17.57-33.9 33.35-68.6 48.15-103.79 10.09-24 23.36-52.44 49.34-62.28 42.06-15.93 98.88-.44 110.84 46.88 5.49 21.75 4 45.45 4.74 67.69.8 23.71 1.19 47.45 3.57 71.07-22.78 8.43-52.32 8.23-76.42 8.34Z"/>
  <path fill="#F2A196" d="M295.21 268.591c-66.848 51.471-160.089 51.059-226.48-1l48.66-22.81a48.12 48.12 0 0 0 4.35-2.34l1.12-.7c.4-.25.79-.51 1.18-.78a46.543 46.543 0 0 0 14.67-16.47c4-7.55 5.32-15.89 5.38-24.39 0-5.72-.31-11.44-.37-17.17-.04-3.167-.073-6.337-.1-9.51l2 1 5.2 2.69 30.27 5.18 31.12 5.3.94 32 .47 15.87 11.47 4.67 9 3.64 61.12 24.82Z"/>
  <path fill="#E88870" d="M213.15 219.541a60.09 60.09 0 0 1-30.07-2.35c-21.58-7.25-36.11-24.74-37.48-42.76l5.2 2.69 30.29 5.17 31.12 5.3.94 31.95Z"/>
  <circle cx="114.62" cy="141.411" r="17" fill="#F2A196"/>
  <circle cx="120.62" cy="139.411" r="17" fill="#E88870"/>
  <path fill="#F2A196" d="M237.53 114.631c12.45 43.14-11.79 93.25-30.26 95.3-44.64 5-76.34-17.79-88.8-60.93-12.46-43.14 4.1-85.82 37-95.31 32.9-9.49 69.6 17.79 82.06 60.94Z"/>
  <circle cx="170.98" cy="130.911" r="19" stroke="#fff"/>
  <circle cx="224.12" cy="127.911" r="19" stroke="#fff"/>
  <path fill="#F2D4CF" d="M195.45 61.58c-4.31 18.7-13.7 34.58-30.86 46.141-18.52 12.83-39.81 14.64-61.13 18.86.54-13.11.83-27.15 7.59-38.84a79.477 79.477 0 0 1 32.31-30.36c14.81-7.65 37.72-15.15 54.36-9.85a114.24 114.24 0 0 1-2.27 14.05Z"/>
  <path stroke="#00214E" d="M197.2 119.571c-.08.34 9.79 38.84 9.79 38.84h-12.5m14.16-49.06a31.137 31.137 0 0 1 22.85-2.15m-77.96 5.85a36.76 36.76 0 0 1 31.23-1"/>
  <path stroke="#fff" d="m189.98 130.911 15.14-1.29"/>
  <path fill="#00214E" d="M295.21 268.591c-66.848 51.471-160.089 51.059-226.48-1l48.66-22.81a46.939 46.939 0 0 0 6.65-3.82c.64-.44 1.28-.9 1.89-1.38a46.356 46.356 0 0 0 12.78-15.09 44.697 44.697 0 0 0 4.64-14.48 28.616 28.616 0 0 0 2.22 1.94 95.183 95.183 0 0 0 19.82 11.26 99.09 99.09 0 0 0 10.47 3.68 93.529 93.529 0 0 0 33 3.49c1.54-.12 3.09-.27 4.63-.38l.15 5.08v.33l12.1 4.92 69.47 28.26Z"/>
  <path stroke="#00214E" d="M167.19 139.581a10.34 10.34 0 0 0 11-10m32.87-2.19a9.003 9.003 0 0 0 3.3 6.78 26.947 26.947 0 0 0 6.67 4m-60.89 31.48a25.27 25.27 0 0 1 4.56-5.64 24.618 24.618 0 0 1 13.22-6.25m7.94-67.591h23.66m-29.44 7.82h29.44"/>
  <path fill="#fff" d="M171.2 168.411a1.868 1.868 0 0 1 2.69-.5c2.07 1.46 5.88 4.56 11.27 5.64 7.36 1.46 13.75-1.48 15.28.42.85 1.07-.2 2.37-2.21 4a19.734 19.734 0 0 1-14.85 3.68c-7.09-1.32-12.4-9.53-12.4-12.43.01-.284.085-.561.22-.81Z"/>
  <path fill="#00214E" d="M169.86 124.011c6.1-.06 6.28 9.26.18 9.43h-.18c-6.11.07-6.29-9.25-.19-9.42h.19v-.01Zm50.27-1.63c5.67-.07 5.83 8.59.17 8.74h-.25c-5.66.06-5.83-8.59-.17-8.75h.25v.01Z"/>
</svg>
