<svg xmlns="http://www.w3.org/2000/svg" width="340" height="340" fill="none" viewBox="0 0 340 340">
  <path fill="#DAAEA8" d="M179.09 67.26c-1.37 5.87-9.21 8.77-12.52 13.39-3.43 4.78-3.74 13.1-8.66 16.16-4.92 3.06-12.51-.34-18.32.62-5.6.93-11.67 6.67-17.55 5.3-5.88-1.37-8.77-9.21-13.39-12.52-4.78-3.43-13.1-3.73-16.16-8.66-3.06-4.93.34-12.51-.62-18.32-.93-5.6-6.67-11.67-5.3-17.54 1.37-5.87 9.2-8.78 12.51-13.4 3.44-4.78 3.74-13.1 8.66-16.16 4.92-3.06 12.52.34 18.33-.62 5.6-.92 11.67-6.67 17.54-5.3 5.87 1.37 8.78 9.21 13.4 12.52 4.78 3.43 13.09 3.73 16.15 8.66 3.06 4.93-.34 12.51.63 18.32.92 5.6 6.67 11.67 5.3 17.55Z"/>
  <path fill="#F2D4CF" d="M196.91 202.06c-2.52 3-4.7 6.29-7.27 9.24-13.62 15.66-43.3 5.36-58.05-4-10.84-6.85-19-17.19-26-27.95-8.6-13.27-15.78-27.7-18.9-43.2-14.27-71 76.78-101.9 127.87-67.06 19 13 36.17 42.16 32 65.53-2.13 11.86-10.56 22.53-9.66 34.55 1 12.94 12.69 25.26 7.79 37.28-1.91 4.71-6.05 8.06-9.41 11.88-4.52 5.14-7.83 11.58-8.22 18.42-.39 6.84 2.45 14 8.09 17.92-13.93-1.86-22.51-18.53-18.91-32.12 1.18-4.45 3.36-8.62 4.31-13.13.95-4.51.39-9.78-3.06-12.84-4.43-3.93-11.65-2.44-16.3 1.23a29.748 29.748 0 0 0-4.28 4.25Z"/>
  <path fill="#845161" d="M283.48 290.77c-66.848 51.471-160.089 51.059-226.48-1l48.71-22.79a47.625 47.625 0 0 0 4.35-2.34l1.12-.7c.4-.25.79-.51 1.18-.78a46.543 46.543 0 0 0 14.67-16.47c4-7.55 5.32-15.89 5.38-24.39 0-5.72-.31-11.44-.37-17.17-.04-3.173-.073-6.343-.1-9.51l2 1 5.2 2.69 30.29 5.15 31.12 5.3.94 32 .47 15.87 11.47 4.67 9 3.64 61.05 24.83Z"/>
  <path fill="#69303A" d="M201.42 241.77a60.09 60.09 0 0 1-30.07-2.35c-21.58-7.25-36.11-24.74-37.48-42.76l5.2 2.69 30.29 5.15 31.12 5.3.94 31.97Z"/>
  <circle cx="102.89" cy="163.62" r="17" fill="#845161"/>
  <circle cx="108.89" cy="161.62" r="17" fill="#69303A"/>
  <path fill="#845161" d="M225.81 136.83c12.45 43.15-11.8 93.25-30.26 95.31-44.64 5-76.35-17.79-88.8-60.94-12.45-43.15 4.1-85.81 37-95.3 32.9-9.49 69.6 17.79 82.06 60.93Z"/>
  <path stroke="#00214E" d="M160.97 189.6a29.777 29.777 0 0 0 18.55 9.69m19.82-49.69a8.999 8.999 0 0 0 3.3 6.77c2.016 1.652 4.263 3 6.67 4m-22.21-12.93c0 .25 5.54 15.88 8.93 25.33a5.25 5.25 0 0 1-4.94 7h-3.64"/>
  <ellipse cx="157.21" cy="151.71" stroke="#fff" rx="19" ry="11.84"/>
  <ellipse cx="212.02" cy="149.16" stroke="#fff" rx="19" ry="11.84"/>
  <path stroke="#fff" d="m176.21 151.71 16.95-1.29"/>
  <path fill="#F2D4CF" d="M185.11 88.18c-2.4 4.74-7.4 8.86-10.4 13.71-3.89 6.35-6.83 13.25-10.13 19.92-2.45 5-5.18 9.94-9.32 13.61-4.14 3.67-10 5.84-15.32 4.31-3.64-1-6.59-3.64-9.85-5.58s-7.38-3.22-10.75-1.38c-4.92 2.64-4.85 9.81-8.37 14.14-8.07 9.93-22.88-3.45-24.67-12.12-2.6-12.67 7.79-23.26 15.35-32 6.31-7.3 14.84-18.43 24.74-20.87.17 0 58-23 58-23 .51 7.73 3.63 19.16 1.77 26.56-.252.935-.604 1.84-1.05 2.7Z"/>
  <path stroke="#00214E" d="M174.82 173.5a3.15 3.15 0 0 0 2.3 5.78m19.81-47.72a31.178 31.178 0 0 1 22.85-2.16m-77.96 5.86a36.76 36.76 0 0 1 31.23-1"/>
  <path fill="#00214E" d="M283.48 290.77c-66.848 51.471-160.089 51.06-226.48-1l48.71-22.79a46.787 46.787 0 0 0 6.65-3.82c.64-.44 1.28-.9 1.89-1.38a46.346 46.346 0 0 0 12.78-15.09 44.697 44.697 0 0 0 4.64-14.48 28.616 28.616 0 0 0 2.22 1.94 95.183 95.183 0 0 0 19.82 11.26 99.207 99.207 0 0 0 10.46 3.69 93.529 93.529 0 0 0 33 3.49c1.54-.12 3.09-.27 4.63-.38l.15 5.08v.33l12.1 4.92 69.43 28.23Z"/>
  <path stroke="#00214E" d="M155.47 161.77a10.36 10.36 0 0 0 11-10m-18.06 40.09a25.704 25.704 0 0 1 4.57-5.65 24.7 24.7 0 0 1 13.22-6.25m7.94-67.58h23.66m-29.44 7.82h29.44"/>
  <path fill="#00214E" d="M158.17 146.49c6.11-.07 6.29 9.26.19 9.42h-.28c-6.1.07-6.28-9.25-.18-9.42h.27Zm50.24-1.63c5.67-.07 5.83 8.58.17 8.74h-.25c-5.66.06-5.83-8.59-.17-8.75h.25v.01Z"/>
</svg>
