<svg xmlns="http://www.w3.org/2000/svg" width="340" height="340" fill="none" viewBox="0 0 340 340">
  <path fill="url(#a)" d="M262.87 119.89c0 6.74-8.58 12.55-9.84 18.92-1.3 6.57 4.38 15.21 1.88 21.25-2.5 6.04-12.71 8.23-16.36 13.69-3.65 5.46-1.75 15.68-6.42 20.34s-14.84 2.73-20.34 6.41-7.54 13.82-13.69 16.37c-6.15 2.55-14.68-3.18-21.25-1.89-6.37 1.27-12.18 9.85-18.92 9.85-6.74 0-12.55-8.58-18.92-9.85-6.56-1.29-15.21 4.39-21.25 1.89-6.04-2.5-8.22-12.71-13.68-16.37-5.46-3.66-15.68-1.77-20.35-6.41-4.67-4.64-2.72-14.84-6.41-20.36s-13.81-7.54-16.36-13.69c-2.55-6.15 3.18-14.68 1.88-21.25-1.26-6.37-9.84-12.18-9.84-18.92 0-6.74 8.58-12.55 9.84-18.92 1.27-6.54-4.38-15.22-1.88-21.22 2.5-6 12.7-8.22 16.36-13.68 3.66-5.46 1.79-15.69 6.41-20.32 4.62-4.63 14.84-2.73 20.35-6.41 5.51-3.68 7.54-13.81 13.68-16.36 6.14-2.55 14.69 3.18 21.25 1.88 6.37-1.26 12.18-9.84 18.92-9.84 6.74 0 12.55 8.58 18.92 9.84 6.57 1.3 15.21-4.39 21.25-1.88 6.04 2.51 8.23 12.7 13.69 16.36 5.46 3.66 15.68 1.7 20.32 6.41 4.64 4.71 2.72 14.84 6.41 20.35 3.69 5.51 13.84 7.5 16.39 13.65 2.55 6.15-3.18 14.69-1.88 21.25 1.26 6.36 9.84 12.17 9.84 18.91Z"/>
  <path fill="#845161" d="M286.11 286.1c-66.848 51.471-160.089 51.06-226.48-1l48.66-22.81a47.625 47.625 0 0 0 4.35-2.34l1.12-.7c.4-.25.79-.51 1.18-.78A46.543 46.543 0 0 0 129.61 242c4-7.55 5.32-15.89 5.38-24.39 0-5.72-.31-11.44-.37-17.17-.04-3.167-.073-6.337-.1-9.51l2 1 5.2 2.69 30.29 5.15 31.12 5.3.94 32 .47 15.87 11.47 4.67 9 3.64 61.1 24.85Z"/>
  <path fill="#69303A" d="M204.11 237.05a60.077 60.077 0 0 1-30.1-2.32c-21.58-7.25-36.11-24.74-37.48-42.76l5.2 2.69 30.29 5.15 31.12 5.3.97 31.94Z"/>
  <circle cx="105.55" cy="158.92" r="17" fill="#845161"/>
  <circle cx="111.55" cy="156.92" r="17" fill="#69303A"/>
  <path fill="#845161" d="M228.46 132.14c12.46 43.14-11.79 93.25-30.26 95.3-44.63 5-76.34-17.79-88.8-60.93-12.46-43.14 4.11-85.82 37-95.31 32.89-9.49 69.61 17.79 82.06 60.94Z"/>
  <path stroke="#00214E" d="M192.56 142.37a52.993 52.993 0 0 0 2.48 10.49c1.14 3 2.62 4.82 4.63 7.34a16.685 16.685 0 0 1 1.82 2.66c2.77 5.34-.11 11.61-6.28 12l-3.81.23m-13.93-6.29a3.15 3.15 0 0 0 2.31 5.78m19.81-47.72a31.13 31.13 0 0 1 22.85-2.13m-77.96 5.83a36.73 36.73 0 0 1 31.22-1"/>
  <path fill="url(#b)" d="M286.11 286.1c-66.848 51.471-160.089 51.06-226.48-1l48.66-22.81a46.787 46.787 0 0 0 6.65-3.82c.64-.44 1.28-.9 1.89-1.38A46.346 46.346 0 0 0 129.61 242a44.697 44.697 0 0 0 4.64-14.48 28.616 28.616 0 0 0 2.22 1.94 95.095 95.095 0 0 0 19.85 11.27 98.981 98.981 0 0 0 10.46 3.69 93.529 93.529 0 0 0 33 3.49c1.54-.12 3.09-.27 4.63-.38l.15 5.08v.33l12.1 4.92 69.45 28.24Z"/>
  <path stroke="#00214E" d="M158.11 157.09a10.36 10.36 0 0 0 11-10m32.88-2.19a9.07 9.07 0 0 0 3.3 6.78 26.82 26.82 0 0 0 6.67 4m-60.85 31.48a25.546 25.546 0 0 1 4.57-5.64 24.565 24.565 0 0 1 13.22-6.25m7.89-67.59h23.67m-29.45 7.82h29.45"/>
  <path fill="url(#c)" d="M203.19 90.51c.28 3.94-4.65 4.11-7.05 1.53-.62-.67-1.06-1.49-1.69-2.15a2.42 2.42 0 0 0-2.43-.82 2.83 2.83 0 0 0-1.26 1.16c-1.94 2.88-2.18 6.62-3.62 9.73a12.226 12.226 0 0 1-7.56 6.42c-5.73 1.6-10.35-1.73-12.51-6.82-.54-1.27-1.72-3.63-3.46-2.72-2.11 1.11-2.13 4.61-2.58 6.65a51.597 51.597 0 0 1-1.89 6.92 18.698 18.698 0 0 1-8.92 10.4c-5.56 2.91-16.69 3.46-19.32-3.58a12.58 12.58 0 0 0-1-2.44 2.47 2.47 0 0 0-2.14-1.29 1.746 1.746 0 0 0-.57.13 2.59 2.59 0 0 0-1.26 1.29 6.842 6.842 0 0 0-.5 2.37c-.39 4.4-1 9-3 13s-6 7.53-10.42 8.16a5.34 5.34 0 0 1-4.84-1.58c-2.4-2.86-1.28-8.24-1-11.65 1.11-12.85 5-25.68 12.31-36.38 6.61-9.63 16.1-17.17 27.4-20.43 19.32-5.58 40 1.88 56.05 17.9v.06a11.005 11.005 0 0 1 1.26 4.14Z"/>
  <path fill="#00214E" d="M202.04 86.37c-19.21-4.3-41.56-2.36-56.4 6.79-25.8 15.91-31.5 27.91-39.38 40.58l-.34.56v-2.15c.34-30.66 15.53-56.67 40-63.74 19.32-5.58 40 1.88 56.05 17.9l.07.06Z"/>
  <path fill="#fff" d="M162.11 185.93a1.851 1.851 0 0 1 2.68-.51c2.08 1.47 5.88 4.56 11.28 5.64 7.36 1.46 13.75-1.48 15.27.42.86 1.07-.19 2.37-2.2 4.05a19.74 19.74 0 0 1-14.86 3.68c-7.08-1.32-12.4-9.53-12.4-12.43a1.659 1.659 0 0 1 .23-.85Z"/>
  <path fill="#00214E" d="M159.96 140.73c6.1-.07 6.28 9.26.18 9.43h-.27c-6.1.07-6.28-9.25-.18-9.42h.27v-.01Zm50.24-1.65c5.66-.07 5.83 8.59.17 8.74h-.26c-5.67.06-5.84-8.59-.17-8.75h.25l.01.01Z"/>
  <defs>
    <linearGradient id="a" x1="144.181" x2="380.559" y1="352.997" y2="133.213" gradientUnits="userSpaceOnUse">
      <stop stop-color="#315676"/>
      <stop offset="1" stop-color="#E1B9E0"/>
    </linearGradient>
    <linearGradient id="b" x1="59.66" x2="286.14" y1="324.423" y2="324.423" gradientUnits="userSpaceOnUse">
      <stop stop-color="#16243F"/>
      <stop offset="1" stop-color="#6878B1"/>
    </linearGradient>
    <linearGradient id="c" x1="213.027" x2="255.554" y1="202.592" y2="51.468" gradientUnits="userSpaceOnUse">
      <stop stop-color="#315676"/>
      <stop offset="1" stop-color="#E1B9E0"/>
    </linearGradient>
  </defs>
</svg>
