<svg xmlns="http://www.w3.org/2000/svg" width="340" height="340" fill="none" viewBox="0 0 340 340">
  <path fill="url(#a)" d="M241.24 273.417c-10.65 1.33-20.37 4.17-31.25 4.83-8.19.5-16.4-.43-24.58-1.14a470.429 470.429 0 0 0-53.61-1.59c-9.72.27-19.31 2.64-29.08 2.1-5.15-.28-8-1.59-12.34-4-1.52-.85-15.56-7.49-15.39-6.78.68 2.79 7.28-125.76 9.63-148.16 1.9-18.09 5.88-36.31 14.34-52.54 8.3-15.95 22.91-24.44 39.94-29.34 25.24-7.23 54.29-4.37 76.24 10.6 16 10.9 25.18 36.72 27.32 56 3.61 32.71 3.01 144.1-1.22 170.02Z"/>
  <path fill="#845161" d="M283.48 268.417c-66.848 51.472-160.089 51.06-226.48-1l48.66-22.81a47.625 47.625 0 0 0 4.35-2.34l1.12-.7c.4-.25.79-.51 1.18-.78a46.543 46.543 0 0 0 14.67-16.47c4-7.55 5.32-15.89 5.38-24.39 0-5.72-.31-11.44-.37-17.17-.04-3.173-.073-6.343-.1-9.51l2 1 5.2 2.69 30.29 5.15 31.12 5.3.94 32 .47 15.87 11.47 4.67 9 3.64 61.1 24.85Z"/>
  <path fill="#69303A" d="M201.22 211.847a60.066 60.066 0 0 1-30.07-2.35c-21.58-7.25-36.08-24.74-37.48-42.8l5.2 2.69 30.29 5.15 31.12 5.3.94 32.01Z"/>
  <path fill="url(#b)" d="M283.48 268.417c-66.848 51.472-160.089 51.06-226.48-1l48.66-22.81a47.625 47.625 0 0 0 4.35-2.34c23.68 17.41 56.64 28.75 85.06 16 8.06-3.62 15.33-10 18.29-18.31l9 3.64 61.12 24.82Z"/>
  <circle cx="106.89" cy="141.237" r="17" fill="#845161"/>
  <circle cx="112.89" cy="139.237" r="17" fill="#69303A"/>
  <path fill="#845161" d="M222.43 115.497c11.74 40.68-13.2 89.87-28.54 89.87-21 0-72-16.78-83.73-57.46-11.73-40.68 3.91-80.92 34.91-89.87 31-8.95 65.61 16.77 77.36 57.46Z"/>
  <path fill="url(#c)" d="M187.69 65.577a77.338 77.338 0 0 1-4.45 10.59c-6.7 13.54-18.56 23.91-30.52 32.73-9.17 6.76-19 13.13-30.18 15.45-10.15 2.12-27.26.12-33-10.08-6.63-11.67 8-26.39 14.67-34.16 6.3-7.29 14.83-18.43 24.73-20.87.17 0 58-23 58-23 .46 6.9 2.43 13.71 2.36 20.65a30.315 30.315 0 0 1-1.61 8.69Z"/>
  <path stroke="#00214E" d="M185.47 117.397c-.05.24 5.54 15.88 8.93 25.32a5.25 5.25 0 0 1-4.94 7h-3.64m11.11-42.54a31.137 31.137 0 0 1 22.85-2.15m-77.96 5.85a36.752 36.752 0 0 1 31.23-1m5.32 34.11a3.371 3.371 0 0 0-3 3.15 2.651 2.651 0 0 0 3.24 2.5"/>
  <circle cx="182.85" cy="101.457" r="4.02" fill="#FF2609"/>
  <path fill="#fff" d="M159.48 161.027a1.858 1.858 0 0 1 2.68-.5c2.08 1.46 5.88 4.56 11.28 5.63 7.36 1.47 13.75-1.48 15.27.42.86 1.07-.19 2.37-2.2 4.05a19.738 19.738 0 0 1-14.86 3.69c-7.08-1.33-12.4-9.53-12.4-12.44 0-.298.079-.592.23-.85Z"/>
  <path fill="#00214E" d="M157.62 120.747c6.1-.07 6.28 9.26.18 9.43h-.27c-6.1.07-6.28-9.25-.18-9.42h.27v-.01Zm50.24-1.63c5.66-.07 5.83 8.58.17 8.74h-.26c-5.66.06-5.83-8.59-.16-8.75h.25v.01Z"/>
  <defs>
    <linearGradient id="a" x1="74.99" x2="244.84" y1="278.398" y2="278.398" gradientUnits="userSpaceOnUse">
      <stop stop-color="#16243F"/>
      <stop offset="1" stop-color="#6878B1"/>
    </linearGradient>
    <linearGradient id="b" x1="143.066" x2="178.078" y1="334.922" y2="223.292" gradientUnits="userSpaceOnUse">
      <stop stop-color="#315676"/>
      <stop offset="1" stop-color="#E1B9E0"/>
    </linearGradient>
    <linearGradient id="c" x1="75.496" x2="169.977" y1="104.678" y2="156.012" gradientUnits="userSpaceOnUse">
      <stop stop-color="#16243F"/>
      <stop offset="1" stop-color="#6878B1"/>
    </linearGradient>
  </defs>
</svg>
