<svg xmlns="http://www.w3.org/2000/svg" width="340" height="340" fill="none" viewBox="0 0 340 340">
  <path fill="#00214E" d="M102.48 146.584c-10.77-22.23-9.34-49.24 2.82-70.62 17.61-31 57-45.65 91.25-43.81 6.74.36 14.09 1.65 18.49 6.77 1.37 1.59 2.5 3.58 4.45 4.38a9.88 9.88 0 0 0 4.2.35c6.34-.29 12.92.64 18.31 4 5.39 3.36 9.34 9.43 8.9 15.76-.13 1.83-.59 3.78.19 5.45.65 1.39 2 2.26 3.14 3.33 3 2.91 4 7.45 3.52 11.62-1.49 13.79-5.49 28.05-12.79 40.03a83.432 83.432 0 0 1-16.7 19.78c-6.48 5.58-14.53 8.21-20.13 14.62-5.85 6.69-5.11 15.77-10.85 23-6.09 7.69-15 12.65-24.43 15.09-10.56 2.73-31.28 3.74-40.72-2.55-2.86-1.91-4.9-4.8-6.83-7.65a318.226 318.226 0 0 1-22.82-39.55Z"/>
  <path fill="#845161" d="M283.48 270.134c-66.848 51.471-160.089 51.06-226.48-1l48.66-22.81a46.787 46.787 0 0 0 6.65-3.82c.64-.44 1.28-.9 1.89-1.38a46.346 46.346 0 0 0 12.78-15.09 44.697 44.697 0 0 0 4.64-14.48c.488-3.281.736-6.593.74-9.91 0-5.72-.31-11.44-.37-17.17-.04-3.167-.073-6.337-.1-9.51l2 1 5.2 2.69 2.41.41 27.88 4.74 31.12 5.3.94 32 .31 10.46.15 5.08v.33l12.1 4.92 69.48 28.24Z"/>
  <path fill="#FF2609" d="M283.48 270.134c-66.848 51.471-160.089 51.06-226.48-1l48.66-22.81a46.787 46.787 0 0 0 6.65-3.82c.64-.44 1.28-.9 1.89-1.38 23.55 16.76 55.69 27.33 83.49 14.82 6.62-3 12.7-7.84 16.3-14.06l69.49 28.25Z"/>
  <path fill="#69303A" d="M201.88 236.624c-10.45.63-22.13-2.07-33-8.34-20.41-11.79-31.32-32.35-27.4-49.21l27.88 4.74 31.12 5.3.94 32 .46 15.51Z"/>
  <circle cx="122.05" cy="146.954" r="17" fill="#845161"/>
  <circle cx="127.44" cy="146.954" r="15.22" fill="#69303A"/>
  <path fill="#845161" d="m127.67 130.904 2.32 30.18 1.51 19.73c.56 7.26 3.39 11.61 8.12 17.42a85.01 85.01 0 0 0 31.26 23.92c11.6 5.17 27.68 10.32 40.06 5.3 12.65-5.12 16.69-19.33 20.94-31.1 4.25-11.77 8.21-24.74 8-37.46-.27-17.26-4.84-26.94-4.84-26.94 1.107-6.667 2.213-13.313 3.32-19.94 1.25-7.51 2.86-15.35 1-22.9-2.13-8.66-8.67-12.35-14.05-18.82-14.16 18.24-37.44 28.55-57.77 39-10.47 5.47-39.87 21.61-39.87 21.61Z"/>
  <path stroke="#00214E" d="M204.12 135.764c-.06.24 5.54 15.88 8.93 25.32a5.26 5.26 0 0 1-4.95 7h-3.63m-14.01-6.04a3.15 3.15 0 0 0 2.31 5.78m-36.6-43.62a80.846 80.846 0 0 1 28.13-.8m34.47-.15a55.01 55.01 0 0 1 17.49-1.21M165 184.084a39.774 39.774 0 0 1 15.26-14.41m2.66-30.27a11.66 11.66 0 0 1-7 9.3 23.976 23.976 0 0 1-6.41 1.37m14.77-43.05h31.6m-35.63 6.52h31.61m3.88 23.58a34.34 34.34 0 0 0 3.74 7.22 10.069 10.069 0 0 0 6.24 4"/>
  <path fill="#fff" d="M177.06 180.604a1.86 1.86 0 0 1 2.68-.5c2.08 1.46 5.88 4.56 11.28 5.63 7.36 1.47 13.75-1.48 15.27.42.86 1.07-.19 2.37-2.2 4.05a19.74 19.74 0 0 1-14.83 3.69c-7.08-1.33-12.4-9.53-12.4-12.44a1.69 1.69 0 0 1 .2-.85Z"/>
  <path fill="#00214E" d="M174.34 132.814c6.11-.06 6.29 9.26.19 9.43h-.27c-6.1.07-6.28-9.25-.18-9.42h.27l-.01-.01Zm50.24-1.63c5.67-.07 5.83 8.59.17 8.74h-.25c-5.66.06-5.83-8.59-.17-8.75h.25v.01Z"/>
</svg>
