<svg xmlns="http://www.w3.org/2000/svg" width="340" height="340" fill="none" viewBox="0 0 340 340">
  <path fill="#DAAEA8" d="M102.48 146.592c-10.77-22.23-9.34-49.24 2.82-70.63 17.61-30.95 57-45.64 91.25-43.81 6.74.36 14.09 1.65 18.49 6.77 1.37 1.6 2.5 3.59 4.45 4.38 1.358.42 2.79.544 4.2.36 6.34-.29 12.92.64 18.31 4 5.39 3.36 9.34 9.43 8.9 15.75-.13 1.84-.59 3.79.19 5.45.65 1.39 2 2.27 3.14 3.34 3 2.91 4 7.45 3.52 11.62-1.53 13.8-5.47 28.07-12.79 40a83.432 83.432 0 0 1-16.72 19.78c-6.48 5.58-14.53 8.21-20.13 14.62-5.85 6.69-5.11 15.76-10.85 23-6.09 7.7-15 12.66-24.43 15.09-10.56 2.74-31.28 3.75-40.72-2.54-2.86-1.91-4.9-4.8-6.83-7.65a319.02 319.02 0 0 1-22.8-39.53Z"/>
  <path fill="#845161" d="M283.48 270.142c-66.848 51.471-160.089 51.06-226.48-1l48.66-22.81a46.829 46.829 0 0 0 6.65-3.87c.64-.44 1.28-.9 1.89-1.38a46.346 46.346 0 0 0 12.78-15.09 44.697 44.697 0 0 0 4.64-14.48c.488-3.281.736-6.593.74-9.91 0-5.72-.31-11.44-.37-17.17-.04-3.167-.073-6.337-.1-9.51l2 1 5.2 2.69 2.41.41 27.88 4.74 31.12 5.3.94 32 .31 10.46.15 5.08v.33l12.1 4.92 69.48 28.29Z"/>
  <path fill="#DE8276" d="M283.48 270.142c-66.848 51.471-160.089 51.06-226.48-1l48.66-22.81a46.829 46.829 0 0 0 6.65-3.87c.64-.44 1.28-.9 1.89-1.38 23.55 16.76 55.69 27.33 83.49 14.82 6.62-3 12.7-7.84 16.3-14.06l69.49 28.3Z"/>
  <path fill="#69303A" d="M201.84 236.632c-10.45.63-22.13-2.07-33-8.34-20.41-11.79-31.32-32.35-27.4-49.21l27.88 4.74 31.12 5.3.94 32 .46 15.51Z"/>
  <circle cx="122.05" cy="146.962" r="17" fill="#845161"/>
  <circle cx="127.44" cy="146.962" r="15.22" fill="#69303A"/>
  <path fill="#845161" d="m127.67 130.912 2.32 30.18 1.51 19.73c.56 7.26 3.39 11.61 8.12 17.42a85.14 85.14 0 0 0 31.22 23.92c11.59 5.17 27.68 10.31 40.06 5.3 12.65-5.13 16.69-19.33 20.94-31.11 4.25-11.78 8.21-24.74 8-37.46-.27-17.26-4.84-26.93-4.84-26.93 1.107-6.667 2.213-13.313 3.32-19.94 1.25-7.51 2.86-15.36 1-22.9-2.13-8.66-8.67-12.35-14-18.83-14.16 18.24-37.44 28.55-57.77 39-10.48 5.44-39.88 21.62-39.88 21.62Z"/>
  <path stroke="#00214E" d="M204.12 135.792c-.06.24 5.54 15.88 8.93 25.32a5.261 5.261 0 0 1-5 7h-3.63m-13.96-6.06a3.141 3.141 0 0 0 2.31 5.77m-36.6-43.61a80.365 80.365 0 0 1 28.13-.8m34.47-.16a55.643 55.643 0 0 1 17.45-1.21M165 184.092a39.788 39.788 0 0 1 15.25-14.42m2.67-30.21a11.56 11.56 0 0 1-7 9.29 23.66 23.66 0 0 1-6.41 1.38m14.77-43.11h31.6m-35.63 6.53h31.61m3.88 23.57a34.155 34.155 0 0 0 3.74 7.23 10.112 10.112 0 0 0 6.24 4"/>
  <path fill="#fff" d="M177.06 180.612a1.851 1.851 0 0 1 2.68-.51c2.08 1.47 5.88 4.56 11.28 5.64 7.36 1.46 13.75-1.48 15.27.42.86 1.07-.19 2.37-2.2 4.05a19.74 19.74 0 0 1-14.86 3.68c-7.08-1.32-12.39-9.53-12.39-12.43a1.667 1.667 0 0 1 .22-.85Z"/>
  <path fill="#00214E" d="M174.34 132.822c6.11-.07 6.29 9.26.19 9.42h-.28c-6.1.07-6.28-9.26-.18-9.42h.27Zm50.24-1.64c5.67-.06 5.83 8.59.17 8.75h-.25c-5.66.07-5.83-8.59-.17-8.74h.25v-.01Z"/>
</svg>
