<svg xmlns="http://www.w3.org/2000/svg" width="340" height="340" fill="none" viewBox="0 0 340 340">
  <path fill="url(#a)" d="M288 125.96c0 7.61-8.67 14.27-10.09 21.47-1.47 7.41 4 16.88 1.14 23.7-2.86 6.82-13.44 9.78-17.57 15.94-4.13 6.16-2.77 17.06-8 22.33s-16.11 3.87-22.32 8c-6.21 4.13-9 14.7-15.95 17.57-6.95 2.87-16.28-2.6-23.7-1.13-7.19 1.42-13.86 10.09-21.47 10.09-7.61 0-14.27-8.67-21.47-10.09-7.41-1.47-16.88 4-23.7 1.13s-9.77-13.44-15.94-17.57c-6.17-4.13-17.06-2.76-22.33-8s-3.87-16.11-8-22.33c-4.13-6.22-14.77-9.03-17.64-15.94-2.87-6.91 2.6-16.29 1.14-23.7-1.43-7.2-10.1-13.86-10.1-21.47 0-7.61 8.67-14.28 10.1-21.47 1.46-7.41-4-16.88-1.14-23.7 2.86-6.82 13.44-9.75 17.57-15.95 4.13-6.2 2.76-17 8-22.32s16.11-3.87 22.33-8c6.22-4.13 9-14.69 15.94-17.57 6.94-2.88 16.29 2.61 23.7 1.14C155.7 16.67 162.36 8 169.97 8c7.61 0 14.31 8.63 21.5 10.04 7.42 1.47 16.88-4 23.7-1.14 6.82 2.86 9.78 13.45 15.95 17.58 6.17 4.13 17 2.76 22.32 8s3.88 16.11 8 22.33c4.12 6.22 14.69 9 17.57 15.94 2.88 6.94-2.61 16.29-1.14 23.7 1.46 7.23 10.13 13.9 10.13 21.51Z"/>
  <circle cx="119" cy="170.96" r="17" fill="#845161"/>
  <circle cx="124.86" cy="169.96" r="16" fill="#69303A"/>
  <path fill="#845161" d="M280.59 294.14c-66.848 51.471-160.089 51.06-226.48-1l48.66-22.81a46.787 46.787 0 0 0 6.65-3.82c.64-.44 1.28-.9 1.89-1.38a46.346 46.346 0 0 0 12.78-15.09c4-7.55 5.32-15.89 5.38-24.39 0-1.74 0-3.49-.06-5.23-.09-4-.27-8-.31-11.94-.04-3.173-.073-6.343-.1-9.51l2 1 5.2 2.69 2.41.41 27.88 4.74 31.12 5.3.94 32 .36 12.21.1 3.33v.33l12.1 4.92 69.48 28.24Z"/>
  <path fill="#69303A" d="m198.92 257.51-1.54.16a51.489 51.489 0 0 1-40.67-14.63l-27.38-32.53c-.09-2.9-.2 0-.23-2.91-.04-3.173-.073-6.343-.1-9.51l2 1 5.2 2.69 2.41.41 27.88 4.74 31.12 5.3.94 32 .37 13.28Z"/>
  <path fill="#845161" d="M124.11 136.36c-.79 1-1.49 3-2.24 6.11-1.73 7.33 5.85 55.45 7.3 69.62l36.42 26.85a51.482 51.482 0 0 0 42.29 9c5.87-1.39 9.59-2.29 12.24-7 5.12-9 17.69-39.79 18.51-61.51.23-6.16.08-15.57-3.72-20.82-1.85-2.55-2.8-2.6-2.13-6.21.69-3.76 1.68-7.47 2.51-11.21 2.29-10.33 4.12-22 .81-32.28-1.76-5.5-4.87-9.14-9.29-12.68-4.72-3.78-6.67-3.59-9.5 2-1.91 3.8-3.83 7-7.7 9.16-5.61 3.11-9.43 1.09-15 .66-4.88-.37-4.36 3.4-5.43 6.95a16.802 16.802 0 0 1-6.77 9.25 18.53 18.53 0 0 1-20 .12 4.755 4.755 0 0 0-2.85-.89c-3.34.18-3.49 4.19-4.25 7.07-1.61 6-8.62 9.32-14.85 8.83-10.16-.75-13.78-6.41-16.35-3.02Z"/>
  <path stroke="#00214E" d="M204.37 154.24a57.271 57.271 0 0 0 2 11.49c1 3.31 2.52 5.36 4.52 8.22a18.33 18.33 0 0 1 1.79 3c2.64 5.94-.87 12.53-7.55 12.53H201m-25.66 9.79a29.849 29.849 0 0 0 18.54 9.7m-37.21-65.84a80.822 80.822 0 0 1 28.13-.8m30.92.91a55.02 55.02 0 0 1 17.45-1.2"/>
  <path fill="#FF2609" d="M280.59 294.14c-66.848 51.471-160.089 51.06-226.48-1l48.66-22.81a46.787 46.787 0 0 0 6.65-3.82c.64-.44 1.28-.9 1.89-1.38 23.52 16.75 55.69 27.32 83.52 14.81 6.62-3 12.7-7.84 16.3-14.06l69.46 28.26Z"/>
  <path stroke="#00214E" d="M187.67 182.44a3.4 3.4 0 0 0 2.11 6.38"/>
  <path fill="#00214E" d="M172.17 150.77c6.1.05 6.1 9.37 0 9.42h-.28c-6.1-.05-6.1-9.37 0-9.42h.28Zm50.26 0c5.66 0 5.66 8.7 0 8.74h-.26c-5.66 0-5.66-8.7 0-8.74h.26Z"/>
  <defs>
    <linearGradient id="a" x1="225.747" x2="491.534" y1="321.911" y2="74.732" gradientUnits="userSpaceOnUse">
      <stop stop-color="#315676"/>
      <stop offset="1" stop-color="#E1B9E0"/>
    </linearGradient>
  </defs>
</svg>
