<svg xmlns="http://www.w3.org/2000/svg" width="340" height="340" fill="none" viewBox="0 0 340 340">
  <path fill="url(#a)" d="M207.22 239.275a131.826 131.826 0 0 1-18.72 17.3c-12.11 9.13-21.08 8.08-35.15 6.86-16.35-1.41-32.57-4-48.87-5.92-2.07-.24-4.29-.55-5.81-2a9.825 9.825 0 0 1-2.36-4.81 501.285 501.285 0 0 1-17.3-107c-1.8-34.6 16-68.48 49.59-81.18 34.85-13.2 80.21-4.43 100.87 28.58 28.99 46.37 12.98 108.81-22.25 148.17Z"/>
  <path fill="#00214E" d="M283.48 268.845c-66.848 51.472-160.089 51.06-226.48-1l48.66-22.81a47.625 47.625 0 0 0 4.35-2.34l1.12-.7c.4-.25.79-.51 1.18-.78a46.535 46.535 0 0 0 14.67-16.47c4-7.55 5.32-15.89 5.38-24.39 0-5.72-.31-11.44-.37-17.17-.04-3.166-.073-6.336-.1-9.51l2 1 5.2 2.69 30.29 5.15 31.12 5.3.94 32 .47 15.87 11.47 4.67 9 3.64 61.1 24.85Z"/>
  <path fill="#F2A196" d="M201.42 219.795a60.066 60.066 0 0 1-30.07-2.35c-21.58-7.25-36.11-24.74-37.48-42.76l5.2 2.69 30.29 5.15 31.12 5.3.94 31.97Z"/>
  <circle cx="106.89" cy="141.665" r="17" fill="#F2A196"/>
  <circle cx="112.89" cy="139.665" r="17" fill="#E88870"/>
  <path fill="#F2A196" d="M222.43 115.915c11.74 40.68-13.2 89.87-28.54 89.87-21 0-72-16.78-83.73-57.46-11.73-40.68 3.91-80.91 34.91-89.86 31-8.95 65.61 16.78 77.36 57.45Z"/>
  <path stroke="#00214E" d="M164.85 162.965a29.753 29.753 0 0 0 18.54 9.69"/>
  <path fill="#FF2609" d="M227.43 91.665c-4.17-10.12-15.36-15.12-25.65-18.87-5.56-2-11.26-4-17.18-4.13a41.212 41.212 0 0 0-15.94 3.25c-8.87 3.48-18 8.68-24.81 15.37-3.31 3.25-6.32 6.66-9.74 9.91-1.88 1.8-3.69 3.68-5.41 5.63-1.31 1.49-2.89 4.6-4.53 5.6 30.53-18.51 68.43-25.36 103.26-16.76Z"/>
  <path stroke="#00214E" d="M185.47 117.825c0 .2 4.79 8.56 7.32 17.59a57.73 57.73 0 0 1 1.61 14.75h-13.51m16.99-40.85a31.084 31.084 0 0 1 22.85-2.16m-81.99 6.14a36.752 36.752 0 0 1 31.23-1"/>
  <path fill="#00214E" d="M156.28 122.155c6.1 0 6.1 9.37 0 9.42H156c-6.1 0-6.1-9.37 0-9.42h.28Zm50.12-1.39c5.67 0 5.67 8.7 0 8.74h-.25c-5.66 0-5.66-8.7 0-8.74h.25Z"/>
  <path fill="url(#b)" fill-rule="evenodd" d="M194.65 36.145c31.63 9.48 48.63 36.84 54.63 67.31a142.381 142.381 0 0 1-2.22 63.62c-5.72 20.9-15.03 40.6-24.87 59.9l-.454.891c-6.179 12.129-11.269 22.121-24.936 27.499-24.03 9.48-53.32 4.09-72.91-12.81-34.52-29.79-50.82-91.19-44.05-135.45 7.52-49.32 67.44-85.19 114.81-70.96Zm-36.68 162.41c10.24 5.54 27.22 10.63 38.7 6a11.13 11.13 0 0 0 1.92-1.12 22.958 22.958 0 0 0 4.46-4c8.56-9.5 13.83-21.46 17-34a145.665 145.665 0 0 0 4-27.24c.91-15.91-3.63-30.87-11.51-44.65-6.9-12.08-21.62-24.12-36.3-20.39-9 2.31-16.57 8.16-23 14.77-3.625 3.729-6.788 7.806-9.945 11.875-4.497 5.798-8.982 11.58-14.775 16.315a51.32 51.32 0 0 1-8.75 6c-.48.24-6.82 3.38-6.89 3.06a101.493 101.493 0 0 0 2.53 10.14c6.66 23.12 17.54 47.04 38.32 60.7 1.373.9 2.787 1.747 4.24 2.54Z" clip-rule="evenodd"/>
  <defs>
    <linearGradient id="a" x1="78.88" x2="244.49" y1="264.257" y2="264.257" gradientUnits="userSpaceOnUse">
      <stop stop-color="#16243F"/>
      <stop offset="1" stop-color="#6878B1"/>
    </linearGradient>
    <linearGradient id="b" x1="78.34" x2="251.86" y1="260.01" y2="260.01" gradientUnits="userSpaceOnUse">
      <stop stop-color="#16243F"/>
      <stop offset="1" stop-color="#6878B1"/>
    </linearGradient>
  </defs>
</svg>
