<svg xmlns="http://www.w3.org/2000/svg" width="340" height="340" fill="none" viewBox="0 0 340 340">
  <path fill="url(#a)" d="M262.659 120.229c-.28 6.74-9.1 12.18-10.63 18.49-1.57 6.51 3.74 15.38 1 21.31-2.74 5.93-13 7.69-16.93 13-3.93 5.31-2.4 15.59-7.26 20.06-4.86 4.47-14.94 2.09-20.59 5.54s-8.12 13.49-14.37 15.77c-6.25 2.28-14.54-3.79-21.15-2.77-6.42 1-12.58 9.32-19.32 9-6.74-.32-12.18-9.1-18.49-10.63-6.5-1.58-15.38 3.74-21.31 1-5.93-2.74-7.68-13-13-16.92-5.32-3.92-15.59-2.4-20.06-7.26-4.47-4.86-2.1-14.94-5.55-20.6-3.45-5.66-13.47-8.11-15.76-14.35-2.29-6.24 3.8-14.54 2.77-21.15-1-6.42-9.32-12.59-9-19.32.32-6.73 9.11-12.18 10.64-18.49 1.57-6.5-3.74-15.38-1-21.31 2.74-5.93 13-7.68 16.92-13 3.92-5.32 2.41-15.59 7.27-20 4.86-4.41 14.94-2.1 20.59-5.55 5.65-3.45 8.12-13.48 14.37-15.77 6.25-2.29 14.53 3.75 21.12 2.73 6.41-1 12.58-9.32 19.31-9 6.73.32 12.18 9.11 18.5 10.63 6.5 1.58 15.37-3.74 21.3-1 5.93 2.74 7.69 13 13 16.92 5.31 3.92 15.59 2.4 20.06 7.26 4.47 4.86 2.1 14.95 5.55 20.6 3.45 5.65 13.48 8.12 15.77 14.36 2.29 6.24-3.8 14.54-2.78 21.15.98 6.38 9.32 12.57 9.03 19.3Z"/>
  <path fill="#845161" d="M286.039 289.679c-66.848 51.471-160.089 51.06-226.48-1l48.66-22.81a47.494 47.494 0 0 0 4.35-2.34l1.12-.7c.4-.25.79-.51 1.18-.78a46.543 46.543 0 0 0 14.67-16.47c4-7.55 5.32-15.89 5.38-24.39 0-5.72-.31-11.44-.37-17.17-.04-3.167-.073-6.337-.1-9.51l2 1 5.2 2.69 30.29 5.15 31.12 5.3.94 32 .47 15.87 11.47 4.67 9 3.64 61.1 24.85Z"/>
  <path fill="#69303A" d="M203.979 240.629a60.085 60.085 0 0 1-30.07-2.32c-21.58-7.25-36.11-24.74-37.48-42.76l5.2 2.69 30.29 5.15 31.12 5.3.94 31.94Z"/>
  <path fill="url(#b)" d="M286.039 289.679c-66.848 51.471-160.089 51.06-226.48-1l48.66-22.81a47.494 47.494 0 0 0 4.35-2.34c23.68 17.41 56.63 28.75 85.06 16 8.06-3.62 15.33-10.05 18.29-18.31l9 3.64 61.12 24.82Z"/>
  <circle cx="111.939" cy="160.949" r="17" fill="#845161"/>
  <circle cx="118.019" cy="159.209" r="17" fill="#69303A"/>
  <path fill="#845161" d="M195.609 228.689c-21-.89-71.22-19.8-81.25-60.94a98.19 98.19 0 0 1-2.8-26.21c0-1.73.16-3.44.3-5.14 2.47-28.26 17.95-51.33 41.12-57 1.34-.32 2.68-.59 4-.78a47.89 47.89 0 0 1 23.97 2.69 66.863 66.863 0 0 1 25.59 17.76 83.726 83.726 0 0 1 8.09 10.36 96.288 96.288 0 0 1 13.27 30.64c10.02 41.17-16.97 89.24-32.29 88.62Z"/>
  <path fill="#00214E" d="M162.869 142.389c6.09.31 5.7 9.62-.4 9.42h-.27c-6.1-.31-5.7-9.63.39-9.42h.28Zm50.38-1.72c5.65.29 5.29 8.93-.37 8.74h-.26c-5.65-.28-5.29-8.93.37-8.74h.26Z"/>
  <path stroke="#00214E" d="M194.969 140.379c.11 3.895.619 7.769 1.52 11.56.9 3.35 2.29 5.47 4.17 8.4a18.927 18.927 0 0 1 1.66 3.06c2.39 6-1.39 12.48-8.07 12.2l-4.12-.18m-24.4 10.16a29.799 29.799 0 0 0 18.12 10.46m-8.01-28.89a3.4 3.4 0 0 0 1.84 6.47m22.54-45.31a31.117 31.117 0 0 1 22.92-1.2m-75.47 1.88a36.69 36.69 0 0 1 31.24.34"/>
  <path fill="url(#c)" d="M208.329 99.819c.49 1.18.39 2.21-.45 3.82a24.488 24.488 0 0 1-3.72 5.25 24.34 24.34 0 0 1-24.28 7.15 22.091 22.091 0 0 1-6.55-2.73c-1.5-1-3.24-3.36-5.28-2.56a4.077 4.077 0 0 0-1.85 2c-3.27 5.78-5.28 11.85-11.74 14.89a19.724 19.724 0 0 1-11.92 1.16c-3.42-.61-4.48-3.32-7.41-4.15-1.65-.47-3.3.8-4.3 2.2-1.89 2.65-2.05 6-3.61 8.81-2 3.7-6.07 7-10.41 7.48a5.191 5.191 0 0 1-4.62-1.73c-2.21-2.86-.9-8-.48-11.31 1.6-12.38 5.86-24.64 13.39-34.69 6.79-9 16.28-16 27.34-18.65 19.15-4.67 42.86 6.5 54.75 21.16a7.02 7.02 0 0 1 1.14 1.9Z"/>
  <path fill="#00214E" d="M206.029 96.479c-18.41-4.94-40.11-4-54.84 4.27-25.6 14.34-31.61 25.72-39.75 37.65l-.35.53c0-.69 0-1.39.09-2.08 1.58-29.65 17.33-54.19 41.33-60 18.91-4.61 38.63 3.45 53.49 19.6l.03.03Z"/>
  <defs>
    <linearGradient id="a" x1="134.27" x2="379.702" y1="348.153" y2="138.516" gradientUnits="userSpaceOnUse">
      <stop stop-color="#315676"/>
      <stop offset="1" stop-color="#E1B9E0"/>
    </linearGradient>
    <linearGradient id="b" x1="59.559" x2="286.039" y1="327.972" y2="327.972" gradientUnits="userSpaceOnUse">
      <stop stop-color="#16243F"/>
      <stop offset="1" stop-color="#6878B1"/>
    </linearGradient>
    <linearGradient id="c" x1="159.547" x2="195.559" y1="224.564" y2="78.698" gradientUnits="userSpaceOnUse">
      <stop stop-color="#315676"/>
      <stop offset="1" stop-color="#E1B9E0"/>
    </linearGradient>
  </defs>
</svg>
