<svg xmlns="http://www.w3.org/2000/svg" width="340" height="340" fill="none" viewBox="0 0 340 340">
  <path fill="url(#a)" d="M179.65 68.25c-1.37 5.88-9.2 8.78-12.51 13.39-3.43 4.79-3.74 13.1-8.66 16.16-4.92 3.06-12.52-.34-18.32.62-5.61.93-11.68 6.68-17.55 5.31-5.87-1.37-8.78-9.21-13.39-12.52-4.79-3.43-13.1-3.74-16.16-8.66-3.06-4.92.34-12.51-.62-18.32-.93-5.61-6.68-11.67-5.31-17.55 1.37-5.88 9.21-8.78 12.52-13.39 3.43-4.79 3.74-13.1 8.66-16.16 4.92-3.06 12.51.34 18.32-.62 5.61-.93 11.67-6.67 17.55-5.3 5.88 1.37 8.78 9.2 13.39 12.51 4.79 3.43 13.1 3.74 16.16 8.66 3.06 4.92-.34 12.52.62 18.33.93 5.6 6.72 11.67 5.3 17.54Z"/>
  <path fill="url(#b)" d="M197.47 203.06c-2.52 3-4.7 6.28-7.26 9.23-13.62 15.66-43.3 5.37-58.06-4-10.83-6.85-19-17.18-26-27.94-8.6-13.27-15.79-27.7-18.9-43.2C73 66.16 164.07 35.28 215.14 70.13c19 13 36.18 42.16 32 65.53-2.13 11.86-10.57 22.53-9.67 34.54 1 12.94 12.7 25.27 7.8 37.29-1.92 4.7-6.05 8.06-9.41 11.87-4.53 5.15-7.83 11.59-8.23 18.43-.4 6.84 2.45 14 8.1 17.92-13.93-1.86-22.52-18.54-18.91-32.12 1.18-4.46 3.35-8.62 4.3-13.14.95-4.52.4-9.77-3.05-12.83-4.43-3.93-11.65-2.44-16.31 1.22a30.449 30.449 0 0 0-4.29 4.22Z"/>
  <path fill="#845161" d="M283.48 291.14c-66.848 51.471-160.089 51.06-226.48-1l48.66-22.81a47.625 47.625 0 0 0 4.35-2.34l1.12-.7c.4-.25.79-.51 1.18-.78a46.528 46.528 0 0 0 14.67-16.45c4-7.55 5.32-15.89 5.38-24.39 0-5.72-.31-11.44-.37-17.17-.04-3.166-.073-6.336-.1-9.51l.2.1 1.78.92 5.2 2.69 30.29 5.15 31.12 5.3.72 24.47.22 7.5.47 15.87 11.47 4.67 9 3.64 61.12 24.84Z"/>
  <path fill="#69303A" d="M201.2 234.59a11.998 11.998 0 0 1-7.22 2c-14.79-1.59-43.64-13.18-61.8-34.63 0-1.053-.02-2.103-.06-3.15v-2.79l1.78.92 5.2 2.69 30.29 5.15 31.12 5.3.69 24.51Z"/>
  <path fill="url(#c)" d="M283.48 291.15c-66.848 51.471-160.089 51.06-226.48-1l48.66-22.81a48.938 48.938 0 0 0 4.36-2.34c23.67 17.41 56.63 28.75 85.05 16 8.06-3.62 15.33-10.05 18.29-18.31l9 3.64 61.12 24.82Z"/>
  <circle cx="106.89" cy="163.97" r="17" fill="#845161"/>
  <circle cx="112.89" cy="161.97" r="17" fill="#69303A"/>
  <path fill="#845161" d="M222.43 138.22c11.74 40.69-13.2 89.84-28.54 89.84-21 0-72-16.77-83.73-57.46-11.73-40.69 3.91-80.89 34.91-89.84 31-8.95 65.62 16.78 77.36 57.46Z"/>
  <ellipse cx="157.45" cy="151.47" stroke="#fff" rx="19" ry="11.84"/>
  <ellipse cx="212.25" cy="148.91" stroke="#fff" rx="19" ry="11.84"/>
  <path fill="url(#d)" d="M187.61 88.28c-2.4 4.74-7.4 8.86-10.37 13.71-3.89 6.35-6.83 13.25-10.13 19.92-2.45 5-5.18 9.94-9.33 13.61s-10 5.84-15.31 4.31c-3.64-1.05-6.59-3.65-9.85-5.58-3.26-1.93-7.43-3.22-10.77-1.42-4.92 2.64-4.85 9.81-8.37 14.14-8.07 9.93-22.88-3.45-24.67-12.12-2.6-12.67 7.79-23.26 15.35-32 6.31-7.3 14.83-18.44 24.73-20.87.18 0 58-23 58-23 .52 7.73 3.64 19.16 1.78 26.56-.249.95-.604 1.87-1.06 2.74Z"/>
  <path stroke="#00214E" d="M185.47 140.12c-.05.24 5.54 15.88 8.93 25.32a5.258 5.258 0 0 1-4.94 7h-3.64m11.11-42.53a31.183 31.183 0 0 1 22.85-2.16m-77.96 5.86a36.72 36.72 0 0 1 31.23-1"/>
  <path stroke="#fff" d="m176.45 151.47 16.94-1.3"/>
  <path fill="#00214E" d="M159.99 144.69c6.1 0 6.1 9.37 0 9.42h-.27c-6.11-.05-6.11-9.38 0-9.42h.27Zm50.26-3.09c5.66.05 5.66 8.7 0 8.75H210c-5.67 0-5.67-8.7 0-8.75h.25Z"/>
  <path stroke="#00214E" d="M178.37 166.71a3.382 3.382 0 0 0-3 3.15 2.651 2.651 0 0 0 3.24 2.5"/>
  <path fill="#fff" d="M160.72 181.83a1.863 1.863 0 0 1 2.68-.5c2.08 1.46 5.88 4.56 11.28 5.63 7.36 1.47 13.75-1.48 15.27.42.86 1.07-.19 2.37-2.2 4.05a19.738 19.738 0 0 1-14.86 3.69c-7.08-1.33-12.4-9.53-12.4-12.44 0-.299.079-.592.23-.85Z"/>
  <defs>
    <linearGradient id="a" x1="76.338" x2="168.857" y1="93.015" y2="114.585" gradientUnits="userSpaceOnUse">
      <stop stop-color="#16243F"/>
      <stop offset="1" stop-color="#6878B1"/>
    </linearGradient>
    <linearGradient id="b" x1="85.78" x2="247.76" y1="255.685" y2="255.685" gradientUnits="userSpaceOnUse">
      <stop stop-color="#16243F"/>
      <stop offset="1" stop-color="#6878B1"/>
    </linearGradient>
    <linearGradient id="c" x1="143.066" x2="178.078" y1="357.645" y2="246.015" gradientUnits="userSpaceOnUse">
      <stop stop-color="#315676"/>
      <stop offset="1" stop-color="#E1B9E0"/>
    </linearGradient>
    <linearGradient id="d" x1="76.261" x2="171.688" y1="130.232" y2="178.567" gradientUnits="userSpaceOnUse">
      <stop stop-color="#16243F"/>
      <stop offset="1" stop-color="#6878B1"/>
    </linearGradient>
  </defs>
</svg>
