<svg xmlns="http://www.w3.org/2000/svg" width="340" height="340" fill="none" viewBox="0 0 340 340">
  <path fill="#00214E" d="M105.86 153.72c-1.57-3.12-3.09-6.28-4.55-9.45-2.86-6.2-5.54-12.55-6.74-19.27-3.89-21.68 7.32-45.32 23.41-59.22 22.9-19.77 55.34-27.24 80.57-44.78a34.589 34.589 0 0 1-12.9 21.76c11.81-9.1 47 5.89 58 11.51a116.303 116.303 0 0 1 44.94 40.08 73.87 73.87 0 0 0-37.51-4.8c9.88 9.57 20.16 19.78 23.9 33-17.73-12.78-46.04-6.63-56.84 12.42-6.93 12.2-6.83 27.06-11 40.47-4.4 14.2-16.27 23.22-30.23 27-10.52 2.88-31.22 4.18-40.75-2-2.89-1.87-5-4.73-6.94-7.55a318.934 318.934 0 0 1-23.36-39.17Z"/>
  <circle cx="116.89" cy="157.69" r="17" fill="#845161"/>
  <circle cx="122.75" cy="156.69" r="16" fill="#69303A"/>
  <path fill="#845161" d="M278.48 280.92c-66.848 51.471-160.089 51.059-226.48-1l48.66-22.81a46.883 46.883 0 0 0 6.65-3.82c.64-.44 1.28-.9 1.89-1.38a46.366 46.366 0 0 0 12.78-15.09c4-7.55 5.32-15.89 5.38-24.39 0-2.81-.06-5.63-.14-8.45-.08-2.82-.2-5.81-.23-8.72-.04-3.167-.073-6.337-.1-9.51l2 1 5.2 2.69 2.41.41 27.88 4.74 31.12 5.3.94 32 .39 13.29.07 2.25v.33l12.1 4.92 69.48 28.24Z"/>
  <path fill="#69303A" d="m196.81 245.11-1.54.16a51.492 51.492 0 0 1-40.67-14.65l-27.38-33.34c-.09-2.9-.2.83-.23-2.08-.04-3.167-.073-6.337-.1-9.51l2 1 5.2 2.69 2.41.41 27.88 4.74 31.12 5.3.94 32 .37 13.28Z"/>
  <path fill="#845161" d="M125.55 125.979a17.098 17.098 0 0 0-5.64 10.69c-2.09 19.53 5.14 42.58 7.15 62.14l36.42 26.86a51.474 51.474 0 0 0 42.29 8.94c5.87-1.39 9.59-2.29 12.24-7 5.12-9 17.69-39.79 18.51-61.51.23-6.17.08-15.57-3.72-20.82-1.85-2.55-2.8-2.61-2.13-6.21.69-3.76 1.68-7.48 2.51-11.21a51.995 51.995 0 0 0 1-16.45c-.55-5-.53-9.44-1.06-14.53-.26-2.47-1.36-13.28-1.36-13.28-6.35 9.56-17.81 14.58-28.41 17.88-14.42 4.48-29.43 6.67-44.05 10.43-9.69 2.53-25.36 6.13-33.75 14.07Z"/>
  <path fill="#00214E" d="M168.76 141.049c6.1.05 6.1 9.38 0 9.43h-.27c-6.11-.05-6.11-9.38 0-9.43h.27Zm52.69-2.849c5.67 0 5.67 8.7 0 8.75h-.25c-5.66-.05-5.66-8.71 0-8.75h.25Z"/>
  <path stroke="#00214E" d="M173.23 186a29.762 29.762 0 0 0 18.54 9.69m-37.21-65.83a80.317 80.317 0 0 1 28.13-.8m30.92.86a55.611 55.611 0 0 1 17.45-1.21"/>
  <path fill="#FF2609" d="M278.48 280.92c-66.848 51.471-160.089 51.059-226.48-1l48.66-22.81a46.883 46.883 0 0 0 6.65-3.82c.64-.44 1.28-.9 1.89-1.38 23.55 16.76 55.69 27.33 83.49 14.82 6.62-3 12.7-7.84 16.3-14.06l69.49 28.25Z"/>
  <path stroke="#00214E" d="M185.56 169.169a3.4 3.4 0 0 0 2.11 6.38m13.3-35.419c2.49 9.55 4.56 19 6.93 28.57.278.878.38 1.802.3 2.72-.43 2.75-3.7 3.88-6.42 4.47"/>
</svg>
