<svg xmlns="http://www.w3.org/2000/svg" width="340" height="340" fill="none" viewBox="0 0 340 340">
  <path fill="#00214E" fill-rule="evenodd" d="M230.688 90.115c.34 1.648.687 3.33 1.052 5.047 9.45 44.29 13.03 123.85 13.03 123.85s-156.3.89-186.24-2.11l.244-1.435c4.268-25.121 8.537-50.242 13.296-75.275.4-2.154.802-4.361 1.211-6.61 2.438-13.4 5.143-28.271 9.579-42.1 3.44-10.74 7.96-20.86 14.27-29.18a58.943 58.943 0 0 1 16.2-14.09 106.54 106.54 0 0 1 26.74-11.36 109.091 109.091 0 0 1 20.14-3.67 71.468 71.468 0 0 1 33.59 5.75 74.202 74.202 0 0 1 14.75 8.43c15.708 11.596 18.532 25.28 22.138 42.753Zm-89.918 20.057 16.8 5.43 37.57-22.37-3.71-2.06-50.66 19Z" clip-rule="evenodd"/>
  <path fill="#F2D4CF" d="M283.48 269.652c-66.848 51.471-160.089 51.059-226.48-1l48.66-22.81a48.12 48.12 0 0 0 4.35-2.34l1.12-.7c.4-.25.79-.51 1.18-.78a46.552 46.552 0 0 0 14.67-16.47c4-7.55 5.32-15.89 5.38-24.39 0-5.72-.31-11.44-.37-17.17-.04-3.174-.073-6.344-.1-9.51l2 1 5.2 2.69 30.27 5.13 31.12 5.3.94 32 .47 15.87 11.47 4.67 9 3.64 61.12 24.87Z"/>
  <path fill="#DAAEA8" d="M201.23 212.912c-2.72 1.68-5.29 2.47-7.54 2.23-14.79-1.59-43.64-13.18-61.8-34.63 0-1.054-.02-2.104-.06-3.15-.04-3.174-.073-6.344-.1-9.51l2 1 5.2 2.69 30.29 5.15 31.12 5.3.89 30.92Z"/>
  <path fill="#F2A196" d="M283.48 269.652c-66.848 51.471-160.089 51.059-226.48-1l48.66-22.81a48.12 48.12 0 0 0 4.35-2.34c23.68 17.41 56.64 28.75 85.06 16 8.06-3.62 15.33-10 18.29-18.31l9 3.64 61.12 24.82Z"/>
  <circle cx="105.21" cy="141.192" r="17" fill="#F2D4CF"/>
  <circle cx="111.21" cy="139.192" r="17" fill="#DAAEA8"/>
  <path fill="#F2D4CF" d="M220.75 115.452c11.74 40.68-13.2 89.87-28.54 89.87-21 0-72-16.78-83.73-57.46-11.73-40.68 3.87-80.93 34.87-89.88 31-8.95 65.65 16.78 77.4 57.47Z"/>
  <path stroke="#00214E" d="M190 111.432a31.18 31.18 0 0 1 22.85-2.13m-71.73 4.42a36.756 36.756 0 0 1 31.23-1"/>
  <ellipse cx="154.339" cy="126.733" fill="#00214E" rx="3.27" ry="7.94" transform="rotate(-85.77 154.339 126.733)"/>
  <ellipse cx="205.831" cy="125.117" fill="#00214E" rx="7.94" ry="3.27" transform="rotate(-13.23 205.831 125.117)"/>
  <path stroke="#00214E" d="M190.8 135.792s.29 5.65 1.62 8.3c.57 1.15 1.45 2.11 2 3.24 2.21 4.34-1.37 5.25-4.81 5.25m-12.73-6.91a3.4 3.4 0 0 0 2.11 6.38"/>
  <path fill="#fff" d="M158.9 161.182a1.868 1.868 0 0 1 2.69-.5c2.07 1.46 5.87 4.56 11.27 5.64 7.36 1.46 13.75-1.48 15.27.41.86 1.07-.19 2.38-2.2 4a19.681 19.681 0 0 1-14.86 3.74c-7.09-1.33-12.4-9.53-12.4-12.43 0-.302.079-.599.23-.86Z"/>
  <path fill="#00214E" d="m213.57 82.912-22.14 8.29-50.66 18.97h-.01l-37.83 14.17-.58-26.57-.78-35.86 23.49-7.32 37.51-11.68 51 40Z"/>
  <path fill="url(#a)" d="m191.43 91.202-50.66 19-38.41-12.4-19.49-6.29c3.44-10.74 8-20.86 14.27-29.18a58.939 58.939 0 0 1 16.21-14.09c3.5 1.89 7.47 4 11.72 6.38 23.45 12.79 55.57 30.59 66.36 36.58Z"/>
  <path fill="url(#b)" d="M193.8 38.932c-10.11 4.59-33.67 16.11-46.9 29.19-17.18 17-42.24 55.34-42.24 55.34a209.964 209.964 0 0 1 4.31-27.16c3.36-14.7 9.08-31.32 14.17-39.29 3.8-5.94 10.46-13.71 16.93-20.16 6.58-1.852 13.32-3.08 20.13-3.67a71.469 71.469 0 0 1 33.6 5.75Z"/>
  <defs>
    <linearGradient id="a" x1="183.399" x2="193.282" y1="133.28" y2="61.315" gradientUnits="userSpaceOnUse">
      <stop offset=".29" stop-color="#00214E"/>
      <stop offset=".51" stop-color="#6878B1"/>
      <stop offset=".79" stop-color="#00214E"/>
    </linearGradient>
    <linearGradient id="b" x1="143.098" x2="210.807" y1="148.64" y2="68.6" gradientUnits="userSpaceOnUse">
      <stop stop-color="#FF2609"/>
      <stop offset=".17" stop-color="#FF8500"/>
      <stop offset=".36" stop-color="#FFED00"/>
      <stop offset=".55" stop-color="#00830D"/>
      <stop offset=".72" stop-color="#004AFF"/>
      <stop offset="1" stop-color="#81008C"/>
    </linearGradient>
  </defs>
</svg>
