<svg xmlns="http://www.w3.org/2000/svg" width="340" height="340" fill="none" viewBox="0 0 340 340">
  <path fill="#F2D4CF" d="M283.48 270.18c-66.848 51.471-160.089 51.06-226.48-1l48.66-22.81a46.787 46.787 0 0 0 6.65-3.82c.64-.44 1.28-.9 1.89-1.38a46.346 46.346 0 0 0 12.78-15.09 44.68 44.68 0 0 0 4.64-14.5c.488-3.281.736-6.593.74-9.91 0-5.72-.31-11.44-.37-17.17-.04-3.173-.073-6.343-.1-9.51l2 1 5.2 2.69 2.41.41 27.88 4.74 31.12 5.3.94 32 .31 10.46.15 5.08v.33l12.1 4.92 69.48 28.26Z"/>
  <path fill="#DAAEA8" d="M201.9 234.68a16 16 0 0 1-10.07-1.56l-59.67-48.78c-.07-2.26-.13.11-.16-2.15-.04-3.173-.073-6.343-.1-9.51l2 1 5.2 2.69 2.41.41 27.86 4.8 31.12 5.3.94 32 .31 10.46.15 5.08v.33l.01-.07Z"/>
  <path fill="url(#a)" d="m269.07 31-.27.11-3.06 58.12c-1.621 30.869-21.289 57.88-50.17 68.9L132.07 187c0-.73-5.31-6-12-12.41a91.078 91.078 0 0 1-28.29-64c-.94-42.31 32-78.28 74.34-79.57h2.41L269.07 31Z"/>
  <path fill="url(#b)" d="m268.78 31.11-.53 52.25c-.332 33.45-21.309 63.211-52.7 74.77V89.5s24.79-58.11 53.23-58.39Z"/>
  <circle cx="122.05" cy="147" r="17" fill="#F2D4CF"/>
  <circle cx="127.45" cy="147" r="15.22" fill="#DAAEA8"/>
  <path fill="#F2D4CF" d="m127.67 130.96 4.38 57 66.44 38.82c9.538 3.558 20.219-.709 24.68-9.86 9.56-19.58 24.9-50.5 22.88-62-3-17-11-23-11-23l3.33-19.94c1.25-7.51 2.86-15.35 1-22.9-2.13-8.66-8.67-12.35-14.05-18.82-14.16 18.24-37.44 28.55-57.77 39-10.49 5.52-39.89 21.7-39.89 21.7Z"/>
  <path stroke="#00214E" d="M159.72 119.17a80.58 80.58 0 0 1 28.13-.79m30.92.9a54.993 54.993 0 0 1 17.45-1.21m-40.48 39.69a3.4 3.4 0 0 0 2.11 6.38"/>
  <ellipse cx="173.772" cy="133.431" fill="#00214E" rx="3.27" ry="7.94" transform="rotate(-85.77 173.772 133.431)"/>
  <ellipse cx="225.864" cy="132.717" fill="#00214E" rx="7.94" ry="3.27" transform="rotate(-7.27 225.864 132.717)"/>
  <path stroke="#00214E" d="M213.8 147.41s.29 5.65 1.61 8.3c.57 1.14 1.46 2.1 2 3.24 2.22 4.33-1.36 5.24-4.81 5.24"/>
  <path fill="#00214E" d="M283.48 270.18c-66.848 51.471-160.089 51.06-226.48-1l48.66-22.81a46.787 46.787 0 0 0 6.65-3.82c.64-.44 1.28-.9 1.89-1.38a46.346 46.346 0 0 0 12.78-15.09 44.68 44.68 0 0 0 4.64-14.5 28.616 28.616 0 0 0 2.22 1.94 95.138 95.138 0 0 0 19.82 11.26 99.207 99.207 0 0 0 10.46 3.69 93.529 93.529 0 0 0 33 3.49c1.54-.12 3.09-.27 4.63-.38l.15 5.08v.33l12.1 4.92 69.48 28.27Z"/>
  <path fill="#fff" d="M179.23 175.65a1.848 1.848 0 0 1 2.68-.5c2.08 1.46 5.88 4.56 11.28 5.63 7.36 1.47 13.74-1.48 15.27.42.86 1.07-.19 2.37-2.2 4a19.742 19.742 0 0 1-14.86 3.69c-7.08-1.33-12.4-9.53-12.4-12.44a1.67 1.67 0 0 1 .23-.8Z"/>
  <defs>
    <linearGradient id="a" x1="201.758" x2="338.464" y1="207.448" y2="60.453" gradientUnits="userSpaceOnUse">
      <stop stop-color="#315676"/>
      <stop offset="1" stop-color="#E1B9E0"/>
    </linearGradient>
    <linearGradient id="b" x1="168.116" x2="323.983" y1="48.362" y2="195.279" gradientUnits="userSpaceOnUse">
      <stop stop-color="#315676"/>
      <stop offset="1" stop-color="#E1B9E0"/>
    </linearGradient>
  </defs>
</svg>
