<svg xmlns="http://www.w3.org/2000/svg" width="340" height="340" fill="none" viewBox="0 0 340 340">
  <path fill="#00214E" fill-rule="evenodd" d="M230.688 90.138c.34 1.648.687 3.33 1.052 5.046 9.45 44.29 13.03 123.85 13.03 123.85s-156.3.89-186.24-2.11l.244-1.434c4.268-25.122 8.537-50.242 13.296-75.276.4-2.154.802-4.361 1.211-6.609 2.438-13.4 5.143-28.271 9.579-42.1 3.44-10.74 7.96-20.86 14.27-29.18a58.942 58.942 0 0 1 16.21-14.12c14.22-8.7 32.39-13.85 46.87-15 17.07-1.35 34.61 4.06 48.34 14.18 15.708 11.596 18.532 25.28 22.138 42.753Zm-89.918 20.056 16.8 5.43 37.57-22.37-3.71-2.06-50.66 19Z" clip-rule="evenodd"/>
  <path fill="#F2D4CF" d="M283.48 269.664c-66.848 51.472-160.089 51.06-226.48-1l48.66-22.81a47.625 47.625 0 0 0 4.35-2.34l1.12-.7c.4-.25.79-.51 1.18-.78a46.543 46.543 0 0 0 14.67-16.47c4-7.55 5.32-15.89 5.38-24.39 0-5.72-.31-11.44-.37-17.17-.04-3.166-.073-6.336-.1-9.51l2 1 5.2 2.69 30.27 5.14 31.12 5.3.94 32 .47 15.87 11.47 4.67 9 3.64 61.12 24.86Z"/>
  <path fill="#DAAEA8" d="M201.23 216.924c-2.72 1.68-5.29 2.47-7.54 2.23-14.79-1.59-43.64-13.18-61.8-34.63 0-1.046-.02-2.096-.06-3.15-.04-3.173-.073-6.343-.1-9.51l2 1 5.2 2.69 30.29 5.15 31.12 5.3.89 30.92Z"/>
  <path fill="#FF2609" d="M283.48 269.664c-66.848 51.472-160.089 51.06-226.48-1l48.66-22.81a47.36 47.36 0 0 0 4.35-2.33c23.68 17.41 56.64 28.74 85.06 15.95 8.06-3.62 15.33-10.05 18.29-18.31l9 3.64 61.12 24.86Z"/>
  <circle cx="105.21" cy="141.214" r="17" fill="#F2D4CF"/>
  <circle cx="111.21" cy="139.214" r="17" fill="#DAAEA8"/>
  <path fill="#F2D4CF" d="M220.75 115.464c11.74 40.69-13.2 89.88-28.54 89.88-21 0-72-16.78-83.73-57.47-11.73-40.69 3.87-80.92 34.87-89.87 31-8.95 65.65 16.78 77.4 57.46Z"/>
  <path stroke="#00214E" d="M190 111.454a31.08 31.08 0 0 1 22.85-2.13m-71.73 4.42a36.763 36.763 0 0 1 31.23-1"/>
  <ellipse cx="154.339" cy="126.756" fill="#00214E" rx="3.27" ry="7.94" transform="rotate(-85.77 154.339 126.756)"/>
  <ellipse cx="205.831" cy="125.139" fill="#00214E" rx="7.94" ry="3.27" transform="rotate(-13.23 205.831 125.139)"/>
  <path stroke="#00214E" d="M190.8 135.814s.29 5.65 1.62 8.3c.57 1.14 1.45 2.11 2 3.24 2.21 4.34-1.37 5.25-4.81 5.25m-12.73-6.91a3.4 3.4 0 0 0 2.11 6.38"/>
  <path fill="#fff" d="M158.9 161.204a1.872 1.872 0 0 1 2.69-.5c2.07 1.46 5.87 4.56 11.27 5.63 7.36 1.47 13.75-1.48 15.27.42.86 1.07-.19 2.38-2.2 4a19.681 19.681 0 0 1-14.86 3.74c-7.09-1.33-12.4-9.53-12.4-12.43a1.688 1.688 0 0 1 .23-.86Z"/>
  <path fill="#00214E" d="m213.57 82.934-22.14 8.29-50.66 18.97h-.01l-37.83 14.17-.58-26.57-.78-35.86 23.49-7.32 37.51-11.68 51 40Z"/>
  <path fill="url(#a)" d="m191.43 91.224-50.66 19-38.41-12.4-19.49-6.29c3.44-10.74 8-20.86 14.27-29.18a58.939 58.939 0 0 1 16.21-14.09c3.5 1.89 7.47 4 11.72 6.38 23.45 12.79 55.57 30.59 66.36 36.58Z"/>
  <defs>
    <linearGradient id="a" x1="183.399" x2="193.282" y1="133.303" y2="61.337" gradientUnits="userSpaceOnUse">
      <stop offset=".29" stop-color="#00214E"/>
      <stop offset=".51" stop-color="#6878B1"/>
      <stop offset=".79" stop-color="#00214E"/>
    </linearGradient>
  </defs>
</svg>
