<svg xmlns="http://www.w3.org/2000/svg" width="340" height="340" fill="none" viewBox="0 0 340 340">
  <path fill="#845161" fill-rule="evenodd" d="M245.039 121.121c-.075 6.087-.147 11.925.091 17.2 1.36 30.12 1.923 60.247 1.69 90.38-18.526 4.365-40.915 4.347-60.926 4.331-3.051-.002-6.046-.004-8.964.009-43.06.21-83.75-8.08-123.93-22.66a685.006 685.006 0 0 1 27.9-104c1.54-4.34 3.25-8.79 5.18-13.24 8.7-20.19 21.57-40.43 41-50.83a59.583 59.583 0 0 1 7.12-3.24c34.2-12.95 80.02-5.61 101.59 26.15 9.761 14.37 9.489 36.416 9.249 55.9Zm-95.099-9.44 4.77 1.39 58.03-26.88c-5.869-2.948-14.763-7.605-25.35-13.148l-3.08-1.612a71.002 71.002 0 0 1-28 36.32 70.292 70.292 0 0 1-6.37 3.93Z" clip-rule="evenodd"/>
  <path fill="#F2D4CF" d="M286.92 268.611c-66.848 51.471-160.089 51.06-226.48-1l48.66-22.82a47.625 47.625 0 0 0 4.35-2.34l1.12-.7c.4-.25.79-.51 1.18-.78a46.543 46.543 0 0 0 14.67-16.47c4-7.55 5.32-15.89 5.38-24.39 0-5.72-.31-11.44-.37-17.17-.04-3.173-.073-6.343-.1-9.51l2 1 5.2 2.69 30.26 5.17 31.12 5.3.94 32 .47 15.87 11.47 4.64 9 3.64 61.13 24.87Z"/>
  <path fill="#DAAEA8" d="M204.86 219.561a60.09 60.09 0 0 1-30.07-2.35c-21.58-7.25-36.11-24.74-37.48-42.76l5.2 2.69 30.28 5.15 31.12 5.3.95 31.97Z"/>
  <circle cx="106.33" cy="141.431" r="17" fill="#F2D4CF"/>
  <circle cx="112.33" cy="139.431" r="17" fill="#DAAEA8"/>
  <path fill="#F2D4CF" d="M229.24 114.641c12.46 43.15-11.79 93.25-30.26 95.31-44.63 5-76.34-17.79-88.8-60.94-12.46-43.15 4.1-85.81 37-95.3 32.9-9.49 69.61 17.79 82.06 60.93Z"/>
  <path fill="#845161" d="M189.43 47.55a113.852 113.852 0 0 1-2.27 14.05 89.744 89.744 0 0 1-2.85 9.83 71.002 71.002 0 0 1-28 36.321 70.292 70.292 0 0 1-6.37 3.93c-16.95 9.33-35.84 11.18-54.76 14.92.41-9.86.67-20.24 3.65-29.75a44.27 44.27 0 0 1 3.96-9.06 79.477 79.477 0 0 1 32.31-30.36 117.87 117.87 0 0 1 11.78-5.27c13.57-5.26 29.91-8.65 42.55-4.61Z"/>
  <path stroke="#00214E" d="M200.36 109.371a31.21 31.21 0 0 1 22.86-2.16"/>
  <path fill="#E18477" d="M286.92 268.611c-66.848 51.471-160.089 51.059-226.48-1l48.66-22.82a46.939 46.939 0 0 0 6.65-3.82c.64-.44 1.28-.9 1.89-1.38a46.346 46.346 0 0 0 12.78-15.09 44.697 44.697 0 0 0 4.64-14.48 28.616 28.616 0 0 0 2.22 1.94 95.157 95.157 0 0 0 19.82 11.26 99.207 99.207 0 0 0 10.46 3.69 93.529 93.529 0 0 0 33 3.49c1.54-.12 3.09-.27 4.63-.38l.15 5.08v.33l12.1 4.92 69.48 28.26Z"/>
  <path stroke="#00214E" d="M160.09 139.411a10.34 10.34 0 0 0 11-10m31.7-2a9.002 9.002 0 0 0 3.3 6.77 26.51 26.51 0 0 0 6.67 4m-60.91 31.49a25.624 25.624 0 0 1 4.57-5.65 24.623 24.623 0 0 1 13.21-6.23m7.94-67.601h23.67m-29.45 7.82h29.45"/>
  <path fill="#00214E" d="M200.06 149.421c.47.74.9 1.51 1.3 2.3.447.747.749 1.571.89 2.43a2.06 2.06 0 0 1-2.4 2.12c-.63-.13-.9.83-.27 1a3.1 3.1 0 0 0 3.64-2.45 5.2 5.2 0 0 0-.7-2.95 25.887 25.887 0 0 0-1.6-2.93c-.34-.54-1.21 0-.86.51v-.03Zm-16.72 1.16c-.85 1.37-1.85 3.06-1.37 4.74.4 1.36 1.84 2.62 3.31 2.08.6-.21.35-1.18-.26-1-1 .38-2-.68-2.14-1.64-.22-1.33.66-2.65 1.33-3.71.34-.55-.52-1.05-.87-.51v.04Z"/>
  <path fill="#fff" d="M162.92 168.431a1.86 1.86 0 0 1 2.68-.5c2.08 1.46 5.88 4.56 11.28 5.63 7.36 1.47 13.74-1.47 15.27.42.86 1.07-.19 2.38-2.2 4.05a19.693 19.693 0 0 1-14.86 3.69c-7.08-1.33-12.4-9.53-12.4-12.43 0-.302.079-.599.23-.86Z"/>
  <path fill="url(#a)" d="M184.31 71.43a71.002 71.002 0 0 1-28 36.321 70.292 70.292 0 0 1-6.37 3.93l-47.15-13.69-4-1.14-12.74-3.71c8.7-20.19 21.57-40.43 41-50.83l6.39 3.15c4.45 2.19 8.93 4.42 13.38 6.67 13.25 6.66 26.22 13.41 37.49 19.3Z"/>
  <path stroke="#00214E" d="M145.26 113.071a36.73 36.73 0 0 1 31.22-1"/>
  <ellipse cx="159.382" cy="125.253" fill="#00214E" rx="3.278" ry="7.959" transform="rotate(-85.996 159.382 125.253)"/>
  <ellipse cx="215.598" cy="125.277" fill="#00214E" rx="7.94" ry="3.27" transform="rotate(-8.86 215.598 125.277)"/>
  <defs>
    <linearGradient id="a" x1="176.314" x2="194.739" y1="138.808" y2="51.099" gradientUnits="userSpaceOnUse">
      <stop offset=".29" stop-color="#845161"/>
      <stop offset=".52" stop-color="#AD8390"/>
      <stop offset=".8" stop-color="#845161"/>
    </linearGradient>
  </defs>
</svg>
