<svg xmlns="http://www.w3.org/2000/svg" width="340" height="340" fill="none" viewBox="0 0 340 340">
  <path fill="#00214E" d="M205.567 41.191c-12-4-24.85-7.28-37.54-5.85a115.002 115.002 0 0 0-55.55 22c-31.89 23.78-40.09 66.78-53.41 102.31-5 13.33-10 26.79-12.17 40.87-6.32 41.77 21.57 56.83 57.72 67.09 45.55 12.93 95.4 9.07 139.81-6.53 37.83-13.29 53-45.33 45-83.6-4-18.88-11.54-36.8-19.14-54.55-14.46-33.68-28.13-69.39-64.72-81.74Z"/>
  <path fill="#E18477" d="M294.857 267.271c-66.85 51.464-160.086 51.053-226.48-1l48.66-22.81a47.363 47.363 0 0 0 4.35-2.34l1.12-.7c.4-.25.79-.51 1.18-.78a46.532 46.532 0 0 0 14.67-16.52c4-7.55 5.32-15.88 5.38-24.38 0-5.73-.31-11.44-.37-17.18-.04-3.167-.073-6.337-.1-9.51l2 1 5.2 2.69 30.29 5.15 31.12 5.3.94 32 .44 15.93 11.47 4.67 9 3.64 61.13 24.84Z"/>
  <path fill="#A76962" d="M212.767 214.881c-2.72 1.68-5.29 2.47-7.54 2.23-14.79-1.59-43.64-13.18-61.8-34.63 0-1.053-.02-2.103-.06-3.15-.04-3.173-.073-6.343-.1-9.51l2 1 5.2 2.69 30.29 5.15 31.12 5.3.89 30.92Z"/>
  <path fill="#FF2609" d="M294.857 267.271c-66.85 51.464-160.086 51.053-226.48-1l48.66-22.81c1.5-.707 2.95-1.483 4.35-2.33 23.68 17.41 56.64 28.74 85.06 15.95 8.06-3.62 15.33-10 18.29-18.31l9 3.64 61.12 24.86Z"/>
  <circle cx="117.927" cy="140.081" r="17" fill="#E18477"/>
  <circle cx="124.927" cy="138.081" r="17" fill="#A76962"/>
  <path fill="#E18477" d="M204.927 204.211c-20.64 3.86-72-16.78-83.74-57.46a98.168 98.168 0 0 1-3.9-26.07c0-1.73 0-3.45.08-5.15 1.28-28.34 15.78-52 38.69-58.65 1.32-.38 2.65-.7 4-1a47.858 47.858 0 0 1 24 1.68 66.862 66.862 0 0 1 26.32 16.67 84.04 84.04 0 0 1 8.52 10 96.379 96.379 0 0 1 14.54 30.05c11.82 40.74-13.1 87.06-28.51 89.93Z"/>
  <path stroke="#00214E" d="M200.577 116.011a58 58 0 0 0 2 11.49c1 3.31 2.52 5.36 4.52 8.22a17.732 17.732 0 0 1 1.79 3c2.65 5.94-.86 12.53-7.54 12.53h-4.09m-14.66-7.68a3.401 3.401 0 0 0 2.11 6.38m20.6-46.22a31.192 31.192 0 0 1 22.85-2.16m-75.32 5.05a36.763 36.763 0 0 1 31.23-1"/>
  <path fill="#00214E" d="M197.467 51.811c-9.92-1.93-21.82-1.59-31.55-1.47-5.31.06-10.69.4-15.75 2-14 4.51-23.11 18-28.79 31.6-1.45 3.47-16.44 38-16.11 38.07 9.6 3.12 19.88-1.22 28.89-5.75 26.74-13.47 55.12-35.12 66.62-63.74-1.07-.24-2.18-.49-3.31-.71Z"/>
  <path fill="#fff" d="M172.257 159.671a1.863 1.863 0 0 1 2.68-.5c2.08 1.46 5.88 4.56 11.28 5.64 7.36 1.46 13.75-1.48 15.27.41.86 1.07-.19 2.38-2.2 4.05a19.687 19.687 0 0 1-14.86 3.69c-7.08-1.33-12.4-9.53-12.4-12.43 0-.302.079-.598.23-.86Z"/>
  <path fill="#00214E" d="M166.667 118.011c6.1.05 6.1 9.37 0 9.42h-.27c-6.1-.05-6.1-9.37 0-9.42h.27Zm50.26-.66c5.67 0 5.67 8.7 0 8.74h-.25c-5.67 0-5.67-8.7 0-8.74h.25Z"/>
</svg>
