<svg xmlns="http://www.w3.org/2000/svg" width="340" height="340" fill="none" viewBox="0 0 340 340">
  <path fill="url(#a)" d="M56 210.671s19-105.26 27.23-125.44c12.82-31.53 43.39-50.33 76.92-53 24.51-1.94 47.64 8.38 60.25 29.37 16.1 26.81 31.27 149.22 31.27 149.22L56 210.671Z"/>
  <path fill="#E18477" d="M283.42 268.711c-66.848 51.471-160.089 51.06-226.48-1l48.66-22.81a47.625 47.625 0 0 0 4.35-2.34l1.12-.7c.4-.25.79-.51 1.18-.78a46.543 46.543 0 0 0 14.67-16.47c4-7.55 5.32-15.89 5.38-24.39 0-5.72-.31-11.44-.37-17.17-.04-3.167-.073-6.337-.1-9.51l2 1 5.2 2.69 30.27 5.12 31.12 5.3.7 23.8.24 8.17.47 15.87 11.47 4.67 9 3.64 61.12 24.91Z"/>
  <path fill="#A76962" d="M201.12 211.491c-2.67 1.63-5.19 2.39-7.4 2.15-14.79-1.59-43.64-13.18-61.8-34.63 0-1.047-.02-2.097-.06-3.15v-2.33l2 1 5.2 2.69 30.24 5.13 31.12 5.3.7 23.84Z"/>
  <path fill="#F2D4CF" d="M283.43 268.711c-66.848 51.471-160.089 51.06-226.48-1l48.66-22.81a47.625 47.625 0 0 0 4.35-2.34c23.68 17.41 56.64 28.75 85.06 16 8.06-3.62 15.33-10.05 18.29-18.31l9 3.64 61.12 24.82Z"/>
  <circle cx="105.16" cy="140.251" r="17" fill="#E18477"/>
  <circle cx="111.16" cy="138.251" r="17" fill="#A76962"/>
  <path fill="#E18477" d="M220.69 114.511c11.75 40.68-13.15 89.84-28.53 89.84-21 0-72-16.78-83.74-57.46-11.74-40.68 3.87-80.92 34.87-89.87 31-8.95 65.66 16.8 77.4 57.49Z"/>
  <path fill="url(#b)" d="M185.83 64.971a32.757 32.757 0 0 1-1.66 5.56c-7.52 18.57-19.12 34.58-36 45.7-20 13.16-39.6 12.58-62 15.8 1.27-8.18 4.14-16 4.39-24.57.4-13.42 3.43-18.54 11.89-28.34 6.3-7.29 14.83-18.43 24.73-20.87.17 0 58-23 58-23 .64 9.99 2.6 20.22.65 29.72Z"/>
  <path stroke="#00214E" d="M193.54 107.891a31.127 31.127 0 0 1 22.85-2.15m-75.32 5.05a36.749 36.749 0 0 1 31.23-1m18.45 25.06s.29 5.66 1.61 8.31c.58 1.14 1.46 2.1 2 3.23 2.22 4.34-1.36 5.25-4.81 5.25m-12.73-6.91a3.4 3.4 0 0 0 2.11 6.38m-18.01 12.75a29.782 29.782 0 0 0 18.54 9.69"/>
  <ellipse cx="157.546" cy="125.307" fill="#00214E" rx="3.27" ry="7.94" transform="rotate(-85.77 157.546 125.307)"/>
  <ellipse cx="209.056" cy="123.69" fill="#00214E" rx="7.94" ry="3.27" transform="rotate(-8.86 209.056 123.69)"/>
  <defs>
    <linearGradient id="a" x1="56" x2="251.67" y1="210.842" y2="210.842" gradientUnits="userSpaceOnUse">
      <stop stop-color="#315676"/>
      <stop offset="1" stop-color="#E1B9E0"/>
    </linearGradient>
    <linearGradient id="b" x1="99.436" x2="299.938" y1="241.208" y2="118.599" gradientUnits="userSpaceOnUse">
      <stop stop-color="#315676"/>
      <stop offset=".08" stop-color="#375979"/>
      <stop offset=".18" stop-color="#496383"/>
      <stop offset=".2" stop-color="#4D6585"/>
      <stop offset=".29" stop-color="#546989"/>
      <stop offset=".43" stop-color="#677495"/>
      <stop offset=".6" stop-color="#8786A9"/>
      <stop offset=".78" stop-color="#B39FC4"/>
      <stop offset=".95" stop-color="#E1B9E0"/>
    </linearGradient>
  </defs>
</svg>
