<svg xmlns="http://www.w3.org/2000/svg" width="340" height="340" fill="none" viewBox="0 0 340 340">
  <path fill="url(#a)" d="M205.377 39.191c-12-4-24.86-7.28-37.54-5.85a114.998 114.998 0 0 0-55.55 22c-9.93 7.41-22.55 19.36-24.63 32.32-1.86 11.6 12.26 20.23 9.59 30.76-2.27 8.92-20.48 6.91-23.85 16.74-3.71 10.92 16.51 23.92 12.68 33.68-3.51 8.94-28.53-1.33-29.52 11.39-1.35 17.27 28.44 21.2 26.33 30.9-2.31 10.6-35.4 6.64-37.75 15.78-2.26 8.79 23.72 28.6 59.29 38.7 95.44 27.1 193-24.86 190.24-38.09-1.46-7.11-31.26-10.32-32.27-19.65-.8-7.43 18.89-13.67 17.55-20.33-1.39-6.93-23.66-4.79-25.53-12.19-2.1-8.33 24.18-18.3 22.34-28.46-1.48-8.14-19.3-7.2-21.54-16.27-2.67-10.78 13.78-19.26 11.09-28-2.88-9.34-24.54-5.64-29.44-17.54-2.86-6.94 5.19-12.62 4.79-20.33-.38-7.19-8.14-16.06-36.28-25.56Z"/>
  <path fill="#E18477" d="M292.367 269.191c-66.848 51.471-160.089 51.06-226.48-1l48.66-22.81a47.625 47.625 0 0 0 4.35-2.34l1.12-.7c.4-.25.79-.51 1.18-.78a46.547 46.547 0 0 0 14.67-16.48c4-7.55 5.32-15.89 5.38-24.39 0-5.72-.31-11.44-.37-17.17-.04-3.167-.073-6.337-.1-9.51l2 1 5.2 2.69 30.29 5.15 31.12 5.3.94 32 .47 15.87 11.47 4.67 9 3.64 61.1 24.86Z"/>
  <path fill="#A76962" d="M210.307 220.141a60.066 60.066 0 0 1-30.07-2.35c-21.55-7.25-36.11-24.71-37.48-42.71l5.2 2.69 30.29 5.15 31.12 5.3.94 31.92Z"/>
  <circle cx="111.777" cy="142.011" r="17" fill="#E18477"/>
  <circle cx="117.777" cy="140.011" r="17" fill="#A76962"/>
  <path fill="#E18477" d="M234.687 115.221c12.46 43.15-11.79 93.25-30.26 95.31-44.64 5-76.34-17.79-88.8-60.94-12.46-43.15 4.1-85.81 37-95.3 32.9-9.49 69.61 17.79 82.06 60.93Z"/>
  <path stroke="#00214E" d="M205.807 109.951a31.212 31.212 0 0 1 22.88-2.16m-78 5.86a36.68 36.68 0 0 1 31.23-1"/>
  <path fill="#F2D4CF" d="M292.367 269.191c-66.848 51.471-160.089 51.06-226.48-1l48.66-22.81a46.842 46.842 0 0 0 6.65-3.82c.64-.44 1.28-.9 1.89-1.38a46.357 46.357 0 0 0 12.78-15.1 44.697 44.697 0 0 0 4.64-14.48 28.616 28.616 0 0 0 2.22 1.94 95.112 95.112 0 0 0 19.82 11.26 98.757 98.757 0 0 0 10.46 3.69 93.529 93.529 0 0 0 33 3.49c1.54-.12 3.09-.27 4.63-.38l.15 5.08v.33l12.1 4.92 69.48 28.26Z"/>
  <path stroke="#00214E" d="M164.347 140.171a10.339 10.339 0 0 0 11-10m32.87-2.18a8.997 8.997 0 0 0 3.3 6.77 26.782 26.782 0 0 0 6.67 3.95m-60.89 31.54a25.112 25.112 0 0 1 4.57-5.65 24.63 24.63 0 0 1 13.21-6.25m7.94-67.58h23.67m-29.45 7.82h29.45"/>
  <path fill="#fff" d="M168.367 169.011a1.858 1.858 0 0 1 2.68-.5c2.08 1.46 5.88 4.56 11.28 5.63 7.36 1.47 13.74-1.48 15.27.42.86 1.07-.19 2.38-2.2 4.05a19.742 19.742 0 0 1-14.86 3.69c-7.08-1.33-12.4-9.53-12.4-12.44 0-.299.079-.592.23-.85Z"/>
  <path fill="url(#b)" d="M198.687 52.171c-3.95-3.74-10.92-4.88-16-5.62-22.39-3.26-43.14 5.34-59.71 20.13-8 7.11-15.1 15.48-19 25.44-4.16 10.77-6.3 33.38 10.22 32.47 7.24-.39 14.1-3.55 20.47-6.76 17.86-9 34.85-20.41 48.32-35.32a129.542 129.542 0 0 0 9.38-11.88c3.68-5.16 13.1-11.74 6.38-18.33a1.559 1.559 0 0 1-.06-.13Z"/>
  <path stroke="#00214E" d="M198.947 122.401c.28 3.884.95 7.73 2 11.48 1 3.31 2.52 5.37 4.52 8.22a17.46 17.46 0 0 1 1.79 3c2.65 5.93-.86 12.52-7.55 12.52h-4.12m-14.63-7.67a3.4 3.4 0 0 0 2.12 6.38"/>
  <path fill="#00214E" d="M165.577 122.671c6.1-.07 6.28 9.25.18 9.42h-.27c-6.11.06-6.29-9.26-.19-9.43h.28v.01Zm50.23-1.59c5.67-.06 5.84 8.59.17 8.75h-.29c-5.66.06-5.83-8.59-.17-8.74h.25l.04-.01Z"/>
  <defs>
    <linearGradient id="a" x1="44.997" x2="294.717" y1="273.323" y2="273.323" gradientUnits="userSpaceOnUse">
      <stop stop-color="#16243F"/>
      <stop offset="1" stop-color="#6878B1"/>
    </linearGradient>
    <linearGradient id="b" x1="195.25" x2="272.696" y1="158.872" y2="17.017" gradientUnits="userSpaceOnUse">
      <stop stop-color="#16243F"/>
      <stop offset=".1" stop-color="#263454"/>
      <stop offset="1" stop-color="#6878B1"/>
    </linearGradient>
  </defs>
</svg>
