<svg xmlns="http://www.w3.org/2000/svg" width="340" height="340" fill="none" viewBox="0 0 340 340">
  <path fill="url(#a)" d="M206.71 244.062a132.167 132.167 0 0 1-18.6 18c-12 9.52-21 8.43-34.94 7.16-16.25-1.48-32.38-4.17-48.58-6.17-2.06-.25-4.26-.58-5.78-2.05-1.32-1.28-1.86-3.2-2.34-5a545.917 545.917 0 0 1-17.2-111.47c-1.78-36.06 16-71.35 49.3-84.59 34.64-13.74 79.73-4.6 100.27 29.79 28.81 48.27 12.9 113.31-22.13 154.33Z"/>
  <path fill="#F2A196" d="M283.48 267.332c-66.848 51.471-160.089 51.06-226.48-1l48.66-22.81a47.625 47.625 0 0 0 4.35-2.34l1.12-.7c.4-.25.79-.51 1.18-.78a46.543 46.543 0 0 0 14.67-16.47c4-7.55 5.32-15.89 5.38-24.39 0-5.72-.31-11.44-.37-17.17-.04-3.167-.073-6.337-.1-9.51l2 1 5.2 2.69 30.29 5.15 31.12 5.3.94 32 .47 15.87 11.47 4.67 9 3.64 61.1 24.85Z"/>
  <path fill="#E88870" d="M201.42 218.282a60.078 60.078 0 0 1-30.07-2.35c-21.58-7.25-36.11-24.74-37.48-42.76l5.2 2.69 30.29 5.15 31.12 5.3.94 31.97Z"/>
  <circle cx="102.89" cy="140.152" r="17" fill="#F2A196"/>
  <circle cx="108.89" cy="138.152" r="17" fill="#E88870"/>
  <path fill="#F2A196" d="M225.84 113.402c12.46 43.14-11.79 93.25-30.26 95.3-44.63 5-76.34-17.79-88.79-60.93-12.45-43.14 4.1-85.82 37-95.31 32.9-9.49 69.56 17.76 82.05 60.94Z"/>
  <path fill="#FF2609" d="M225.09 88.082c-4.72-9.87-16.18-14.25-26.65-17.43-5.66-1.71-11.47-3.36-17.38-3.18a41.001 41.001 0 0 0-15.74 4.15c-8.66 4-17.47 9.65-23.92 16.71-3.13 3.42-5.95 7-9.18 10.43a91.345 91.345 0 0 0-5.09 5.92c-1.23 1.56-2.63 4.75-4.22 5.84 29.47-20.12 66.93-29.12 102.18-22.44Z"/>
  <path stroke="#00214E" d="M185.47 118.302c-.08.35 9.79 38.85 9.79 38.85h-12.5m14.17-49.06a31.127 31.127 0 0 1 22.85-2.15m-77.94 5.85a36.752 36.752 0 0 1 31.23-1"/>
  <path fill="#00214E" d="M283.48 267.332c-66.848 51.471-160.089 51.06-226.48-1l48.66-22.81a46.787 46.787 0 0 0 6.65-3.82c.64-.44 1.28-.9 1.89-1.38a46.346 46.346 0 0 0 12.78-15.09 44.697 44.697 0 0 0 4.64-14.48 28.616 28.616 0 0 0 2.22 1.94 95.138 95.138 0 0 0 19.82 11.26 98.757 98.757 0 0 0 10.46 3.69 93.529 93.529 0 0 0 33 3.49c1.54-.12 3.09-.27 4.63-.38l.15 5.08v.33l12.1 4.92 69.48 28.25Z"/>
  <path fill="url(#b)" fill-rule="evenodd" d="M195.47 37.142c31.63 9.49 48.63 36.84 54.63 67.31a142.53 142.53 0 0 1-2.23 63.66c-5.72 20.9-15.03 40.6-24.86 59.9l-.453.888c-6.189 12.14-11.279 22.123-24.947 27.502-24.03 9.48-53.32 4.09-72.91-12.8-34.52-29.79-50.8-91.2-44.05-135.46 7.53-49.36 67.45-85.22 114.82-71Zm-36.69 162.41c10.24 5.54 27.23 10.63 38.7 6a11.025 11.025 0 0 0 1.94-1.15 22.69 22.69 0 0 0 4.45-4c8.55-9.5 13.83-21.46 17-34a145.747 145.747 0 0 0 4-27.24c.91-15.91-3.63-30.87-11.51-44.65-6.91-12.08-21.62-24.12-36.3-20.39-9.06 2.31-16.58 8.16-23 14.77-3.622 3.725-6.782 7.798-9.936 11.863-4.501 5.802-8.991 11.588-14.794 16.327a50.445 50.445 0 0 1-8.75 6c-.47.24-6.82 3.38-6.88 3.06a100.698 100.698 0 0 0 2.52 10.14c6.62 23.12 17.54 47.04 38.32 60.73 1.38.913 2.793 1.76 4.24 2.54Z" clip-rule="evenodd"/>
  <path stroke="#00214E" d="M155.47 138.322a10.357 10.357 0 0 0 11-10m32.86-2.19a9.07 9.07 0 0 0 3.3 6.78 27.184 27.184 0 0 0 6.68 4m-60.9 31.49a25.365 25.365 0 0 1 4.57-5.64 24.678 24.678 0 0 1 13.22-6.26m7.93-64.84h23.67m-29.44 7.82h29.44"/>
  <path fill="#fff" d="M159.48 167.152a1.858 1.858 0 0 1 2.68-.5c2.08 1.46 5.88 4.56 11.28 5.64 7.36 1.46 13.75-1.48 15.27.42.86 1.06-.19 2.37-2.2 4a19.693 19.693 0 0 1-14.86 3.69c-7.08-1.32-12.4-9.53-12.4-12.43.007-.288.086-.57.23-.82Z"/>
  <path fill="#00214E" d="M158.57 125.112c6.1-.07 6.28 9.25.18 9.42h-.27c-6.11.07-6.29-9.26-.19-9.43h.28v.01Zm50.27-1.64c5.67-.06 5.84 8.59.17 8.75h-.25c-5.66.07-5.83-8.59-.17-8.74h.25v-.01Z"/>
  <defs>
    <linearGradient id="a" x1="79.15" x2="243.76" y1="270.054" y2="270.054" gradientUnits="userSpaceOnUse">
      <stop stop-color="#16243F"/>
      <stop offset="1" stop-color="#6878B1"/>
    </linearGradient>
    <linearGradient id="b" x1="79.15" x2="252.67" y1="261.025" y2="261.025" gradientUnits="userSpaceOnUse">
      <stop stop-color="#16243F"/>
      <stop offset="1" stop-color="#6878B1"/>
    </linearGradient>
  </defs>
</svg>
