<svg xmlns="http://www.w3.org/2000/svg" width="340" height="340" fill="none" viewBox="0 0 340 340">
  <path fill="url(#a)" d="M219.59 185.561a436.77 436.77 0 0 1-161.22-9 438.622 438.622 0 0 1 34.38-98.9c13.25-27.15 40.88-41.07 70.68-43.43 24.51-1.94 47.64 8.38 60.24 29.37 9.74 16.21 15.8 37.92 19.77 56.35 4.24 19.68 8.083 39.433 11.53 59.26-.05-.3-31.95 5.88-35.38 6.35Z"/>
  <path fill="#E18477" d="M283.48 268.391c-66.848 51.471-160.089 51.06-226.48-1l48.69-22.82a47.625 47.625 0 0 0 4.35-2.34l1.12-.7c.4-.25.79-.51 1.18-.78a46.543 46.543 0 0 0 14.67-16.47c4-7.55 5.32-15.89 5.38-24.39 0-5.72-.31-11.44-.37-17.17-.04-3.167-.073-6.337-.1-9.51l2 1 5.2 2.69 30.24 5.19 31.12 5.3.94 32 .47 15.87 11.47 4.67 9 3.64 61.12 24.82Z"/>
  <path fill="#A76962" d="M201.42 219.341a60.079 60.079 0 0 1-30.07-2.35c-21.58-7.25-36.11-24.74-37.48-42.76l5.2 2.69 30.29 5.17 31.12 5.3.94 31.95Z"/>
  <circle cx="102.89" cy="141.211" r="17" fill="#E18477"/>
  <circle cx="108.89" cy="139.211" r="17" fill="#A76962"/>
  <path fill="#E18477" d="M225.8 114.431c12.45 43.14-11.79 93.25-30.26 95.3-44.64 5-76.34-17.79-88.8-60.93-12.46-43.14 4.1-85.82 37-95.31 32.9-9.49 69.61 17.79 82.06 60.94Z"/>
  <path stroke="#00214E" d="M163.58 168.741a29.77 29.77 0 0 0 18.92 8.94"/>
  <path fill="url(#b)" d="M189.16 58.571a32.01 32.01 0 0 1-1.68 5.56c-7.56 18.54-19.21 34.53-36.15 45.6-20 13.1-39.63 12.47-62 15.63 1.29-8.18.84-14.5 1.12-23.07.44-13.42 6.81-20 15.3-29.79 6.32-7.28 14.88-18.4 24.78-20.81l58.07-13.84c.6 9.99 2.53 11.24.56 20.72Z"/>
  <path stroke="#00214E" d="M196.92 109.151a31.137 31.137 0 0 1 22.85-2.15m-77.96 5.85a36.76 36.76 0 0 1 31.23-1"/>
  <path fill="#845161" d="M283.48 268.391c-66.848 51.471-160.089 51.06-226.48-1l48.69-22.82a46.787 46.787 0 0 0 6.65-3.82c.64-.44 1.28-.9 1.89-1.38a46.346 46.346 0 0 0 12.78-15.09 44.697 44.697 0 0 0 4.64-14.48 28.616 28.616 0 0 0 2.22 1.94 95.138 95.138 0 0 0 19.82 11.26 98.981 98.981 0 0 0 10.46 3.69 93.529 93.529 0 0 0 33 3.49c1.54-.12 3.09-.27 4.63-.38l.15 5.08v.33l12.06 4.88 69.49 28.3Z"/>
  <path stroke="#00214E" d="M148.41 169.451a25.293 25.293 0 0 1 4.56-5.64 24.618 24.618 0 0 1 13.22-6.25m7.94-67.59h23.66m-29.44 7.82h29.44m-41.45 43.3c2.797.18 5.547-.782 7.62-2.668a10.337 10.337 0 0 0 3.38-7.332m32.87-2.2a9.003 9.003 0 0 0 3.3 6.78 26.94 26.94 0 0 0 6.67 3.95"/>
  <path fill="#00214E" d="M197.49 150.901c.478.741.912 1.509 1.3 2.3.454.744.76 1.57.9 2.43a2.062 2.062 0 0 1-2.41 2.12c-.62-.13-.89.83-.26 1a3.1 3.1 0 0 0 3.64-2.45 5.2 5.2 0 0 0-.7-3 27.7 27.7 0 0 0-1.6-2.93c-.34-.54-1.21 0-.87.51v.02Zm-16.71 1.19c-.85 1.36-1.86 3.06-1.37 4.73.39 1.36 1.84 2.62 3.31 2.09.6-.22.34-1.19-.27-1-1 .38-2-.68-2.14-1.64-.21-1.32.67-2.65 1.34-3.71.34-.55-.53-1-.87-.5v.03Z"/>
  <ellipse cx="158.631" cy="127.813" fill="#00214E" rx="3.278" ry="7.959" transform="rotate(-85.996 158.631 127.813)"/>
  <ellipse cx="210.35" cy="127.343" fill="#00214E" rx="7.94" ry="3.27" transform="rotate(-8.86 210.35 127.343)"/>
  <defs>
    <linearGradient id="a" x1="58.37" x2="254.97" y1="189.269" y2="189.269" gradientUnits="userSpaceOnUse">
      <stop stop-color="#315676"/>
      <stop offset="1" stop-color="#E1B9E0"/>
    </linearGradient>
    <linearGradient id="b" x1="140.755" x2="280.257" y1="197.13" y2="62.284" gradientUnits="userSpaceOnUse">
      <stop stop-color="#315676"/>
      <stop offset=".21" stop-color="#516889"/>
      <stop offset=".67" stop-color="#A296BA"/>
      <stop offset="1" stop-color="#E1B9E0"/>
    </linearGradient>
  </defs>
</svg>
