<svg xmlns="http://www.w3.org/2000/svg" width="340" height="340" fill="none" viewBox="0 0 340 340">
  <path fill="url(#a)" d="M175.6 274.696c-16.55 1.06-32.6.47-49 .19-18.65 0-40.88 4.86-54.85-11.39-9.66-11.24-8.5-28.29-3.52-42.25 3.51-9.83 8.72-19.88 6.78-30.14-1.47-7.77-6.85-14.22-9.24-21.75-2.33-7.34-1.67-16.32 2.31-23 3.63-6.12 9.47-9.29 10.68-17.05.66-4.26-.52-8.55-1.21-12.81-5.65-34.91 22.61-59.35 50.46-74 17.08-9 37.59-13.12 56-5.54a13.291 13.291 0 0 0 4.32 1.29 21.776 21.776 0 0 0 4.08-.56c22.9-3.38 52.56 37.46 46.24 58.17-1.92 6.27-4.94 12.77-3.24 19.11 2.51 9.34 14.29 14.3 15.75 23.86 1.58 10.31-9.95 19.54-7.68 29.73 1.34 6 7.05 9.92 10.67 14.93a24.165 24.165 0 0 1 4.47 13c.14 2.886-.25 5.774-1.15 8.52-2.7 8.15-9.86 15.56-8.07 24 2.12 10 15 13.54 14.33 24.92-.37 6.08-5.7 10.79-11.33 13.1a76.654 76.654 0 0 1-12.48 3.54c-3.14.7-5.91.07-9.05.39-8.74.89-17.36 2.26-26.16 2.76-9.64.48-19.41.36-29.11.98Z"/>
  <path fill="#E18477" d="M283.48 268.996c-66.848 51.471-160.089 51.059-226.48-1l48.66-22.81a48.12 48.12 0 0 0 4.35-2.34l1.12-.7c.4-.25.79-.51 1.18-.78a46.543 46.543 0 0 0 14.67-16.47c4-7.55 5.32-15.89 5.38-24.39 0-5.72-.31-11.44-.37-17.17-.04-3.174-.073-6.344-.1-9.51l2 1 5.2 2.69 30.29 5.15 31.12 5.3.94 32 .47 15.87 11.47 4.67 9 3.64 61.1 24.85Z"/>
  <path fill="#A76962" d="M201.39 211.686c-2.72 1.68-5.29 2.47-7.54 2.23-14.79-1.59-43.64-13.18-61.8-34.63 0-1.047-.02-2.097-.06-3.15-.04-3.167-.073-6.337-.1-9.51l2 1 5.2 2.69 30.29 5.15 31.12 5.3.89 30.92Z"/>
  <circle cx="106.89" cy="141.576" r="17" fill="#E18477"/>
  <circle cx="112.89" cy="139.576" r="17" fill="#A76962"/>
  <path fill="#E18477" d="M222.43 116.106c11.74 40.69-13.2 89.89-28.54 89.89-21 0-72-16.77-83.73-57.46-11.73-40.69 3.91-80.94 34.91-89.89 31-8.95 65.61 16.78 77.36 57.46Z"/>
  <path fill="#00214E" d="M156.99 123.176c6.1 0 6.1 9.38 0 9.42h-.28c-6.1 0-6.1-9.37 0-9.42h.28Zm50.08-1.39c5.67 0 5.67 8.7 0 8.75h-.25c-5.66 0-5.66-8.71 0-8.75h.25Z"/>
  <path fill="url(#b)" d="M185.15 66.796c-.12.27-.24.55-.37.83a66.99 66.99 0 0 1-11.44 16.91c-9.25 10.2-20.84 18.16-32.86 24.77a192.564 192.564 0 0 1-21.48 10.54c-10.63 4.23-19.64 6.34-19.93 6.64-.93-11.89-7.43-36.83 24.82-61.25 26-19.67 63.69-18.13 63.69-18.13-.12 7.41.49 12.89-2.43 19.69Z"/>
  <path stroke="#00214E" d="M185.47 117.996c-.08.35 8.36 36.41 8.36 36.41h-12.5m15.6-46.61a31.178 31.178 0 0 1 22.85-2.16m-77.96 5.86a36.677 36.677 0 0 1 31.23-1"/>
  <path fill="url(#c)" d="M283.48 268.996c-66.848 51.471-160.089 51.059-226.48-1l48.66-22.81a46.883 46.883 0 0 0 6.65-3.82c.64-.44 1.28-.9 1.89-1.38a46.346 46.346 0 0 0 12.78-15.09 44.697 44.697 0 0 0 4.64-14.48 28.616 28.616 0 0 0 2.22 1.94 95.183 95.183 0 0 0 19.82 11.26 99.207 99.207 0 0 0 10.46 3.69 93.529 93.529 0 0 0 33 3.49c1.54-.12 3.09-.27 4.63-.38l.15 5.08v.33l12.1 4.92 69.48 28.25Z"/>
  <rect width="28.06" height="9.73" x="114.956" y="68.636" fill="#FF2609" rx="4.86" transform="rotate(20.94 114.956 68.636)"/>
  <rect width="28.06" height="9.73" x="108.302" y="83.47" fill="#F2D4CF" rx="4.86" transform="rotate(20.94 108.302 83.47)"/>
  <path fill="#fff" d="M159.48 161.646a1.848 1.848 0 0 1 2.68-.51c2.08 1.47 5.88 4.56 11.28 5.64 7.36 1.46 13.75-1.48 15.27.42.86 1.07-.19 2.37-2.2 4.05a19.744 19.744 0 0 1-14.86 3.68c-7.08-1.32-12.4-9.53-12.4-12.43a1.659 1.659 0 0 1 .23-.85Z"/>
  <defs>
    <linearGradient id="a" x1="160.452" x2="351.768" y1="395.248" y2="224.705" gradientUnits="userSpaceOnUse">
      <stop stop-color="#16243F"/>
      <stop offset="1" stop-color="#6878B1"/>
    </linearGradient>
    <linearGradient id="b" x1="129.338" x2="202.098" y1="159.865" y2="82.744" gradientUnits="userSpaceOnUse">
      <stop stop-color="#16243F"/>
      <stop offset="1" stop-color="#6878B1"/>
    </linearGradient>
    <linearGradient id="c" x1="57" x2="283.48" y1="307.349" y2="307.349" gradientUnits="userSpaceOnUse">
      <stop stop-color="#315676"/>
      <stop offset="1" stop-color="#E1B9E0"/>
    </linearGradient>
  </defs>
</svg>
