<svg xmlns="http://www.w3.org/2000/svg" width="340" height="340" fill="none" viewBox="0 0 340 340">
  <path fill="#DE8276" d="M283.48 269.019c-66.848 51.471-160.089 51.06-226.48-1l48.66-22.81a46.787 46.787 0 0 0 6.65-3.82c.64-.44 1.28-.9 1.89-1.38a46.346 46.346 0 0 0 12.78-15.09 44.697 44.697 0 0 0 4.64-14.48c.488-3.281.736-6.593.74-9.91 0-5.72-.31-11.44-.37-17.17-.04-3.173-.073-6.343-.1-9.51l2 1 5.2 2.69 2.41.41 27.88 4.74 31.12 5.3.94 32 .31 10.46.15 5.08v.33l12.1 4.92 69.48 28.24Z"/>
  <path fill="#A76962" d="M201.7 233.869a15.993 15.993 0 0 1-10.07-1.56l-59.67-48.78c-.07-2.26-.13.11-.16-2.15-.04-3.173-.073-6.343-.1-9.51l2 1 5.2 2.69 2.41.41 27.88 4.74 31.12 5.3.94 32 .31 10.46.15 5.08v.33l-.01-.01Z"/>
  <path fill="url(#a)" d="M232.5 146.919a35.92 35.92 0 0 1-5.09 4.41c-10.4 7.53-24.28 10-36.14 14.06-5 1.71-59.22 17.12-59.22 20.47 0-.73-5.31-6-12-12.4-23.074-22.1-30.767-55.82-19.56-85.74 10.91-28.67 45.69-48.43 74.82-53 13.87-2.17 30.33-3.38 43.14 3.27 6.55 3.41 12 8.38 17 13.89 1.56 1.74 3.073 3.517 4.54 5.33.63.76 1.25 1.52 1.86 2.29 22.77 28.6 14.7 62.15-9.35 87.42Z"/>
  <path fill="url(#b)" d="M232.5 146.919a35.92 35.92 0 0 1-5.09 4.41 22.421 22.421 0 0 1-1.15-2.3c-2.64-6-4-12.51-5-19a276.03 276.03 0 0 1-3.19-28.52c-.91-15.34-7.46-22.95 5.57-34.91a42.997 42.997 0 0 1 16.35-9.38c.63.76 1.25 1.52 1.86 2.29 22.77 28.59 14.7 62.14-9.35 87.41Z"/>
  <circle cx="122.05" cy="145.869" r="17" fill="#E18477"/>
  <circle cx="127.45" cy="145.869" r="15.22" fill="#A76962"/>
  <path fill="#DE8276" d="M128.72 129.749c.83 10.86.8 24.12 1.09 28 .753 9.727 1.5 19.45 2.24 29.17l66.44 38.81c9.536 3.564 20.219-.699 24.68-9.85 9.56-19.58 24.9-50.5 22.88-62-3-17-11-23-11-23l3.33-19.94c3.37-20.27-3.58-39.46-27.26-41.68-5-.46-10.57.49-13.54 4.48-8 10.76-3.39 24-15.4 34-14.58 12.03-47.11 17.28-54.73 7.57 0 0 .7 6.87 1.27 14.44Z"/>
  <path stroke="#00214E" d="M178.58 172.169a29.782 29.782 0 0 0 18.54 9.69m5.08-56.9c-.08.35 13.36 36.13 13.36 36.13l-17.94.87m-37.9-43.94a80.58 80.58 0 0 1 28.13-.8m30.92.93a54.993 54.993 0 0 1 17.45-1.21"/>
  <path fill="#00214E" d="M283.48 269.019c-66.848 51.471-160.089 51.06-226.48-1l48.66-22.81a46.787 46.787 0 0 0 6.65-3.82c.64-.44 1.28-.9 1.89-1.38a46.346 46.346 0 0 0 12.78-15.09 44.697 44.697 0 0 0 4.64-14.48 28.616 28.616 0 0 0 2.22 1.94 95.138 95.138 0 0 0 19.82 11.26 98.757 98.757 0 0 0 10.46 3.69 93.529 93.529 0 0 0 33 3.49c1.54-.12 3.09-.27 4.63-.38l.15 5.08v.33l12.1 4.92 69.48 28.25Zm-110.13-139.76c6.1 0 6.1 9.38 0 9.43h-.28c-6.11 0-6.11-9.38 0-9.43h.28Zm50.13-1.39c5.66.05 5.66 8.7 0 8.75h-.26c-5.66 0-5.66-8.7 0-8.75h.26Z"/>
  <defs>
    <linearGradient id="a" x1="95.35" x2="255.33" y1="185.898" y2="185.898" gradientUnits="userSpaceOnUse">
      <stop stop-color="#16243F"/>
      <stop offset="1" stop-color="#6878B1"/>
    </linearGradient>
    <linearGradient id="b" x1="189.57" x2="256.647" y1="119.085" y2="138.115" gradientUnits="userSpaceOnUse">
      <stop stop-color="#16243F"/>
      <stop offset="1" stop-color="#6878B1"/>
    </linearGradient>
  </defs>
</svg>
