<svg xmlns="http://www.w3.org/2000/svg" width="340" height="340" fill="none" viewBox="0 0 340 340">
  <path fill="#F2A196" d="M283.48 278.383c-66.848 51.471-160.089 51.06-226.48-1l48.66-22.81a46.787 46.787 0 0 0 6.65-3.82c.64-.44 1.28-.9 1.89-1.38a46.346 46.346 0 0 0 12.78-15.09 44.697 44.697 0 0 0 4.64-14.48c.488-3.281.736-6.593.74-9.91 0-3.46-.09-6.92-.21-10.38-.07-2.26-.13-4.53-.16-6.79-.04-3.167-.073-6.337-.1-9.51l2 1 5.2 2.69 2.41.41 27.88 4.74 31.12 5.3.94 32 .31 10.46.15 5.08v.31l1 .42 11.07 4.5 69.51 28.26Z"/>
  <path fill="#E88870" d="M201.89 245.203a16 16 0 0 1-10.07-1.56l-59.67-48.77c-.07-2.26-.13.1-.16-2.16-.04-3.167-.073-6.337-.1-9.51l2 1 5.2 2.69 2.41.41 27.88 4.74 31.12 5.3.94 32 .31 10.46.15 5.08v.32h-.01Z"/>
  <path fill="#F2D4CF" d="M283.48 278.383c-66.848 51.471-160.089 51.06-226.48-1l48.66-22.81a46.787 46.787 0 0 0 6.65-3.82c.64-.44 1.28-.9 1.89-1.38 23.55 16.76 55.69 27.33 83.49 14.82 6.62-3 12.7-7.84 16.3-14.06l69.49 28.25Z"/>
  <path fill="url(#a)" d="M203.55 253.503c-24.51.41-48.32-2.82-70.76-11.63-2.37-.94-4.71-1.95-7-3a1 1 0 0 0-1.36 1.21 10.797 10.797 0 0 1-.28 8 30.915 30.915 0 0 1-4 9.58 45.135 45.135 0 0 1-14.48 14.87 1 1 0 0 1-1.5-.68c-1.29-7.14-2.4-14.48-.71-21.51 1.39-5.8 5.33-11.68 10.68-14.51-.45.08-.91.08-1.36 0-.51 0-1 0-1.51-.07a41.625 41.625 0 0 1-3.15-.3 48.141 48.141 0 0 1-6-1.15 43.225 43.225 0 0 1-12-5.14c-.56-.35-3.56-2.72-5.31-4.11a1 1 0 0 1 .21-1.7c3.47-1.52 12.47-5 20.67-3.87a33.45 33.45 0 0 1 11 3.41l.1.06c1.51 1 3 1.93 4.45 2.84a1 1 0 0 0 1.51-.63 8.34 8.34 0 0 1 .46-1.36 9.58 9.58 0 0 1 11.74-5.11c30.27 9.66 45.73 14 72 11.1 1.641-.212 3.31-.02 4.86.56 8.53 3.44 7.4 16.79-.53 21.26a18.092 18.092 0 0 1-7.73 1.88Z"/>
  <path fill="#845161" d="M265.58 78.103c-.09.59-.2 1.17-.33 1.75a32.08 32.08 0 0 1-3.31 8.49l-.08.14c-.57 1-1.18 2-1.84 3a74.377 74.377 0 0 1-5.72 7.35l-1.23 1.37c-.83.93-1.67 1.84-2.51 2.74 4.45-1 8.76 3.15 9.55 7.63.79 4.48-1 9-3.21 13-3.87 7.08-9.45 11.79-14.36 17.94-3.68 4.58-5.72 10-9.73 14.38l-.3.33c-10.59 11.12-27.31 13.72-41.23 18.47-5 1.72-59.22 17.12-59.22 20.48 0-.73-5.31-6-12-12.41-24-22.79-31.89-58-17.61-88.2 15.35-32.5 50.21-55.69 83.41-66.83 10.38-3.48 22.16-5.82 32-1s14.74 19.77 6.58 27.07a26.16 26.16 0 0 1 17.93-5.21 24.461 24.461 0 0 1 15.72 7.07 27.002 27.002 0 0 1 6.95 12.08 24.946 24.946 0 0 1 .54 10.36Z"/>
  <path fill="#69303A" d="M265.58 78.103c-.09.59-.2 1.17-.33 1.75-.09.17-.18.35-.27.55-1.13 2.58-1.65 5.36-3 7.94l-.08.14c-.57 1-1.18 2-1.84 3a67.041 67.041 0 0 1-5.72 7.35l-1.27 1.37c-.83.93-1.67 1.84-2.51 2.74 4.45-1 8.76 3.15 9.55 7.63.79 4.48-1 9-3.21 13-3.87 7.08-9.45 11.79-14.36 17.94-3.68 4.58-5.72 10-9.73 14.38a37.697 37.697 0 0 1-8.54-19.47c-1.64-13.26-.64-27.71-1.09-41.13-.28-8.44-3-10 2.06-16.83a74.291 74.291 0 0 1 14-13.29c4.08-2.69 9.33-3.11 14.2-2.42 4.244.58 8.248 2.31 11.58 5a24.95 24.95 0 0 1 .56 10.35Z"/>
  <circle cx="122.05" cy="155.203" r="17" fill="#F2A196"/>
  <circle cx="127.44" cy="155.203" r="15.22" fill="#E88870"/>
  <path fill="#F2A196" d="m127.67 139.203 4.4 57 66.44 38.82c9.522 3.552 20.186-.695 24.66-9.82 9.56-19.58 24.9-50.5 22.88-62-3-17-11-23-11-23 1.113-6.667 2.22-13.313 3.32-19.94 1.26-7.51 2.87-15.35 1-22.9-2.13-8.66-8.67-12.35-14.05-18.82-14.16 18.24-37.44 28.55-57.77 39-10.48 5.44-39.88 21.66-39.88 21.66Z"/>
  <path fill="#00214E" d="M176.79 137.003c6.1 0 6.1 9.38 0 9.43h-.28c-6.1 0-6.1-9.38 0-9.43h.28Zm50.12-1.39c5.67.05 5.67 8.7 0 8.75h-.25c-5.66 0-5.66-8.7 0-8.75h.25Z"/>
  <path stroke="#00214E" d="M202.2 134.293c-.08.35 13.36 36.13 13.36 36.13l-17.94.87m-37.9-43.92a80.556 80.556 0 0 1 28.13-.79m30.92.9a55.345 55.345 0 0 1 17.45-1.21"/>
  <path fill="#fff" d="M179.24 181.303a1.852 1.852 0 0 1 2.68-.5c2.08 1.46 5.88 4.56 11.28 5.63 7.36 1.47 13.74-1.48 15.27.42.86 1.07-.19 2.37-2.2 4a19.742 19.742 0 0 1-14.86 3.69c-7.08-1.33-12.4-9.53-12.4-12.44.007-.282.086-.557.23-.8Z"/>
  <defs>
    <linearGradient id="a" x1="107.161" x2="191.179" y1="281.414" y2="192.595" gradientUnits="userSpaceOnUse">
      <stop stop-color="#81008C"/>
      <stop offset=".28" stop-color="#004AFF"/>
      <stop offset=".45" stop-color="#00830D"/>
      <stop offset=".64" stop-color="#FFED00"/>
      <stop offset=".83" stop-color="#FF8500"/>
      <stop offset="1" stop-color="#FF2609"/>
    </linearGradient>
  </defs>
</svg>
