<svg xmlns="http://www.w3.org/2000/svg" width="340" height="340" fill="none" viewBox="0 0 340 340">
  <path fill="#F2A196" d="M283.48 278.383c-66.848 51.471-160.089 51.06-226.48-1l48.66-22.81a46.787 46.787 0 0 0 6.65-3.82c.64-.44 1.28-.9 1.89-1.38a46.346 46.346 0 0 0 12.78-15.09 44.697 44.697 0 0 0 4.64-14.48c.488-3.281.736-6.593.74-9.91 0-3.46-.09-6.92-.21-10.38-.07-2.26-.13-4.53-.16-6.79-.04-3.167-.073-6.337-.1-9.51l2 1 5.2 2.69 2.41.41 27.88 4.74 31.12 5.3.94 32 .31 10.46.15 5.08v.31l1 .42 11.07 4.5 69.51 28.26Z"/>
  <path fill="#E88870" d="M201.89 245.203c-3.7.43-10-1-13.48-2.89-13-7.18-19.49-13-26.38-18.08-8.2-6.06-29.8-25.5-29.8-25.5-.07-2.26-.21-3.76-.24-6-.04-3.167-.073-6.337-.1-9.51l2 1 5.2 2.69 2.41.41 27.88 4.74 31.12 5.3.94 32 .31 10.46.15 5.08v.3h-.01Z"/>
  <path fill="#FF2609" d="M283.48 278.383c-66.848 51.471-160.089 51.06-226.48-1l48.66-22.81a46.787 46.787 0 0 0 6.65-3.82c.64-.44 1.28-.9 1.89-1.38 23.55 16.76 55.69 27.33 83.49 14.82 6.62-3 12.7-7.84 16.3-14.06l69.49 28.25Z"/>
  <path fill="#845161" d="M265.58 78.103c-.09.59-.2 1.17-.33 1.75a32.08 32.08 0 0 1-3.31 8.49l-.08.14c-.57 1-1.18 2-1.84 3a74.377 74.377 0 0 1-5.72 7.35l-1.23 1.37c-.83.93-1.67 1.84-2.51 2.74 4.45-1 8.76 3.15 9.55 7.63.79 4.48-1 9-3.21 13-3.87 7.08-9.45 11.79-14.36 17.94-3.68 4.58-5.72 10-9.73 14.38l-.3.33c-10.59 11.12-27.31 13.72-41.23 18.47-5 1.72-59.22 17.12-59.22 20.48 0-.73-5.31-6-12-12.41-24-22.79-31.89-58-17.61-88.2 15.35-32.5 50.21-55.69 83.41-66.83 10.38-3.48 22.16-5.82 32-1s14.74 19.77 6.58 27.07a26.16 26.16 0 0 1 17.93-5.21 24.461 24.461 0 0 1 15.72 7.07 27.002 27.002 0 0 1 6.95 12.08 24.946 24.946 0 0 1 .54 10.36Z"/>
  <path fill="#69303A" d="M265.58 78.103c-.09.59-.2 1.17-.33 1.75-.09.17-.18.35-.27.55-1.13 2.58-1.65 5.36-3 7.94l-.08.14c-.57 1-1.18 2-1.84 3a67.041 67.041 0 0 1-5.72 7.35l-1.27 1.37c-.83.93-1.67 1.84-2.51 2.74 4.45-1 8.76 3.15 9.55 7.63.79 4.48-1 9-3.21 13-3.87 7.08-9.45 11.79-14.36 17.94-3.68 4.58-5.72 10-9.73 14.38a37.697 37.697 0 0 1-8.54-19.47c-1.64-13.26-.64-27.71-1.09-41.13-.28-8.44-3-10 2.06-16.83a74.291 74.291 0 0 1 14-13.29c4.08-2.69 9.33-3.11 14.2-2.42 4.244.58 8.248 2.31 11.58 5a24.95 24.95 0 0 1 .56 10.35Z"/>
  <circle cx="122.05" cy="155.203" r="17" fill="#F2A196"/>
  <circle cx="127.44" cy="155.203" r="15.22" fill="#E88870"/>
  <path fill="#F2A196" d="m127.67 139.203 4.38 55 66.44 40.88c9.543 3.555 20.226-.722 24.68-9.88a267.553 267.553 0 0 0 13.14-31.88c2.64-7.84 5.22-15.89 5.47-24.23s-2.12-17-5-24.7c-.3-.81-1.9-3.3-1.76-4.15 1.113-6.667 2.22-13.313 3.32-19.94 1.26-7.51 2.87-15.35 1-22.9-2.13-8.66-8.67-12.35-14.05-18.82-14.16 18.24-37.44 28.55-57.77 39-10.45 5.4-39.85 21.62-39.85 21.62Z"/>
  <path fill="#845161" d="M238.14 187.703c-4.31 16.92-9.08 34.35-12.63 40.61-2.66 4.67-6.37 5.57-12.24 7a51.47 51.47 0 0 1-42.29-8.94l-39.09-31.48c-.6-5.89-1-6.79-1.29-12.71-.14-2.68-1-5.36-.36-8a6.903 6.903 0 0 0 1.7 3.73c4.73 6.42 10.25 13.67 18.11 16.31 8.2 2.75 17.53 3.18 25.45-.7 6.89-3.38 13.64-7.79 20.83-10.57a35.04 35.04 0 0 1 15.11-2.61c7.34.5 10.48 3.81 15.85 8.18 1.76 1.44 3.73 2.94 6 3 2.56-.05 2.69-2.17 4.85-3.82Z"/>
  <path fill="#00214E" d="M176.79 137.003c6.1 0 6.1 9.38 0 9.43h-.28c-6.1 0-6.1-9.38 0-9.43h.28Zm50.12-1.39c5.67.05 5.67 8.7 0 8.75h-.25c-5.66 0-5.66-8.7 0-8.75h.25Z"/>
  <path stroke="#00214E" d="M202.2 134.293c-.08.35 13.36 36.13 13.36 36.13l-17.94.87m-37.9-43.92a80.556 80.556 0 0 1 28.13-.79m30.92.9a55.345 55.345 0 0 1 17.45-1.21"/>
  <path fill="#F2A196" d="M196.59 190.203a28.119 28.119 0 0 0 17.4.32c.61-.19.35-1.16-.26-1a27.167 27.167 0 0 1-16.87-.31c-.61-.21-.87.75-.27 1v-.01Z"/>
</svg>
