<svg xmlns="http://www.w3.org/2000/svg" width="340" height="340" fill="none" viewBox="0 0 340 340">
  <path fill="#00214E" d="M244 122.87c-2.42 7.2-2.81 17-7.06 23.38-9.35 14-27.49 16.4-42.25 21.44-.975.183-1.922.489-2.82.91l-5.22 1.65c-5.02 1.58-10.02 3.18-15 4.8-6.92 2.25-16.43 3.63-21.41 9.31a109.765 109.765 0 0 0-8 10.33c-.48.71-1.07 1.49-1.92 1.56-.54 0-1-.71-1.45-1-8.88-4.78-15.41-11.34-20.88-19.66a125.998 125.998 0 0 1-19-86.17c.06-.44.12-.87.19-1.31a51.6 51.6 0 0 1 12.78-26.06A86.797 86.797 0 0 1 135.46 44a148.14 148.14 0 0 1 16.18-7.35A109.996 109.996 0 0 1 189.32 29a94.36 94.36 0 0 1 35.75 7.07c15.62 6.25 27.73 17.92 28.74 35.58 1 17.41-4.28 34.76-9.81 51.22Z"/>
  <circle cx="121.9" cy="149.86" r="17" fill="#F2A196"/>
  <circle cx="127.75" cy="148.86" r="16" fill="#E88870"/>
  <path fill="#F2A196" d="M283.48 273c-66.848 51.471-160.089 51.06-226.48-1l48.66-22.81a46.787 46.787 0 0 0 6.65-3.82l1.11-.78.78-.6a46.346 46.346 0 0 0 12.78-15.09c4-7.55 5.32-15.89 5.38-24.39 0-2.87-.06-5.74-.15-8.61-.09-2.87-.19-5.7-.22-8.56-.04-3.173-.073-6.343-.1-9.51l1.84.95.14.07 5.2 2.69 2.41.41 27.88 4.74 11.05 1.88 20.07 3.43.94 32 .39 13.3.07 2.24v.33l12.1 4.92.75.31 68.75 27.9Z"/>
  <path fill="#E88870" d="m132.21 189.68 32.86 30.82a51.661 51.661 0 0 0 36.77 12.79l-.39-13.3-.94-32-20.07-3.42c-2.74 1.24-5.48 2.48-8.22 3.56-8.2 3.23-17.47 2-25.42-1.36a36.934 36.934 0 0 1-14.87-12l.28 14.91Z"/>
  <path fill="#845161" d="M283.48 273c-66.848 51.471-160.089 51.06-226.48-1l48.66-22.81a46.787 46.787 0 0 0 6.65-3.82l1.11-.78c24.36 16.61 56.82 26.66 85 14a37.813 37.813 0 0 0 16.31-13.51L283.48 273Z"/>
  <path fill="#F2A196" d="M241.53 158.31a105.96 105.96 0 0 1-3.51 21.6c-4.31 16.92-11.45 33.65-15 39.91-2.66 4.67-6.37 5.57-12.24 7a51.47 51.47 0 0 1-42.29-8.94L132.07 191c-.51-5-1.37-10.25-2.33-15.6-2.78-15.54-6.38-32-4.82-46.54a17 17 0 0 1 5.64-10.69c8.38-7.94 24-11.54 33.74-14 14.62-3.76 29.64-6 44.05-10.43 10.61-3.3 22.06-8.32 28.42-17.88 0 0 1.1 10.81 1.35 13.28.53 5.09.52 9.51 1.07 14.53a51.995 51.995 0 0 1-1 16.45c-.83 3.73-1.81 7.45-2.51 11.21-.67 3.6.28 3.66 2.13 6.21 3.8 5.2 3.95 14.6 3.72 20.77Z"/>
  <path fill="#00214E" d="M174.63 130c6.1 0 6.1 9.38 0 9.43h-.27c-6.1 0-6.1-9.38 0-9.43h.27Zm50.13-1.4c5.66.05 5.66 8.7 0 8.75h-.25c-5.67 0-5.67-8.7 0-8.75h.25Z"/>
  <path stroke="#00214E" d="M206.47 134c-.05.2 4.79 8.56 7.31 17.59a58.002 58.002 0 0 1 1.62 14.75h-13.51"/>
  <path fill="#00214E" d="M238.07 179.91c-4.31 16.92-11.45 33.65-15 39.91-2.66 4.67-6.37 5.57-12.24 7a51.47 51.47 0 0 1-42.29-8.94L132.07 191c-.6-5.89-2.75-11.53-4-17.33-.54-2.62-1-5.36-.36-8a6.843 6.843 0 0 0 1.71 3.73c4.72 6.42 10.24 13.67 18.1 16.31 8.2 2.75 17.54 3.18 25.45-.7 6.89-3.38 13.64-7.79 20.83-10.57a35.04 35.04 0 0 1 15.11-2.61c7.34.5 10.48 3.81 15.85 8.18 1.76 1.44 3.73 2.94 6 2.95 2.6.04 5.1-1.4 7.31-3.05Z"/>
  <path stroke="#F2A196" d="M191.44 185.32a29.801 29.801 0 0 0 20.89-1.21"/>
  <path stroke="#00214E" d="M159.56 122a80.365 80.365 0 0 1 28.13-.8m30.92.93a55.704 55.704 0 0 1 17.46-1.21m-45.51 40.42a3.399 3.399 0 0 0 2.11 6.38"/>
  <path fill="#00214E" d="m128.74 175.44 1-.06.66.78 2.15 13.82-.48.18-.72-.99-2.61-13.73Z"/>
</svg>
