<svg xmlns="http://www.w3.org/2000/svg" width="340" height="340" fill="none" viewBox="0 0 340 340">
  <path fill="#DAAEA8" d="M257.3 264.241c-2-66.11-4.78-135.39-38.18-192.48-8.2-14-21.14-28.45-37.29-26.94-18.88 1.76-28.26 23.24-33.76 41.38-8.18 26.89-16.38 53.8-23.23 81.07-4.95 19.73-18.64 53.57-11.16 74 13.32 36.33 112.29 24.07 143.62 22.97Z"/>
  <circle cx="114.54" cy="148.681" r="17" fill="#F2A196"/>
  <circle cx="120.37" cy="147.531" r="16" fill="#E88870"/>
  <path fill="#F2A196" d="M283.48 269.701c-66.848 51.471-160.089 51.06-226.48-1l48.66-22.81a46.787 46.787 0 0 0 6.65-3.82l1.11-.78.78-.6a46.346 46.346 0 0 0 12.78-15.09c4-7.55 5.32-15.89 5.38-24.39 0-2.87-.06-5.74-.15-8.61-.09-2.87-.19-5.7-.22-8.56-.04-3.167-.073-6.337-.1-9.51l1.84.95.14.07 5.2 2.69 2.41.41 27.88 4.69 11.05 1.88 20.07 3.42.94 32 .39 13.3.07 2.24v.33l12.1 4.92.75.31 68.75 27.96Z"/>
  <path fill="#E88870" d="m132.21 190.341 32.86 30.82a51.661 51.661 0 0 0 36.77 12.79l-.39-13.3-.94-32-20.07-3.42c-2.74 1.24-5.48 2.48-8.22 3.56-8.2 3.23-17.47 2-25.42-1.36a36.934 36.934 0 0 1-14.87-12l.28 14.91Z"/>
  <path fill="#F2D4CF" d="M283.48 269.701c-66.848 51.471-160.089 51.06-226.48-1l48.66-22.81a46.787 46.787 0 0 0 6.65-3.82l1.11-.78c24.36 16.61 56.82 26.66 85 14a37.813 37.813 0 0 0 16.31-13.51l68.75 27.92Z"/>
  <path fill="#F2A196" d="M234.35 154.101a105.803 105.803 0 0 1-3 21.68c-3.88 17-10.59 33.93-14 40.28-2.55 4.74-6.23 5.73-12.06 7.27a51.489 51.489 0 0 1-42.51-7.87l-37.09-25.93c-.63-5-1.63-10.21-2.72-15.53-3.17-15.47-7.19-31.84-6-46.4.402-4.146 2.313-8 5.37-10.83 8.17-8.15 23.75-12.15 33.37-14.88 14.52-4.13 29.48-6.7 43.77-11.55 10.53-3.56 21.85-8.87 28-18.59 0 0 1.38 10.78 1.69 13.24.66 5.08.76 9.49 1.44 14.5a52.061 52.061 0 0 1-.6 16.47c-.73 3.75-1.62 7.49-2.22 11.27-.58 3.62.37 3.65 2.28 6.15 4 5.15 4.35 14.55 4.28 20.72Z"/>
  <path fill="#00214E" d="M166.76 127.491c6.1-.11 6.33 9.21.24 9.42h-.28c-6.1.1-6.34-9.22-.24-9.43h.28v.01Zm50.07-2.66c5.66-.1 5.88 8.55.22 8.74h-.25c-5.66.09-5.88-8.56-.22-8.75h.25v.01Z"/>
  <path stroke="#00214E" d="M198.68 130.701c0 .2 5 8.43 7.76 17.4a57.655 57.655 0 0 1 2 14.7l-13.51.35"/>
  <path fill="#00214E" d="M231.39 175.781c-3.88 17-10.59 33.93-14 40.28-2.55 4.74-6.23 5.73-12.06 7.27a51.49 51.49 0 0 1-42.51-7.87l-37.09-25.93c-.74-5.86-3-11.45-4.39-17.21-.61-2.62-1.16-5.34-.56-8a6.795 6.795 0 0 0 1.8 3.69c4.88 6.3 10.58 13.4 18.51 15.84 8.26 2.54 17.61 2.74 25.42-1.34 6.8-3.55 13.44-8.13 20.56-11.1a35.094 35.094 0 0 1 15-3c7.35.32 10.58 3.55 16.06 7.78 1.79 1.39 3.8 2.84 6.08 2.8 2.6-.02 5.06-1.5 7.18-3.21Z"/>
  <path stroke="#F2A196" d="M184.96 182.341a29.745 29.745 0 0 0 20.85-1.74"/>
  <path stroke="#00214E" d="M151.49 119.911a80.471 80.471 0 0 1 28.1-1.51m30.93.12a55.3 55.3 0 0 1 17.42-1.65m-44.47 41.55a3.4 3.4 0 0 0 2.28 6.33"/>
  <path fill="#00214E" d="m122.03 174.081 1-.08.68.76 2.5 13.76-.48.19-.74-.97-2.96-13.66Z"/>
  <path fill="#F2D4CF" d="M146.51 154.591c-5.35 23.06-18.32 117.88-19 141.48.19-7-54.58-17.11-59.26-24 0 0 34.33-166.88 35.31-182.24.08-1.26 3-13.5 4.71-16.63 28.87-51.74 98.3-56.66 131.55-10.57.67.93 2.26 7.78 2.89 8.73 1.85 2.78 3.21 5.56 4.81 8.33 9.82 17 10.6 41.25 11.4 60.74 1 24.41 13.94 127.46 13.94 127.46s-34.12 10-34.4 10.06c0 0 1.28-121.58.24-134.13-1-12-3.43-27.55-9.76-38-5-8.22-43.87-6.61-54.51-3.18-14.53 4.68-20.18 17.24-23.55 32.59-1.42 6.48-2.877 12.933-4.37 19.36Z"/>
  <path stroke="#00214E" stroke-linecap="round" stroke-width="3" d="M105.5 70.75a235.81 235.81 0 0 0 77.57 7.27 231.996 231.996 0 0 0 60.92-12.18"/>
  <path stroke="#00214E" stroke-linecap="round" stroke-width="3" d="M102.17 80.34a254.587 254.587 0 0 0 82.74 8 241.13 241.13 0 0 0 63.57-12.7"/>
</svg>
