<svg xmlns="http://www.w3.org/2000/svg" width="340" height="340" fill="none" viewBox="0 0 340 340">
  <path fill="#F2A196" d="M283.48 269.245c-66.848 51.471-160.089 51.059-226.48-1l48.66-22.81a46.883 46.883 0 0 0 6.65-3.82c.64-.44 1.28-.9 1.89-1.38a46.356 46.356 0 0 0 12.78-15.09 44.702 44.702 0 0 0 4.64-14.53c.488-3.281.736-6.593.74-9.91 0-5.72-.31-11.44-.37-17.17-.04-3.174-.073-6.344-.1-9.51l2 1 5.2 2.69 2.41.41 27.88 4.74 31.12 5.3.94 32 .31 10.46.15 5.08v.33l12.1 4.92 69.48 28.29Z"/>
  <path fill="url(#a)" d="M283.48 269.245c-66.848 51.471-160.089 51.059-226.48-1l48.66-22.81a46.883 46.883 0 0 0 6.65-3.82c.64-.44 1.28-.9 1.89-1.38 23.55 16.76 55.69 27.33 83.49 14.82 6.62-3 12.7-7.84 16.3-14.06l69.49 28.25Z"/>
  <path fill="#E88870" d="M201.88 235.735c-10.45.63-21-7.48-31.9-13.75-20.41-11.79-32.42-26.94-28.5-43.8l27.88 4.74 31.12 5.3.94 32 .46 15.51Z"/>
  <path fill="#00214E" d="M249.82 75.075c5.14 20-3.23 38.7-11.3 57-10.21 23.13-24.87 25.88-47.25 33.52-5 1.72-59.22 17.12-59.22 20.48 0-.73-5.31-6-12-12.41-24-22.79-31.89-58-17.61-88.2 19-40.11 75.62-47.28 114.48-37.53 13.4 3.36 26.48 8.66 31.51 22.55.52 1.54.99 3.07 1.39 4.59Z"/>
  <circle cx="122.05" cy="146.065" r="17" fill="#F2A196"/>
  <circle cx="127.45" cy="146.065" r="15.22" fill="#E88870"/>
  <path fill="#F2A196" d="m127.67 130.025 4.38 57 66.44 38.82c9.538 3.563 20.222-.706 24.68-9.86 9.56-19.58 24.9-50.49 22.88-62-3-17-11-23-11-23l3.33-19.94c1.25-7.51 2.86-15.35 1-22.9-2.13-8.65-8.67-12.35-14.05-18.82-14.16 18.24-37.44 28.55-57.77 39-10.49 5.52-39.89 21.7-39.89 21.7Z"/>
  <path stroke="#00214E" d="M202.2 125.165c-.08.34 13.36 36.12 13.36 36.12l-17.94.88m-37.9-43.93a80.555 80.555 0 0 1 28.13-.79m30.92.9a55.61 55.61 0 0 1 17.45-1.21"/>
  <path fill="#fff" d="M179.24 172.165a1.856 1.856 0 0 1 2.68-.5c2.08 1.46 5.88 4.56 11.28 5.63 7.36 1.47 13.74-1.48 15.27.42.86 1.07-.19 2.38-2.2 4.05a19.693 19.693 0 0 1-14.86 3.69c-7.08-1.33-12.4-9.53-12.4-12.44a1.671 1.671 0 0 1 .23-.85Z"/>
  <path fill="#00214E" d="M176.07 128.135c6.11 0 6.11 9.38 0 9.43h-.27c-6.1 0-6.1-9.38 0-9.43h.27Zm50.17-1.39c5.66.05 5.66 8.7 0 8.75h-.25c-5.67 0-5.67-8.7 0-8.75h.25Z"/>
  <path fill="#845161" d="M226.07 50.915a270.316 270.316 0 0 0-62.3 8.5 270.604 270.604 0 0 0-59 21.92c4.46-20.63 24.89-39.67 52.74-46.66 27.85-6.99 54.84.17 68.56 16.24Z"/>
  <defs>
    <linearGradient id="a" x1="57" x2="283.48" y1="307.563" y2="307.563" gradientUnits="userSpaceOnUse">
      <stop stop-color="#16243F"/>
      <stop offset="1" stop-color="#6878B1"/>
    </linearGradient>
  </defs>
</svg>
