<svg xmlns="http://www.w3.org/2000/svg" width="340" height="340" fill="none" viewBox="0 0 340 340">
  <path fill="url(#a)" d="M249.65 118.485c-1.37 17.78-6.49 35.49-16.48 49.67a26.196 26.196 0 0 1-5.82 6.31c-4 .08-9.63 4.05-14.21 4.49-3.45.34-7.12-.61-10.46-.06-10.42 1.69-21.47 9.34-31 13.85-6.43 3-13 6.12-20.11 6.72-8.6.71-16.7-2.31-23.88-7.2a73.64 73.64 0 0 1-15.9-15.27c-15.07-19.11-24.92-44.64-21.93-69.63 6.74-56.21 76.71-91.94 127.87-76.93a27.997 27.997 0 0 1 7.54 3.46c.72.8 1.43 1.63 2.11 2.46 1.42 1.71 2.78 3.47 4.1 5.27l.68.94a111.71 111.71 0 0 1 12.12 22c7.41 17.97 6.84 34.7 5.37 53.92Z"/>
  <path fill="url(#b)" d="M227.38 36.355c-1.83 7.51-9.46 18.06-12.59 23.55-14.75 25.79-37.44 45-53.3 69.26-1.13 1.73-2.11 3.55-3.12 5.35-5.2 9.21-10.21 18.54-15.19 27.88a1838 1838 0 0 0-8.83 16.78c-1.15 2.24-2.87 4.32-3.12 6.83a62.315 62.315 0 0 0-.5 7.21c.044.982.229 1.952.55 2.88.11.34.8 2.52 1.19 2.54a8.266 8.266 0 0 1-4-1.69c-7.69-5.13-13.37-11.72-18.86-19a111.99 111.99 0 0 1-6.92-10c-5.31-8.91-8.18-19-10.32-29.06-2.23-10.5-3.79-20.76-2.5-31.51 6.73-56.22 76.7-91.95 127.86-76.94a28.005 28.005 0 0 1 7.54 3.46c.72.8 1.43 1.63 2.11 2.46Z"/>
  <circle cx="113.37" cy="153.295" r="17" fill="#845161"/>
  <circle cx="119.2" cy="152.175" r="16" fill="#69303A"/>
  <path fill="#845161" d="M283.48 275.335c-66.848 51.472-160.089 51.06-226.48-1l48.66-22.81a46.787 46.787 0 0 0 6.65-3.82c.64-.44 1.28-.9 1.89-1.38a46.346 46.346 0 0 0 12.78-15.09c4-7.55 5.32-15.89 5.38-24.39v-.62c0-4.75-.23-9.51-.33-14.27v-2.28c-.04-3.166-.073-6.336-.1-9.51l2 1 5.2 2.69 2.41.41 27.88 4.74 3.79.65 27.33 4.65.94 32 .27 9.21.19 6.33v.31l12.1 4.92 69.44 28.26Z"/>
  <path fill="#69303A" d="M201.69 235.495a51.587 51.587 0 0 1-40.18-8.61l-29.15-20.67c0-4.75-.23-9.51-.33-14.27 10.57 5.35 23.21 7.27 33.35 2 2.6-1.33 5.18-2.83 7.77-4.32l27.33 4.65.94 32 .27 9.22Z"/>
  <path fill="#845161" d="M233.14 159.355c-.39 21.74-12.34 52.75-17.28 61.87-2.55 4.72-6.25 5.7-12.09 7.2a51.427 51.427 0 0 1-42.46-8.09l-37-26.82c-1.56-12.66-4.81-24.32-6.82-36.91-1.29-8.1-5.32-25.36 1.41-31.82a11.419 11.419 0 0 1 3.15-2c4.41-2.07 10.95-3.27 14.57-4.7 6.667-2.62 13.27-5.39 19.81-8.31a516.266 516.266 0 0 0 19.84-9.42 483.496 483.496 0 0 0 18.58-9.85l9.79 5.68c5.96 3.46 11.917 6.92 17.87 10.38 11.91 6.91 6.11 14.8 4.28 25.92-.6 3.61.35 3.65 2.26 6.16 3.86 5.15 4.21 14.51 4.09 20.71Z"/>
  <path stroke="#00214E" d="M150.47 124.715a80.792 80.792 0 0 1 28.11-1.35m30.93.28a55.632 55.632 0 0 1 17.43-1.56"/>
  <path fill="#FF2609" d="M283.48 275.335c-66.848 51.472-160.089 51.06-226.48-1l48.66-22.81a46.787 46.787 0 0 0 6.65-3.82c.64-.44 1.28-.9 1.89-1.38 23.55 16.76 55.69 27.33 83.49 14.82 6.62-3 12.7-7.84 16.3-14.06l69.49 28.25Z"/>
  <path stroke="#00214E" d="M182.25 163.405a3.4 3.4 0 0 0 2.24 6.34m12.58-35.68c2.68 9.5 4.94 18.86 7.5 28.43.299.871.418 1.793.35 2.71-.37 2.76-3.62 3.95-6.33 4.59"/>
  <circle cx="195.15" cy="117.805" r="4.02" fill="#FF2609"/>
  <path fill="#fff" d="M207.22 97.675c-7.73.2-17.89.5-25.58 1.59-2.22.32-5.41 1.06-5.41 1.06a483.496 483.496 0 0 0 18.58-9.85l12.41 7.2Z"/>
  <path fill="#00214E" d="M230.07 180.985c-4 17-10.58 33.91-14 40.24-2.56 4.72-6.26 5.69-12.1 7.2a50.996 50.996 0 0 1-40.69-6.76c-4.51-2.88-9.13-5.56-13.73-8.28-5.19-3.06-10.35-6.18-15.25-9.67-4.27-3.05-8.27-6.09-10.54-11a39.158 39.158 0 0 1-2-5.59c-.46-1.59-1-3.43-.64-5.1a1.881 1.881 0 0 1 1.23-1.43 2.36 2.36 0 0 1 1.36.12c2.87.86 5.49 2.81 8.09 4.26a41.763 41.763 0 0 0 8.88 3.83c8.08 2.34 17.08 2.54 24.71-1.39 6.82-3.51 13.48-8.06 20.61-11a34.89 34.89 0 0 1 15.07-2.87c7.35.35 10.55 3.6 16 7.86 1.79 1.4 3.79 2.86 6.06 2.83 2.54-.08 4.82-1.56 6.94-3.25Z"/>
  <path stroke="#F2A196" d="M183.63 188.655a29.724 29.724 0 0 0 20.92.39"/>
  <path fill="#00214E" d="M163.15 133.545c6.1-.07 6.29 9.25.19 9.42h-.27c-6.1.07-6.28-9.25-.18-9.42h.27-.01Zm50.24-1.64c5.66-.06 5.83 8.59.17 8.74h-.25c-5.67.06-5.83-8.59-.17-8.75h.25v.01Z"/>
  <defs>
    <linearGradient id="a" x1="147.986" x2="295.137" y1="189.402" y2="211.302" gradientUnits="userSpaceOnUse">
      <stop stop-color="#16243F"/>
      <stop offset="1" stop-color="#6878B1"/>
    </linearGradient>
    <linearGradient id="b" x1="105.533" x2="318.941" y1="305.777" y2="202.266" gradientUnits="userSpaceOnUse">
      <stop stop-color="#16243F"/>
      <stop offset="1" stop-color="#6878B1"/>
    </linearGradient>
  </defs>
</svg>
