<svg xmlns="http://www.w3.org/2000/svg" width="340" height="340" fill="none" viewBox="0 0 340 340">
  <path fill="#00214E" fill-rule="evenodd" d="M209.14 46.867c29.98 19.56 35.9 55.96 36.31 89.15.173 14.032.041 28.002-.091 41.955-.257 27.143-.514 54.217 1.481 81.535-.14-1.95-31.75-6.64-35.36-6.8-7.59-.328-15.44.385-23.201 1.09-3.825.347-7.629.692-11.369.91-6.523.408-13.193.572-19.898.736-12.856.315-25.847.634-38.202 2.684-2.396.399-4.76.803-7.105 1.203-12.415 2.119-24.287 4.146-37.425 4.877a4.263 4.263 0 0 1-3-.59c-1-.82-1-2.3-1-3.59 0-15.456.692-30.906 1.384-46.344.978-21.807 1.954-43.59.976-65.336a130.838 130.838 0 0 1 9-54.2 105.091 105.091 0 0 1 26.66-39 77.539 77.539 0 0 1 10.22-7.8c26.87-17.28 63.55-18.14 90.62-.48Zm-88.16 74.97 14.09 10 45.4-45.39-5.71-3.61a70.619 70.619 0 0 1-21.84 23 130.259 130.259 0 0 1-31.94 16Z" clip-rule="evenodd"/>
  <path fill="#F2A196" d="M283.48 266.717c-66.848 51.472-160.089 51.06-226.48-1l48.66-22.81a47.625 47.625 0 0 0 4.35-2.34l1.12-.7c.4-.25.79-.51 1.18-.78a46.543 46.543 0 0 0 14.67-16.47c4-7.55 5.32-15.89 5.38-24.39 0-4.67-.19-9.34-.31-14 0-1.046-.02-2.096-.06-3.15-.04-3.166-.073-6.336-.1-9.51h.07l1.91 1 5.2 2.69 30.29 5.15 31.12 5.3.71 24 .2 6.88v1.07l.47 15.87 11.47 4.67 9 3.64 61.15 24.88Z"/>
  <path fill="#E88870" d="M201.19 209.717a12.12 12.12 0 0 1-7.34 2.11c-14.78-1.59-43.64-13.18-61.78-34.63 0-1.046-.02-2.096-.06-3.15v-2.47l1.91 1 5.2 2.69 30.29 5.15 31.12 5.3.66 24Z"/>
  <circle cx="106.89" cy="139.537" r="17" fill="#F2A196"/>
  <circle cx="112.89" cy="137.537" r="17" fill="#E88870"/>
  <path fill="#F2A196" d="M222.43 113.797c11.74 40.68-13.2 89.87-28.54 89.87-21 0-72-16.78-83.73-57.46-11.73-40.68 3.91-80.92 34.91-89.86 31-8.94 65.62 16.76 77.36 57.45Z"/>
  <path stroke="#00214E" d="M164.38 163.217a29.735 29.735 0 0 0 18.54 9.69m2.08-54.83c-.05.2 4.79 8.56 7.31 17.59a57.994 57.994 0 0 1 1.62 14.76h-13.51m16.99-40.86a31.183 31.183 0 0 1 22.85-2.16m-82 6.14a36.752 36.752 0 0 1 31.23-1"/>
  <path fill="#00214E" d="M155.8 122.407c6.1.05 6.1 9.38 0 9.42h-.27c-6.1 0-6.1-9.37 0-9.42h.27Zm50.13-1.39c5.66 0 5.66 8.7 0 8.74h-.25c-5.67 0-5.67-8.7 0-8.74h.25ZM186 45.667a113.832 113.832 0 0 1-2.27 14 81.002 81.002 0 0 1-9 23.18 70.619 70.619 0 0 1-21.84 23 130.259 130.259 0 0 1-31.94 16 202.826 202.826 0 0 1-27.46 7.23c.31-7.63 0-17.07.94-25.93.7-6.36 2.1-12.43 4.92-17.32a79.535 79.535 0 0 1 32.19-30.3l.12-.06c14.79-7.61 37.7-15.12 54.34-9.8Z"/>
  <path fill="#F2D4CF" d="M283.48 266.717c-66.848 51.472-160.089 51.06-226.48-1l48.66-22.81a46.787 46.787 0 0 0 6.65-3.82c.64-.44 1.28-.9 1.89-1.38a46.346 46.346 0 0 0 12.78-15.09 44.69 44.69 0 0 0 4.64-14.48 28.405 28.405 0 0 0 2.22 1.94 95.083 95.083 0 0 0 19.82 11.27 98.757 98.757 0 0 0 10.46 3.69 93.506 93.506 0 0 0 33 3.49c1.54-.12 3.09-.27 4.63-.38l.15 5.08v.33l12.1 4.92 69.48 28.24Z"/>
  <path fill="url(#a)" d="M174.71 82.887a70.63 70.63 0 0 1-21.84 23 130.259 130.259 0 0 1-31.94 16l-26.52-18.7-12.77-9a105.09 105.09 0 0 1 26.66-39 77.539 77.539 0 0 1 10.22-7.84l13 8.22 43.19 27.32Z"/>
  <defs>
    <linearGradient id="a" x1="144.062" x2="184.271" y1="149.947" y2="66.514" gradientUnits="userSpaceOnUse">
      <stop offset=".29" stop-color="#00214E"/>
      <stop offset=".51" stop-color="#6878B1"/>
      <stop offset=".79" stop-color="#00214E"/>
    </linearGradient>
  </defs>
</svg>
