<svg xmlns="http://www.w3.org/2000/svg" width="340" height="340" fill="none" viewBox="0 0 340 340">
  <path fill="#845161" d="M283.48 267.31c-66.848 51.471-160.089 51.059-226.48-1l48.66-22.81a46.883 46.883 0 0 0 6.65-3.82c.64-.44 1.28-.9 1.89-1.38a46.366 46.366 0 0 0 12.78-15.09 44.705 44.705 0 0 0 4.64-14.48c.488-3.281.736-6.594.74-9.91 0-5.72-.31-11.44-.37-17.17-.04-3.174-.073-6.344-.1-9.51l2 1 5.2 2.69 2.41.41 27.88 4.74 31.12 5.3.94 32 .31 10.46.15 5.08v.33l12.1 4.92 69.48 28.24Z"/>
  <path fill="#FF2609" d="M283.48 267.31c-66.848 51.471-160.089 51.059-226.48-1l48.66-22.81a46.883 46.883 0 0 0 6.65-3.82c.64-.44 1.28-.9 1.89-1.38 23.55 16.76 55.69 27.33 83.49 14.82 6.62-3 12.7-7.84 16.3-14.06l69.49 28.25Z"/>
  <path fill="#69303A" d="M201.88 233.83c-10.45.63-22.13-2.07-33-8.34-20.41-11.79-31.32-32.35-27.4-49.21l27.88 4.74 31.12 5.3.94 32 .46 15.51Z"/>
  <path fill="url(#a)" d="M254.83 71.01a41.361 41.361 0 0 1 4 17c.22 21.18-12.15 41.65-26 56.84l-.3.33c-10.59 11.12-27.31 13.72-41.23 18.47-5 1.72-59.22 17.12-59.22 20.48 0-.73-5.31-6-12-12.41a79.872 79.872 0 0 1-23.54-43.26c-2.54-13.94-.4-31.15 3.69-44.68 7.38-24.35 28-40.12 52-46.21 23.25-5.89 53.19-4.9 74.86 6.05 11.66 5.87 22.24 15.54 27.74 27.39Z"/>
  <circle cx="122.05" cy="144.16" r="17" fill="#845161"/>
  <circle cx="127.44" cy="144.16" r="15.22" fill="#69303A"/>
  <path fill="#845161" d="m127.67 128.11 2.32 30.2 1.51 19.72c.56 7.27 3.39 11.62 8.12 17.43a85.163 85.163 0 0 0 31.26 23.92c11.6 5.17 27.68 10.31 40.06 5.3 12.65-5.13 16.69-19.33 20.94-31.11 4.25-11.78 8.21-24.74 8-37.46-.27-17.26-4.84-26.93-4.84-26.93 1.113-6.667 2.22-13.314 3.32-19.94 1.26-7.51 2.87-15.36 1-22.91-2.13-8.65-8.67-12.34-14.05-18.82-14.16 18.24-37.44 28.55-57.77 39-10.47 5.42-39.87 21.6-39.87 21.6Z"/>
  <path stroke="#00214E" d="M205.55 132.81a53.28 53.28 0 0 0 2.48 10.5c1.14 3 2.62 4.81 4.63 7.33a17.546 17.546 0 0 1 1.82 2.66c2.77 5.34-.11 11.62-6.28 12l-3.81.22m-13.93-6.27a3.14 3.14 0 0 0 2.31 5.77m-36.63-43.61a80.317 80.317 0 0 1 28.13-.8m34.5-.16a55.613 55.613 0 0 1 17.45-1.21M165 181.31a39.708 39.708 0 0 1 15.25-14.42m2.67-30.28a11.561 11.561 0 0 1-7 9.29 23.623 23.623 0 0 1-6.41 1.38m14.77-43.06h31.6m-35.63 6.53h31.61m3.88 23.56a34.678 34.678 0 0 0 3.74 7.23 10.145 10.145 0 0 0 6.24 4"/>
  <path fill="#fff" d="M177.06 177.81a1.848 1.848 0 0 1 2.68-.51c2.08 1.47 5.88 4.56 11.28 5.64 7.36 1.46 13.75-1.48 15.27.42.86 1.07-.19 2.37-2.2 4a19.744 19.744 0 0 1-14.86 3.68c-7.08-1.32-12.4-9.53-12.4-12.43.008-.282.087-.558.23-.8Z"/>
  <path fill="#00214E" d="M173.21 131.14c6.1-.07 6.29 9.25.19 9.42h-.26c-6.1.07-6.28-9.26-.18-9.43h.27l-.02.01Zm50.24-1.64c5.66-.06 5.83 8.59.17 8.75h-.25c-5.67.07-5.83-8.59-.17-8.74h.25v-.01Z"/>
  <defs>
    <linearGradient id="a" x1="155.912" x2="309.667" y1="240.504" y2="104.868" gradientUnits="userSpaceOnUse">
      <stop stop-color="#315676"/>
      <stop offset="1" stop-color="#E1B9E0"/>
    </linearGradient>
  </defs>
</svg>
