<svg xmlns="http://www.w3.org/2000/svg" width="340" height="340" fill="none" viewBox="0 0 340 340">
  <path fill="url(#a)" d="M249.23 111.79c.79 8.12 8.29 15.14 6.76 23.14-2.11 11-18.81 13.28-22.34 23.89-2.11 6.31 1.32 13.36-.31 19.81-1.86 7.35-9.69 11.59-17.14 13-11 2-21 1.06-30.94 7-5.28 3.17-9.32 8.14-15 10.61-16.55 7.16-35.93-1.29-47.23-13.86-14.71-16.38-21.47-37.27-25.83-58.44-.78-3.8-1.497-7.604-2.15-11.41-.09-.53-.19-1.06-.29-1.59-1.8-9.47-5-19.9-6.37-30.1-.14-1.04-.26-2.08-.36-3.12-1.06-11.07.42-21.72 8.6-30.39a36.33 36.33 0 0 1 31.25-10.83c3.65.54 7.3 1.65 10.95 1.16 6.18-.81 10.79-5.84 15.15-10.28 9.66-9.82 23.21-18.69 36.39-14.7 5.11 1.55 9.69 4.95 15 5.39l.91.05c6.19.12 11.83-3.67 17.37-6.63 5.8-3.1 13.29-5.28 18.63-1.44 9.65 6.93 1.27 22.95 6.07 33.82 2.9 6.57 10.4 10.45 12.57 17.29 4.06 12.81-12.99 24.16-11.69 37.63Z"/>
  <path fill="#845161" d="M283.48 280.66c-66.848 51.471-160.089 51.059-226.48-1l48.66-22.81a48.12 48.12 0 0 0 4.35-2.34l1.12-.7c.4-.25.79-.51 1.18-.78a46.552 46.552 0 0 0 14.67-16.47c4-7.55 5.32-15.89 5.38-24.39 0-5.72-.31-11.44-.37-17.17-.04-3.167-.073-6.337-.1-9.51l2 1 5.2 2.69 30.29 5.15 31.12 5.3.94 32 .47 15.87 11.47 4.67 9 3.64 61.1 24.85Z"/>
  <path fill="#69303A" d="M201.42 231.61a60.09 60.09 0 0 1-30.07-2.35c-21.58-7.25-36.11-24.74-37.48-42.76l5.2 2.69 30.29 5.15 31.12 5.3.94 31.97Z"/>
  <path fill="url(#b)" d="M283.48 280.66c-66.848 51.471-160.089 51.059-226.48-1l48.66-22.81a48.12 48.12 0 0 0 4.35-2.34c23.68 17.41 56.64 28.75 85.06 16 8.06-3.62 15.33-10.05 18.29-18.31l9 3.64 61.12 24.82Z"/>
  <circle cx="108.83" cy="151.93" r="17" fill="#845161"/>
  <circle cx="114.91" cy="150.19" r="17" fill="#69303A"/>
  <path fill="#845161" d="M193.07 219.67c-21-.89-71.22-19.8-81.24-60.94a97.864 97.864 0 0 1-2.8-26.21c0-1.73.15-3.45.29-5.14 2.48-28.26 18-51.33 41.13-57a40.096 40.096 0 0 1 4-.78 47.879 47.879 0 0 1 23.94 2.69 66.82 66.82 0 0 1 25.6 17.76 84.8 84.8 0 0 1 8.08 10.39 96.397 96.397 0 0 1 13.26 30.64c10.04 41.13-16.96 89.23-32.26 88.59Z"/>
  <path fill="#00214E" d="M160.31 133.37c6.1.3 5.71 9.62-.39 9.41h-.28c-6.09-.3-5.7-9.62.4-9.41h.27Zm50.38-1.72c5.66.28 5.29 8.93-.37 8.74h-.25c-5.66-.29-5.29-8.93.37-8.74h.25Z"/>
  <path stroke="#00214E" d="M192.42 131.36a57.605 57.605 0 0 0 1.51 11.56c.9 3.35 2.29 5.46 4.17 8.4a18.144 18.144 0 0 1 1.67 3.06c2.39 6-1.4 12.48-8.07 12.19l-4.13-.17m-24.39 10.15a29.767 29.767 0 0 0 18.12 10.47m-8.01-28.89a3.399 3.399 0 0 0 1.84 6.47m22.53-45.32a31.166 31.166 0 0 1 22.92-1.19m-75.46 1.88a36.73 36.73 0 0 1 31.24.33"/>
  <path fill="url(#c)" d="M219.97 79.71c-.9 4.6-4.09 8.5-10 11-5.11 2.18-10.7 2.88-16.08 4.26-7.71 2-12.25 7.8-19.45 10.09-6.16 2-12.74 1.69-19.23 1.92-2.99.052-5.97.353-8.91.9a52.303 52.303 0 0 0-13.37 5 106.491 106.491 0 0 0-17.29 11.45c-2.6 2.1-5.71 4.72-6.41 8.16-.24 1.18-.31 2.56-1.25 3.32a4.103 4.103 0 0 1-2 .68c-2.91.45-5.92 1-8.29 2.81-1.51-4.27-1.88-9.37-2.64-13.83-.09-.53-.19-1.06-.29-1.59-1.8-9.47-5-19.9-6.37-30.1-.14-1.04-.26-2.08-.36-3.12-1.06-11.07.42-21.72 8.6-30.39a36.33 36.33 0 0 1 31.25-10.83c3.65.54 7.3 1.65 10.95 1.16l.51-.08c5.93-1 10.4-5.88 14.64-10.2 9.66-9.82 23.21-18.69 36.39-14.7 5.11 1.55 9.69 4.95 15 5.39 3.14.26 1.48 6.05 1.27 8.34-.53 5.81-.88 9.09 2.42 14.35 2.6 4.12 5.67 7.94 8 12.2 2.65 4.89 3.73 9.63 2.91 13.81Z"/>
  <defs>
    <linearGradient id="a" x1="87.7" x2="261.53" y1="211.818" y2="211.818" gradientUnits="userSpaceOnUse">
      <stop stop-color="#315676"/>
      <stop offset="1" stop-color="#E1B9E0"/>
    </linearGradient>
    <linearGradient id="b" x1="57" x2="283.48" y1="318.953" y2="318.953" gradientUnits="userSpaceOnUse">
      <stop stop-color="#16243F"/>
      <stop offset="1" stop-color="#6878B1"/>
    </linearGradient>
    <linearGradient id="c" x1="73.763" x2="241.331" y1="172.992" y2="127.816" gradientUnits="userSpaceOnUse">
      <stop stop-color="#315676"/>
      <stop offset=".98" stop-color="#E1B9E0"/>
    </linearGradient>
  </defs>
</svg>
