<svg xmlns="http://www.w3.org/2000/svg" width="340" height="340" fill="none" viewBox="0 0 340 340">
  <path fill="#00214E" d="M109.13 156.066c-.59-1.4-1.16-2.82-1.69-4.25-13-34.59-7.74-76.87 22.21-100.87 8.26-6.62 15.89-12.24 25.74-16.5 3.06-1.32 6.51-2.58 9.65-1.45 3.14 1.13 4.89 5.87 2.22 7.86a65.821 65.821 0 0 1 20.5-9.67c4.38-1.19 9.2-1.9 13.36-.07 4.16 1.83 7.06 7.06 5 11.1 6-2.19 12.45-4.07 18.68-2.72 9.39 2 16.72 16 20.75 24a84.12 84.12 0 0 1 8.62 37c.11 10.64-2.82 21.06-6 31.2-4.46 14.21-9.72 28.63-19.62 39.76-10.1 11.23-21.48 14.36-35.89 15.23-8.4.51-16.78 1.34-25.16 2.08-4.25.38-8.51.76-12.77 1-3.8.23-7.27 2.16-11.1 2.67a15.004 15.004 0 0 1-9.55-1.55 22.337 22.337 0 0 1-5.57-5.28 167.518 167.518 0 0 1-11.29-14.4 91.721 91.721 0 0 1-8.09-15.14Z"/>
  <circle cx="121.89" cy="148.216" r="17" fill="#845161"/>
  <circle cx="127.75" cy="147.216" r="16" fill="#69303A"/>
  <path fill="#845161" d="M283.48 271.396c-66.848 51.471-160.089 51.059-226.48-1l48.66-22.81a46.883 46.883 0 0 0 6.65-3.82c.64-.44 1.28-.9 1.89-1.38a46.346 46.346 0 0 0 12.78-15.09c4-7.55 5.32-15.89 5.38-24.39 0-1.74 0-3.49-.06-5.23-.09-4-.27-8-.31-11.94-.04-3.167-.073-6.337-.1-9.51l2 1 5.2 2.69 2.41.41 27.88 4.74 31.12 5.3.94 32 .36 12.21.1 3.33v.33l12.1 4.92 69.48 28.24Z"/>
  <path fill="#69303A" d="m201.81 234.766-1.54.16a51.492 51.492 0 0 1-40.67-14.65l-27.38-31.91c-.09-2.9-.2-.6-.23-3.51-.04-3.167-.073-6.337-.1-9.51l2 1 5.2 2.69 2.41.41 27.88 4.74 31.12 5.3.94 32 .37 13.28Z"/>
  <path fill="#845161" d="M142.92 115.496a80.484 80.484 0 0 0-1 16c-.9-.19-17.43-4.6-17.31-3.22.87 10.36 6.38 50.77 7.43 61l36.42 26.86a51.474 51.474 0 0 0 42.29 8.94c5.87-1.38 9.59-2.29 12.24-7 5.12-9 17.69-39.79 18.51-61.51.23-6.17.08-15.57-3.72-20.82-1.85-2.55-2.8-2.61-2.13-6.21.69-3.76 1.68-7.47 2.51-11.21 2-9.06 2.75-17.46.75-26.74-1.37-6.33-7.47-17.72-7.47-17.72-.81 4.61-8 11.55-14.87 12.94-15.83 3.2-28.73-3.86-44-4.63-6.43-.33-13.21 1.18-18 5.46-3.68 3.27-5.91 7.86-7.63 12.48a80.55 80.55 0 0 0-4.02 15.38Z"/>
  <path stroke="#00214E" d="M207.26 131.496c.27 3.888.94 7.739 2 11.49 1 3.31 2.51 5.36 4.52 8.21a19.756 19.756 0 0 1 1.79 3c2.64 5.94-.87 12.53-7.55 12.53h-4.13m-25.66 9.8a29.762 29.762 0 0 0 18.54 9.69m-37.21-65.83a80.317 80.317 0 0 1 28.13-.8m30.92.91a55.35 55.35 0 0 1 17.46-1.22"/>
  <path fill="#FF2609" d="M283.48 271.396c-66.848 51.471-160.089 51.059-226.48-1l48.66-22.81a46.883 46.883 0 0 0 6.65-3.82c.64-.44 1.28-.9 1.89-1.38 23.55 16.76 55.69 27.33 83.49 14.82 6.62-3 12.7-7.84 16.3-14.06l69.49 28.25Z"/>
  <path stroke="#00214E" d="M190.56 159.686a3.399 3.399 0 0 0 2.11 6.38"/>
  <path fill="#00214E" d="M175.07 128.016c6.1 0 6.1 9.38 0 9.43h-.28c-6.1 0-6.1-9.38 0-9.43h.28Zm50.25 0c5.66 0 5.66 8.71 0 8.75h-.25c-5.66 0-5.66-8.7 0-8.75h.26-.01Z"/>
</svg>
