<svg xmlns="http://www.w3.org/2000/svg" width="340" height="340" fill="none" viewBox="0 0 340 340">
  <path fill="url(#a)" d="M117.92 168.745c-20.13-31.84-33.35-89.62 2.51-116.6a121.14 121.14 0 0 1 78.49-24c8 .43 16.29 1.77 23.07 6.11 6.78 4.34 11.73 12.28 10.55 20.24-1.18 7.96-2.59 10.12 4.53 13.48a53.355 53.355 0 0 1 16.67 12.37c5.41 6 9.22 13.85 8.66 21.89-.68 9.69-7.48 18.55-6.47 28.22.76 7.2 5.7 13.16 8.78 19.71a33.996 33.996 0 0 1 2.64 22.11c-4.92 20.37-24.62 18.07-41.3 19.7l-34.46 3.37c-9.28.91-18.61.2-27.91 1.63-8.06 1.24-16.85 3.89-24.27-1.07a28.595 28.595 0 0 1-5.93-5.85 208.632 208.632 0 0 1-15.56-21.31Z"/>
  <path fill="#845161" d="M283.48 272.775c-66.848 51.471-160.089 51.059-226.48-1l48.66-22.81a46.883 46.883 0 0 0 6.65-3.82c.64-.44 1.28-.9 1.89-1.38a46.356 46.356 0 0 0 12.78-15.09 44.705 44.705 0 0 0 4.64-14.48c.488-3.281.736-6.593.74-9.91 0-5.72-.31-11.44-.37-17.17-.04-3.167-.073-6.337-.1-9.51l2 1 5.18 2.74 2.41.41 27.88 4.74 31.12 5.3.94 32 .31 10.46.15 5.08v.33l12.1 4.92 69.5 28.19Z"/>
  <path fill="#69303A" d="M201.78 237.215a16.006 16.006 0 0 1-10.07-1.56l-59.64-48.77c-.07-2.26-.13.1-.16-2.16-.04-3.167-.074-6.337-.1-9.51l2 1 5.2 2.69 2.41.41 27.88 4.74 31.07 5.29.94 32 .31 10.46.15 5.08v.33h.01Z"/>
  <path fill="#F2A196" d="M283.48 272.775c-66.848 51.471-160.089 51.059-226.48-1l48.66-22.81a46.883 46.883 0 0 0 6.65-3.82c.64-.44 1.28-.9 1.89-1.38 23.55 16.76 55.69 27.33 83.49 14.82 6.62-3 12.7-7.84 16.3-14.06l69.49 28.25Z"/>
  <circle cx="120.78" cy="151.505" r="17" fill="#845161"/>
  <circle cx="126.17" cy="151.325" r="15.22" fill="#69303A"/>
  <path fill="#845161" d="m125.84 135.275 6.35 56.86c.16 1.47 10.91 5.89 12.19 6.57 14.4 7.77 29.2 18 45.6 20.84 7 1.19 14.33 1.14 21-1.31 11.77-4.35 13.46-13.16 17.61-23.49a183.394 183.394 0 0 0 8.88-28.7c1-4.53 2.16-9.24 2.32-13.89.19-5.52-1-11.94-4.9-16.05-.91-.95-1.87-2.09-1.69-3.5 1.62-12.3 4.11-26.21-1.12-37.92-3.39-7.61-9-14-15.12-19.68 0 0-47.66 34.9-52 37.33-10.29 5.76-39.12 22.94-39.12 22.94Z"/>
  <path stroke="#00214E" d="M205.78 141.775a51.17 51.17 0 0 0 5.86 10c1.91 2.32 4.21 3.78 4.24 7.18.06 4.94-4.59 7.81-9.16 7.58m-27.9 12.96a29.805 29.805 0 0 0 18.87 9m-39.47-64.47a80.454 80.454 0 0 1 28.09-1.76m30.93-.17a55.462 55.462 0 0 1 17.4-1.81m-44.08 40.69a3.4 3.4 0 0 0 2.33 6.31"/>
  <path fill="#00214E" d="M173.97 131.125c6.1-.16 6.43 9.16.33 9.42h-.23c-6.1.16-6.43-9.16-.33-9.42h.27-.04Zm50.24-1.78c5.66-.14 6 8.5.3 8.75h-.26c-5.66.15-6-8.5-.3-8.74h.26v-.01Z"/>
  <defs>
    <linearGradient id="a" x1="100.863" x2="268.854" y1="200.882" y2="195.881" gradientUnits="userSpaceOnUse">
      <stop stop-color="#315676"/>
      <stop offset="1" stop-color="#E1B9E0"/>
    </linearGradient>
  </defs>
</svg>
