<svg xmlns="http://www.w3.org/2000/svg" width="340" height="340" fill="none" viewBox="0 0 340 340">
  <path fill="#E18477" d="M281.48 272.566c-66.848 51.472-160.089 51.06-226.48-1l48.66-22.81a46.787 46.787 0 0 0 6.65-3.82c.64-.44 1.28-.9 1.89-1.38a46.346 46.346 0 0 0 12.78-15.09 44.69 44.69 0 0 0 4.64-14.48c.488-3.281.736-6.593.74-9.91 0-5.72-.31-11.44-.37-17.17-.04-3.173-.073-6.343-.1-9.51l2 1 5.2 2.69 2.41.41 27.88 4.74 31.12 5.3.94 32 .31 10.46.15 5.08v.33l12.1 4.92 69.48 28.24Z"/>
  <path fill="#A76962" d="M199.86 238.176a15.993 15.993 0 0 1-10.07-1.56l-59.67-48.81c-.07-2.26-.13.11-.16-2.15-.04-3.166-.073-6.336-.1-9.51l2 1 5.2 2.69 2.41.41 27.88 4.74 31.12 5.3.94 32 .31 10.46.15 5.08v.33l-.01.02Z"/>
  <path fill="url(#a)" d="M244.48 76.036a90.484 90.484 0 0 1 38.48 42.88 80.153 80.153 0 0 0-19.49 4.06h-.06a78.81 78.81 0 0 0-4.88 1.85l-1 .43-1.59.7c-.53.23-1.06.48-1.58.74s-1 .51-1.57.78c-.57.27-1 .53-1.55.81s-.91.49-1.36.75c-1.08.6-2.14 1.23-3.18 1.88a78.76 78.76 0 0 0-12.48 9.61c-4.39 4.15-8.49 8.92-13 13.18a46.298 46.298 0 0 1-13.38 9.39c-9.64 4.15-20.79 6.55-30.8 10l-47 16.25c0-.74-5.32-6-12-12.41a91.07 91.07 0 0 1-28.3-64c-1.62-73.26 84.44-94.8 143-79.1a91.208 91.208 0 0 1 26.21 11.74 76.005 76.005 0 0 1 14.54 12.23 63.106 63.106 0 0 1 11.95 18.5l-.79-.14a112.732 112.732 0 0 0-40.17-.13Z"/>
  <path fill="url(#b)" d="M282.96 118.916a80.143 80.143 0 0 0-19.49 4.06h-.06a47.363 47.363 0 0 0-4.88 1.85l-1 .43-1.61.72c-.53.24-1.05.48-1.58.74s-1 .51-1.57.78c-.57.27-1 .53-1.55.81s-.91.49-1.36.75c-1.08.6-2.14 1.23-3.18 1.88l-1.23.78a78.76 78.76 0 0 0-11.25 8.83c-4.39 4.15-8.49 8.92-13 13.18-1.46.6-2.91 1.23-4.36 1.86.18-.08-1.15-17-1.11-18.71.167-6.533.913-13.038 2.23-19.44 2.54-12.31.92-23.76 3.37-36.38a80.257 80.257 0 0 1 2-8.35c4.18-3.12 10-4.08 15.07-4.81 12.15-1.75 24.65-.09 36.34 3.59a57.285 57.285 0 0 1 5.69 2.14c.88.39 1.74.81 2.59 1.26a12.209 12.209 0 0 0 2.42 1.42 117.168 117.168 0 0 0-41-.27 90.482 90.482 0 0 1 38.52 42.88Z"/>
  <circle cx="120.05" cy="149.386" r="17" fill="#E18477"/>
  <circle cx="125.44" cy="149.386" r="15.22" fill="#A76962"/>
  <path fill="#E18477" d="m125.67 133.346 4.38 57 66.44 38.82c9.538 3.558 20.219-.709 24.68-9.86 9.56-19.58 24.9-50.49 22.88-62-3-17-11-23-11-23 1.113-6.666 2.22-13.313 3.32-19.94 1.26-7.51 2.86-15.35 1-22.9-2.13-8.65-8.67-12.35-14.05-18.82-14.16 18.24-37.44 28.55-57.77 39-10.5 5.52-39.88 21.7-39.88 21.7Z"/>
  <path stroke="#00214E" d="M157.72 121.556a80.576 80.576 0 0 1 28.13-.75m30.92.86a55.673 55.673 0 0 1 17.45-1.21m-40.48 39.69a3.4 3.4 0 0 0 2.11 6.38m15.94-16.72s.29 5.65 1.62 8.3c.57 1.14 1.46 2.1 2 3.24 2.21 4.33-1.36 5.25-4.81 5.25"/>
  <path fill="#00214E" d="M281.48 272.566c-66.848 51.472-160.089 51.06-226.48-1l48.66-22.81a46.787 46.787 0 0 0 6.65-3.82c.64-.44 1.28-.9 1.89-1.38a46.346 46.346 0 0 0 12.78-15.09 44.69 44.69 0 0 0 4.64-14.48 28.405 28.405 0 0 0 2.22 1.94 95.138 95.138 0 0 0 19.82 11.26 98.757 98.757 0 0 0 10.46 3.69 93.506 93.506 0 0 0 33 3.49c1.54-.12 3.09-.27 4.63-.38l.15 5.08v.33l12.1 4.92 69.48 28.25Z"/>
  <circle cx="178.64" cy="136.556" r="19" stroke="#fff"/>
  <circle cx="231.78" cy="133.556" r="19" stroke="#fff"/>
  <path stroke="#fff" d="m197.64 136.556 15.14-1.3"/>
  <path fill="#fff" d="M177.22 178.036a1.869 1.869 0 0 1 2.69-.5c2.07 1.46 5.88 4.56 11.28 5.63 7.36 1.47 13.74-1.48 15.27.42.86 1.07-.19 2.38-2.2 4.05a19.752 19.752 0 0 1-14.86 3.69c-7.08-1.33-12.4-9.53-12.4-12.44.002-.297.077-.589.22-.85Z"/>
  <ellipse cx="174.165" cy="136.379" fill="#00214E" rx="3.27" ry="7.94" transform="rotate(-85.77 174.165 136.379)"/>
  <ellipse cx="225.678" cy="134.757" fill="#00214E" rx="7.94" ry="3.27" transform="rotate(-8.86 225.678 134.757)"/>
  <defs>
    <linearGradient id="a" x1="202.931" x2="321.113" y1="206.383" y2="59.829" gradientUnits="userSpaceOnUse">
      <stop stop-color="#16243F"/>
      <stop offset="1" stop-color="#6878B1"/>
    </linearGradient>
    <linearGradient id="b" x1="215.74" x2="285.44" y1="155.584" y2="155.584" gradientUnits="userSpaceOnUse">
      <stop stop-color="#16243F"/>
      <stop offset="1" stop-color="#6878B1"/>
    </linearGradient>
  </defs>
</svg>
