<svg xmlns="http://www.w3.org/2000/svg" width="340" height="340" fill="none" viewBox="0 0 340 340">
  <path fill="url(#a)" d="M265.84 118.88c0 7.88-8.9 14.48-10.84 21.74-2 7.51 2.34 17.66-1.47 24.24-3.81 6.58-14.86 8-20.28 13.38-5.42 5.38-6.7 16.42-13.37 20.28-6.67 3.86-16.7-.52-24.25 1.48-7.26 1.94-13.86 10.84-21.73 10.84-7.87 0-14.47-8.92-21.72-10.84-7.51-2-17.66 2.34-24.24-1.46-6.58-3.8-8-14.87-13.37-20.28-5.37-5.41-16.42-6.71-20.28-13.38-3.86-6.67.54-16.73-1.47-24.24-1.94-7.26-10.84-13.86-10.84-21.74 0-7.88 8.9-14.47 10.84-21.73 2-7.51-2.34-17.67 1.47-24.24 3.81-6.57 14.89-7.93 20.26-13.4 5.37-5.47 6.7-16.42 13.37-20.28 6.67-3.86 16.73.54 24.25-1.46C159.43 35.84 166.03 27 173.9 27c7.87 0 14.47 8.89 21.73 10.84 7.52 2 17.67-2.34 24.25 1.46 6.58 3.8 8 14.87 13.37 20.28 5.37 5.41 16.42 6.7 20.28 13.38 3.86 6.68-.54 16.73 1.47 24.24 1.94 7.21 10.84 13.8 10.84 21.68Z"/>
  <path fill="#E18477" d="M283.48 275c-66.848 51.471-160.089 51.06-226.48-1l48.66-22.81a46.787 46.787 0 0 0 6.65-3.82c.64-.44 1.28-.9 1.89-1.38a46.346 46.346 0 0 0 12.78-15.09 44.697 44.697 0 0 0 4.64-14.48c.488-3.281.736-6.593.74-9.91 0-5.72-.31-11.44-.37-17.17-.04-3.173-.073-6.343-.1-9.51l2 1 5.2 2.69 2.41.41 27.88 4.74 31.1 5.33.94 32 .31 10.46.15 5.08v.33l12.1 4.92 69.5 28.21Z"/>
  <path fill="#845161" d="M283.48 275c-66.848 51.471-160.089 51.06-226.48-1l48.66-22.81a46.787 46.787 0 0 0 6.65-3.82c.64-.44 1.28-.9 1.89-1.38 23.55 16.76 55.69 27.33 83.49 14.82 6.62-3 12.7-7.84 16.3-14.06L283.48 275Z"/>
  <path fill="#A76962" d="M201.87 241.52c-10.45.63-22.13-2.07-33-8.34-20.41-11.79-31.32-32.35-27.4-49.21l27.88 4.74 31.12 5.3.94 32 .46 15.51Z"/>
  <circle cx="122.05" cy="151.85" r="17" fill="#E18477"/>
  <circle cx="127.44" cy="151.85" r="15.22" fill="#A76962"/>
  <path fill="#E18477" d="M128.06 136.69c.22 2.6.08 5.2.28 7.81l1.65 21.5 1.51 19.72c.56 7.27 3.39 11.62 8.12 17.43a85.152 85.152 0 0 0 31.26 23.92c11.59 5.17 27.68 10.31 40.05 5.3 12.65-5.13 16.69-19.33 20.95-31.11 4.26-11.78 8.21-24.74 8-37.46-.27-17.26-4.84-26.93-4.84-26.93 1.1-6.667 2.207-13.313 3.32-19.94 1.25-7.51 2.86-15.36 1-22.91-.77-3.12-2.92-8.17-5.24-10.4-1.45-1.39-3.75-2.12-5.53-1.18-1.3.68-2 2.07-3 3.19a9.67 9.67 0 0 1-9.37 3c-4.53-1.07-9.28-7.21-14.15-5.76-4.87 1.45-4.89 8.19-5.33 12.13a24.091 24.091 0 0 1-4.95 12.59 15.3 15.3 0 0 1-11.9 5.81c-3.31-.1-6.44-1.48-9.7-2.1-3.26-.62-7.1-.27-9.16 2.33-3.15 4-.17 9.9-1.49 14.77-1.32 4.87-7 7.69-12.14 8-6.45.44-12.77-1.25-19.25-.56h-.17c.03.32.06.58.08.85Z"/>
  <path stroke="#00214E" d="M156.18 129.1a80.34 80.34 0 0 1 28.13-.8m34.45-.16a55.692 55.692 0 0 1 17.42-1.21M165 189a39.716 39.716 0 0 1 15.25-14.42m2.66-30.28a11.54 11.54 0 0 1-7 9.29 23.731 23.731 0 0 1-6.42 1.38m14.78-43.06h31.61m-35.63 6.53h31.6m3.88 23.56a34.606 34.606 0 0 0 3.74 7.23 10.13 10.13 0 0 0 6.25 4"/>
  <path fill="#fff" d="M177.06 185.5a1.851 1.851 0 0 1 2.68-.51c2.07 1.47 5.88 4.56 11.28 5.64 7.36 1.46 13.74-1.48 15.27.42.86 1.07-.19 2.37-2.2 4a19.748 19.748 0 0 1-14.86 3.68c-7.08-1.32-12.4-9.53-12.4-12.43a1.67 1.67 0 0 1 .23-.8Z"/>
  <path stroke="#00214E" d="M206.54 139.15c.28 3.884.95 7.73 2 11.48 1 3.31 2.52 5.37 4.52 8.22a17.798 17.798 0 0 1 1.79 3c2.65 5.94-.86 12.52-7.54 12.52h-4.13m-13.34-7.03a3.41 3.41 0 0 0 2.11 6.39"/>
  <path fill="#00214E" d="M175.18 139c6.1-.07 6.28 9.25.18 9.42h-.27c-6.1.07-6.28-9.25-.18-9.42h.27Zm50.23-1.64c5.66-.06 5.83 8.59.17 8.74h-.26c-5.66.06-5.83-8.59-.16-8.75h.25v.01Z"/>
  <defs>
    <linearGradient id="a" x1="81.96" x2="265.84" y1="210.81" y2="210.81" gradientUnits="userSpaceOnUse">
      <stop stop-color="#16243F"/>
      <stop offset="1" stop-color="#6878B1"/>
    </linearGradient>
  </defs>
</svg>
