<svg xmlns="http://www.w3.org/2000/svg" width="340" height="340" fill="none" viewBox="0 0 340 340">
  <path fill="url(#a)" d="M237.41 147.913a35.984 35.984 0 0 1-5.09 4.41c-10.4 7.53-24.28 10-36.14 14.06-5 1.71-59.22 17.12-59.22 20.47 0-.73-5.31-6-12-12.4-23.096-22.086-30.812-55.808-19.62-85.74 10.91-28.67 45.69-48.43 74.82-53 13.89-2.16 30.35-3.37 43.18 3.26 6.55 3.41 12.05 8.38 17 13.89 1.56 1.74 3.073 3.516 4.54 5.33.63.76 1.25 1.52 1.86 2.29 22.79 28.61 14.72 62.16-9.33 87.43Z"/>
  <path fill="url(#b)" d="M237.41 147.913a35.984 35.984 0 0 1-5.09 4.41 22.524 22.524 0 0 1-1.15-2.3c-2.64-6-4-12.51-5-19a275.965 275.965 0 0 1-3.17-28.53c-.91-15.34-7.46-23 5.57-34.91a42.997 42.997 0 0 1 16.35-9.38c.63.76 1.25 1.52 1.86 2.29 22.75 28.6 14.68 62.15-9.37 87.42Z"/>
  <path fill="#E18477" d="M283.48 268.273c-66.848 51.471-160.089 51.059-226.48-1l48.66-22.81a46.883 46.883 0 0 0 6.65-3.82c.64-.44 1.28-.9 1.89-1.38a46.366 46.366 0 0 0 12.78-15.09 44.705 44.705 0 0 0 4.64-14.48c.488-3.281.736-6.593.74-9.91 0-5.72-.31-11.44-.37-17.17-.04-3.167-.073-6.337-.1-9.51l2 1 5.2 2.69 2.41.41 27.84 4.77 31.12 5.3.94 32 .31 10.46.15 5.08v.33l12.1 4.92 69.52 28.21Z"/>
  <path fill="url(#c)" d="M283.48 268.273c-66.848 51.471-160.089 51.059-226.48-1l48.66-22.81a46.883 46.883 0 0 0 6.65-3.82c.64-.44 1.28-.9 1.89-1.38 23.55 16.76 55.69 27.33 83.49 14.82 6.62-3 12.7-7.84 16.3-14.06l69.49 28.25Z"/>
  <path fill="#A76962" d="M201.87 234.763c-10.45.63-22.13-2.07-33-8.34-20.41-11.79-31.32-32.35-27.4-49.21l27.87 4.76 31.12 5.3.94 32 .47 15.49Z"/>
  <circle cx="122.05" cy="145.093" r="17" fill="#E18477"/>
  <circle cx="127.44" cy="145.093" r="15.22" fill="#A76962"/>
  <path fill="#E18477" d="M128.06 129.973c.22 2.6.08 5.2.28 7.81.553 7.16 1.1 14.32 1.64 21.48l1.52 19.71c.56 7.26 3.39 11.61 8.12 17.42a85.01 85.01 0 0 0 31.26 23.92c11.59 5.17 27.68 10.32 40.05 5.3 12.65-5.13 16.69-19.33 20.95-31.11 4.26-11.78 8.21-24.73 8-37.45-.27-17.26-4.84-26.94-4.84-26.94 1.1-6.667 2.207-13.314 3.32-19.94 1.25-7.51 2.86-15.35 1-22.9-1.35-5.51-5-9.34-8.78-13.29-4.69-4.83-7-4.66-13.64-2.78a53.71 53.71 0 0 0-28.6 20.25c-7 9.66-11.1 21.65-20.34 29.18-6.35 5.18-14.24 7.32-22.27 8-2.91.348-5.847.412-8.77.19a62.139 62.139 0 0 0-8.85.35h-.17c.07.23.1.5.12.8Z"/>
  <path stroke="#00214E" d="M156.17 122.343a80.556 80.556 0 0 1 28.13-.8m34.46-.15a55.082 55.082 0 0 1 17.46-1.21M165 182.222a39.803 39.803 0 0 1 15.25-14.42m4.02-62.649h31.61m-35.63 6.529h31.6m-28.37 27.391a11.663 11.663 0 0 1-7 9.3 24.053 24.053 0 0 1-6.41 1.37m46.27-12.951a34.75 34.75 0 0 0 3.7 7.18 10.141 10.141 0 0 0 6.24 4"/>
  <path fill="#00214E" d="M212.96 158.163c.47.75.9 1.51 1.3 2.3.447.746.749 1.571.89 2.43a2.059 2.059 0 0 1-2.41 2.08c-.62-.13-.89.83-.26 1a3.102 3.102 0 0 0 3.64-2.45 5.197 5.197 0 0 0-.7-2.95 27.601 27.601 0 0 0-1.6-2.93c-.34-.54-1.21 0-.86.51v.01Zm-16.72 1.17c-.85 1.36-1.85 3.06-1.37 4.73.4 1.36 1.84 2.62 3.31 2.09.6-.22.34-1.19-.26-1-1.05.38-2-.68-2.14-1.64-.22-1.32.66-2.65 1.33-3.71.34-.55-.53-1.05-.87-.5v.03Z"/>
  <path fill="#fff" d="M177.05 178.743a1.856 1.856 0 0 1 2.69-.5c2.07 1.46 5.88 4.56 11.28 5.63 7.36 1.47 13.74-1.48 15.27.42.86 1.07-.19 2.37-2.21 4.05a19.772 19.772 0 0 1-14.85 3.69c-7.08-1.33-12.4-9.53-12.4-12.44 0-.298.076-.59.22-.85Z"/>
  <ellipse cx="174.356" cy="137.647" fill="#00214E" rx="3.27" ry="7.94" transform="rotate(-85.77 174.356 137.647)"/>
  <ellipse cx="225.859" cy="136.011" fill="#00214E" rx="7.94" ry="3.27" transform="rotate(-8.86 225.859 136.011)"/>
  <defs>
    <linearGradient id="a" x1="100.26" x2="260.24" y1="186.869" y2="186.869" gradientUnits="userSpaceOnUse">
      <stop stop-color="#16243F"/>
      <stop offset="1" stop-color="#6878B1"/>
    </linearGradient>
    <linearGradient id="b" x1="194.489" x2="261.555" y1="120.108" y2="139.116" gradientUnits="userSpaceOnUse">
      <stop stop-color="#16243F"/>
      <stop offset="1" stop-color="#6878B1"/>
    </linearGradient>
    <linearGradient id="c" x1="57" x2="283.48" y1="306.591" y2="306.591" gradientUnits="userSpaceOnUse">
      <stop stop-color="#16243F"/>
      <stop offset="1" stop-color="#6878B1"/>
    </linearGradient>
  </defs>
</svg>
