<svg xmlns="http://www.w3.org/2000/svg" width="340" height="340" fill="none" viewBox="0 0 340 340">
  <path fill="#00214E" d="M265.55 111.94c0 7.87-8.9 14.47-10.84 21.73-2 7.52 2.34 17.67-1.46 24.25-3.8 6.58-14.87 8-20.28 13.37-5.41 5.37-6.71 16.42-13.38 20.28-6.67 3.86-16.73-.54-24.24 1.47-7.26 1.94-13.86 10.84-21.74 10.84-7.88 0-14.47-8.9-21.73-10.84-7.51-2-17.67 2.34-24.24-1.47-6.57-3.81-8-14.86-13.38-20.28-5.38-5.42-16.42-6.7-20.28-13.37-3.86-6.67.54-16.73-1.46-24.25-1.94-7.26-10.84-13.86-10.84-21.73 0-7.87 8.9-14.47 10.84-21.73 2-7.52-2.34-17.67 1.46-24.25 3.8-6.58 14.87-8 20.28-13.37 5.41-5.37 6.7-16.42 13.38-20.28 6.68-3.86 16.73.54 24.24-1.47C159.14 28.9 165.74 20 173.61 20c7.87 0 14.48 8.9 21.74 10.84 7.51 2 17.66-2.34 24.24 1.47 6.58 3.81 8 14.86 13.38 20.28 5.38 5.42 16.42 6.7 20.28 13.37 3.86 6.67-.55 16.73 1.46 24.25 1.94 7.26 10.84 13.86 10.84 21.73Z"/>
  <circle cx="121.89" cy="157.66" r="17" fill="#E18477"/>
  <circle cx="127.75" cy="156.66" r="16" fill="#A76962"/>
  <path fill="#E18477" d="M283.48 280.84c-66.848 51.471-160.089 51.06-226.48-1l48.66-22.81a46.787 46.787 0 0 0 6.65-3.82c.64-.44 1.28-.9 1.89-1.38a46.346 46.346 0 0 0 12.78-15.09c4-7.55 5.32-15.89 5.38-24.39 0-5.72-.31-11.44-.37-17.17-.04-3.167-.073-6.337-.1-9.51l2 1 5.18 2.74 2.41.41 27.88 4.74 31.12 5.3.94 32 .46 15.54v.33l12.1 4.92 69.5 28.19Z"/>
  <path fill="#A76962" d="m201.76 243.79-1.54.16a51.49 51.49 0 0 1-40.67-14.65l-27.38-31.41c-.09-2.9-.2-1.1-.23-4-.04-3.167-.073-6.337-.1-9.51l2 1 5.2 2.69 2.41.41 27.88 4.74 31.12 5.3.94 32 .37 13.27Z"/>
  <path fill="#E18477" d="M127 123.06c-.79 1-1.49 2.95-2.24 6.11-1.73 7.33 5.85 55.46 7.3 69.62l36.42 26.86a51.508 51.508 0 0 0 42.29 8.94c5.87-1.39 9.59-2.29 12.24-7 5.12-9 17.69-39.79 18.51-61.51.23-6.16.08-15.56-3.72-20.82-1.85-2.55-2.8-2.6-2.13-6.21.67-3.61 1.68-7.47 2.51-11.21 2.29-10.33 4.12-22 .81-32.28-1.76-5.5-4.87-9.14-9.29-12.67-4.72-3.78-6.67-3.6-9.5 2-1.91 3.8-3.83 7-7.7 9.16-5.61 3.11-9.43 1.09-15 .66-4.88-.37-4.36 3.4-5.43 7a16.873 16.873 0 0 1-6.77 9.25 18.53 18.53 0 0 1-20 .11 4.755 4.755 0 0 0-2.85-.89c-3.34.18-3.49 4.19-4.25 7.07-1.61 6-8.62 9.32-14.85 8.84-10.16-.76-13.78-6.42-16.35-3.03Z"/>
  <path stroke="#00214E" d="M207.26 140.95a57.316 57.316 0 0 0 2 11.48c1 3.31 2.52 5.37 4.52 8.22a18.33 18.33 0 0 1 1.79 3c2.64 5.94-.87 12.53-7.55 12.53h-4.13m-25.66 9.8a29.832 29.832 0 0 0 18.54 9.69m-37.21-65.84a80.58 80.58 0 0 1 28.13-.79m30.92.9a54.997 54.997 0 0 1 17.46-1.21"/>
  <path fill="url(#a)" d="M283.48 280.84c-66.848 51.471-160.089 51.06-226.48-1l48.66-22.81a46.787 46.787 0 0 0 6.65-3.82c.64-.44 1.28-.9 1.89-1.38 23.55 16.76 55.69 27.33 83.49 14.82 6.62-3 12.7-7.84 16.3-14.06l69.49 28.25Z"/>
  <path stroke="#00214E" d="M190.56 169.14a3.41 3.41 0 0 0 2.11 6.39"/>
  <path fill="#00214E" d="M174.24 139.34c6.11 0 6.11 9.38 0 9.43h-.27c-6.1-.05-6.1-9.38 0-9.43h.27Zm50.27-.66c5.66 0 5.66 8.7 0 8.75h-.26c-5.66-.05-5.66-8.7 0-8.75h.26Z"/>
  <circle cx="121.85" cy="156.66" r="6.01" fill="#F2D4CF"/>
  <path fill="#F2D4CF" d="M110.46 171.13c-.38-.06-.76-.13-1.14-.22a14.55 14.55 0 0 1 3.3-28.73.92.92 0 0 1 .42 1.74 14.56 14.56 0 0 0-1.59 24.62 1.429 1.429 0 0 1-.99 2.59Z"/>
  <path stroke="#F2D4CF" stroke-width="2" d="M110.13 143.76a8.76 8.76 0 0 1 6.42.07 8.402 8.402 0 0 1 4.58 5.09 12.9 12.9 0 0 1 .72 5"/>
  <defs>
    <linearGradient id="a" x1="57" x2="283.48" y1="319.158" y2="319.158" gradientUnits="userSpaceOnUse">
      <stop stop-color="#315676"/>
      <stop offset="1" stop-color="#E1B9E0"/>
    </linearGradient>
  </defs>
</svg>
