<svg xmlns="http://www.w3.org/2000/svg" width="340" height="340" fill="none" viewBox="0 0 340 340">
  <circle cx="160.56" cy="50.67" r="30.67" fill="url(#a)"/>
  <path fill="url(#b)" d="M187.06 217.11a324.505 324.505 0 0 1-47.8-4.38c-31.48-5.26-62.3-15.31-90.26-30.8-1.66-.93-3.32-1.87-5-2.83 24.79-23.53 43.19-52 58.74-82.2 11.2-21.79 17-36.16 41.19-45.33 42.06-15.93 98.88-.44 110.84 46.88 5.05 20 5.24 40.91 2.37 61.26-2.77 19.68-10.06 57.58-10.06 57.58s-52.17-.04-60.02-.18Z"/>
  <path fill="#F2A196" d="M296.69 281.11c-66.848 51.471-160.089 51.06-226.48-1l48.66-22.81a47.625 47.625 0 0 0 4.35-2.34l1.12-.7c.4-.25.79-.51 1.18-.78A46.537 46.537 0 0 0 140.19 237c4-7.55 5.32-15.89 5.38-24.39 0-4.67-.19-9.34-.31-14 0-1.053-.02-2.103-.06-3.15-.04-3.173-.073-6.343-.1-9.51h.07l1.91 1 5.2 2.69 30.29 5.15 31.12 5.3.71 24 .2 6.88v1.07l.47 15.87 11.47 4.67 9 3.64 61.15 24.89Z"/>
  <path fill="#E88870" d="M214.4 224.11a12.12 12.12 0 0 1-7.34 2.11c-14.79-1.59-43.64-13.18-61.8-34.63 0-1.053-.02-2.103-.06-3.15v-2.47l1.91 1 5.2 2.69 30.29 5.15 31.12 5.3.68 24Z"/>
  <circle cx="120.09" cy="153.93" r="17" fill="#F2A196"/>
  <circle cx="126.09" cy="151.93" r="17" fill="#E88870"/>
  <path fill="#F2A196" d="M235.63 128.19c11.75 40.68-13.2 89.87-28.54 89.87-21 0-72-16.78-83.73-57.46-11.73-40.68 3.83-80.92 34.83-89.87 31-8.95 65.7 16.81 77.44 57.46Z"/>
  <path fill="#00214E" d="M172.47 136.64c6.1.05 6.1 9.37 0 9.42h-.28c-6.1-.05-6.1-9.37 0-9.42h.28Zm50.26-3.84c5.67.05 5.67 8.7 0 8.75h-.25c-5.66 0-5.66-8.7 0-8.75h.25Z"/>
  <circle cx="172.46" cy="141.43" r="19" stroke="#fff"/>
  <circle cx="225.59" cy="138.43" r="19" stroke="#fff"/>
  <path fill="url(#c)" d="M196.93 74.1c-4.31 18.7-13.7 34.58-30.86 46.15-18.52 12.82-38.07 19-59.4 23.25.54-13.11-.9-31.55 5.86-43.24a79.477 79.477 0 0 1 32.31-30.36c14.81-7.65 37.72-15.15 54.36-9.85a113.855 113.855 0 0 1-2.27 14.05Z"/>
  <path stroke="#00214E" d="M198.67 130.09c-.08.34 7.92 32.34 7.92 32.34h-12.5m16.04-42.55a31.079 31.079 0 0 1 22.85-2.16m-77.96 5.82a36.749 36.749 0 0 1 31.23-1"/>
  <path stroke="#fff" d="m191.46 141.43 15.13-1.29"/>
  <path fill="#845161" d="M296.68 281.11c-66.848 51.471-160.089 51.06-226.48-1l48.66-22.81a46.842 46.842 0 0 0 6.65-3.82c.64-.44 1.28-.9 1.89-1.38a46.354 46.354 0 0 0 12.79-15.1 44.68 44.68 0 0 0 4.63-14.46 28.616 28.616 0 0 0 2.22 1.94 95.112 95.112 0 0 0 19.82 11.26 99.207 99.207 0 0 0 10.46 3.69 93.529 93.529 0 0 0 33 3.49c1.54-.12 3.09-.27 4.63-.38l.15 5.08v.33l12.1 4.92 69.48 28.24Z"/>
  <path fill="#fff" d="M172.68 173.72a1.869 1.869 0 0 1 2.69-.5c2.07 1.46 5.87 4.56 11.27 5.63 7.36 1.47 13.75-1.48 15.27.42.86 1.07-.19 2.38-2.2 4.05a19.718 19.718 0 0 1-14.85 3.69c-7.09-1.33-12.4-9.53-12.4-12.44a1.687 1.687 0 0 1 .22-.85Z"/>
  <defs>
    <linearGradient id="a" x1="129.89" x2="191.24" y1="81.345" y2="81.345" gradientUnits="userSpaceOnUse">
      <stop stop-color="#16243F"/>
      <stop offset="1" stop-color="#6878B1"/>
    </linearGradient>
    <linearGradient id="b" x1="176.304" x2="267.687" y1="280.073" y2="133.622" gradientUnits="userSpaceOnUse">
      <stop stop-color="#16243F"/>
      <stop offset="1" stop-color="#6878B1"/>
    </linearGradient>
    <linearGradient id="c" x1="138.183" x2="183.449" y1="172.524" y2="110.567" gradientUnits="userSpaceOnUse">
      <stop stop-color="#16243F"/>
      <stop offset="1" stop-color="#6878B1"/>
    </linearGradient>
  </defs>
</svg>
