<svg xmlns="http://www.w3.org/2000/svg" width="340" height="340" fill="none" viewBox="0 0 340 340">
  <path fill="url(#a)" d="M237.42 147.919a35.92 35.92 0 0 1-5.09 4.41c-10.4 7.53-24.28 10-36.14 14.06-5 1.71-59.22 17.12-59.22 20.47 0-.73-5.31-6-12-12.4-23.074-22.1-30.767-55.82-19.56-85.74 10.91-28.67 45.69-48.43 74.82-53 13.87-2.17 30.33-3.38 43.14 3.27 6.55 3.41 12.05 8.38 17 13.89 1.56 1.74 3.073 3.517 4.54 5.33.63.76 1.25 1.52 1.86 2.29 22.77 28.63 14.7 62.15-9.35 87.42Z"/>
  <path fill="url(#b)" d="M237.42 147.919a35.92 35.92 0 0 1-5.09 4.41 22.421 22.421 0 0 1-1.15-2.3c-2.64-6-4-12.51-5-19a275.904 275.904 0 0 1-3.17-28.53c-.91-15.34-7.46-22.95 5.57-34.91a42.997 42.997 0 0 1 16.35-9.38c.63.76 1.25 1.52 1.86 2.29 22.75 28.63 14.68 62.15-9.37 87.42Z"/>
  <path fill="#E18477" d="M283.48 268.279c-66.848 51.471-160.089 51.06-226.48-1l48.66-22.81a46.842 46.842 0 0 0 6.65-3.82c.64-.44 1.28-.9 1.89-1.38a46.348 46.348 0 0 0 12.78-15.14 44.697 44.697 0 0 0 4.64-14.48c.488-3.281.736-6.593.74-9.91 0-5.72-.31-11.44-.37-17.17-.04-3.167-.073-6.337-.1-9.51l2 1 5.2 2.69 2.41.41 27.88 4.74 31.12 5.3.94 32 .31 10.46.15 5.08v.39l12.1 4.92 69.48 28.23Z"/>
  <path fill="url(#c)" d="M283.48 268.279c-66.848 51.471-160.089 51.06-226.48-1l48.66-22.81a46.842 46.842 0 0 0 6.65-3.82c.64-.44 1.28-.9 1.89-1.38 23.55 16.76 55.69 27.33 83.49 14.82 6.62-3 12.7-7.84 16.3-14.06l69.49 28.25Z"/>
  <path fill="#A76962" d="M201.88 234.769c-10.45.63-22.13-2.07-33-8.34-20.41-11.79-31.32-32.35-27.4-49.21l27.88 4.74 31.12 5.3.94 32 .46 15.51Z"/>
  <circle cx="122.05" cy="145.099" r="17" fill="#E18477"/>
  <circle cx="127.45" cy="145.099" r="15.22" fill="#A76962"/>
  <path fill="#E18477" d="M128.07 129.939c.22 2.6.07 5.2.27 7.81l1.65 21.48 1.51 19.72c.56 7.27 3.4 11.62 8.12 17.43a85.152 85.152 0 0 0 31.26 23.92c11.6 5.17 27.68 10.31 40.06 5.3 12.65-5.13 16.69-19.33 20.95-31.11 4.26-11.78 8.2-24.74 8-37.46-.27-17.26-4.82-26.9-4.82-26.9l3.33-20c1.25-7.5 2.86-15.35 1-22.9-1.36-5.5-5-9.34-8.79-13.28-4.68-4.83-7-4.67-13.63-2.79a53.777 53.777 0 0 0-28.57 20.27c-6.99 9.7-11.13 21.7-20.34 29.2-6.36 5.19-14.24 7.32-22.28 8a44.22 44.22 0 0 1-8.76.18 63.804 63.804 0 0 0-8.85.36h-.17c.06.24.06.5.06.77Z"/>
  <path stroke="#00214E" d="M202.2 128.899c-.08.35 13.36 38.47 13.36 38.47l-17.94.88m-41.44-45.91a80.58 80.58 0 0 1 28.13-.79m34.46-.16a55.643 55.643 0 0 1 17.45-1.21m-71.21 62.05a39.617 39.617 0 0 1 15.24-14.42m2.67-30.27a11.64 11.64 0 0 1-5.18 8.33c-.586.387-1.205.721-1.85 1a23.187 23.187 0 0 1-6.41 1.37m14.8-43.08h31.6m-35.63 6.53h31.61m3.88 23.57a34.653 34.653 0 0 0 3.74 7.23 10.083 10.083 0 0 0 6.24 4"/>
  <path fill="#fff" d="M177.07 178.739a1.863 1.863 0 0 1 2.68-.5c2.08 1.46 5.88 4.56 11.28 5.64 7.36 1.46 13.75-1.48 15.27.42.86 1.06-.19 2.37-2.2 4.05a19.738 19.738 0 0 1-14.86 3.68c-7.08-1.32-12.39-9.53-12.39-12.43a1.727 1.727 0 0 1 .22-.86Z"/>
  <path fill="#00214E" d="M174.37 132.439c6.11-.07 6.29 9.26.19 9.43h-.28c-6.1.07-6.28-9.25-.18-9.42h.27v-.01Zm50.24-1.63c5.67-.07 5.83 8.59.17 8.74h-.25c-5.66.06-5.83-8.59-.17-8.75h.25v.01Z"/>
  <defs>
    <linearGradient id="a" x1="100.27" x2="260.24" y1="186.883" y2="186.883" gradientUnits="userSpaceOnUse">
      <stop stop-color="#16243F"/>
      <stop offset="1" stop-color="#6878B1"/>
    </linearGradient>
    <linearGradient id="b" x1="194.488" x2="261.554" y1="120.104" y2="139.112" gradientUnits="userSpaceOnUse">
      <stop stop-color="#16243F"/>
      <stop offset="1" stop-color="#6878B1"/>
    </linearGradient>
    <linearGradient id="c" x1="57" x2="283.48" y1="306.597" y2="306.597" gradientUnits="userSpaceOnUse">
      <stop stop-color="#16243F"/>
      <stop offset="1" stop-color="#6878B1"/>
    </linearGradient>
  </defs>
</svg>
