<svg xmlns="http://www.w3.org/2000/svg" width="340" height="340" fill="none" viewBox="0 0 340 340">
  <path fill="#F2A196" d="M283.48 278.333c-66.848 51.471-160.089 51.06-226.48-1l48.66-22.81a46.787 46.787 0 0 0 6.65-3.82c.64-.44 1.28-.9 1.89-1.38a46.346 46.346 0 0 0 12.78-15.09 44.697 44.697 0 0 0 4.64-14.48c.488-3.281.736-6.593.74-9.91 0-5.72-.31-11.44-.37-17.17-.04-3.167-.073-6.337-.1-9.51l2 1 5.2 2.69 2.41.41 27.88 4.74 31.12 5.3.94 32 .31 10.46.15 5.08v.31l12.1 4.92 69.48 28.26Z"/>
  <path fill="#E88870" d="M201.78 242.783a16 16 0 0 1-10.07-1.56l-59.64-48.78c-.07-2.26-.13.11-.16-2.15-.04-3.167-.073-6.337-.1-9.51l2 1 5.2 2.69 2.41.41 27.88 4.74 31.12 5.3.94 32 .31 10.46.15 5.08v.33l-.04-.01Z"/>
  <path fill="#FF2609" d="M283.48 278.333c-66.848 51.471-160.089 51.06-226.48-1l48.66-22.81a46.787 46.787 0 0 0 6.65-3.82c.64-.44 1.28-.9 1.89-1.38 23.55 16.76 55.69 27.33 83.49 14.82 6.62-3 12.7-7.84 16.3-14.06l69.49 28.25Z"/>
  <path fill="#F2D4CF" d="M265.58 78.053c-.09.59-.2 1.17-.33 1.75a32.08 32.08 0 0 1-3.31 8.49l-.08.14c-.57 1-1.18 2-1.84 3a74.377 74.377 0 0 1-5.72 7.35l-1.23 1.37c-.83.93-1.67 1.84-2.51 2.74a6.287 6.287 0 0 1 1.93-.11c.24.02.477.06.71.12 3.19.66 5.92 3.63 6.77 7 .05.22.1.45.14.67.79 4.48-1 9-3.21 13-3.87 7.08-9.45 11.79-14.36 17.94-3.68 4.58-5.72 10-9.73 14.38l-.3.33-.24.24c-10.6 10.92-27.17 13.51-41 18.23-5 1.72-59.22 17.12-59.22 20.48 0-.73-5.31-6-12-12.41-24-22.79-31.89-58-17.61-88.2 15.35-32.5 50.21-55.69 83.41-66.83 10.38-3.48 22.16-5.82 32-1s14.74 19.77 6.58 27.07a26.16 26.16 0 0 1 17.93-5.21 24.461 24.461 0 0 1 15.72 7.07 26.83 26.83 0 0 1 5.58 8.18 28.623 28.623 0 0 1 1.37 3.9c.9 3.36 1.088 6.873.55 10.31Z"/>
  <path fill="#DAAEA8" d="M265.58 78.053c-.09.59-.2 1.17-.33 1.75a32.078 32.078 0 0 1-3.31 8.49l-.08.14c-.57 1-1.18 2-1.84 3a74.215 74.215 0 0 1-5.72 7.35l-1.23 1.37c-.83.93-1.67 1.84-2.51 2.74a6.287 6.287 0 0 1 1.93-.11c.24.02.477.06.71.12 3.19.66 5.92 3.63 6.77 7 .05.22.1.45.14.67.79 4.48-1 9-3.21 13-3.87 7.08-9.45 11.79-14.36 17.94-3.68 4.58-5.72 10-9.73 14.38l-.3.33-.24.24a39.307 39.307 0 0 1-7.44-18.45c-1.71-13.84-.67-28.92-1.14-42.93-.16-4.89-.45-10.72 1.12-15.36a14.347 14.347 0 0 1 1.71-3.24 59.452 59.452 0 0 1 6.27-8.37 22.002 22.002 0 0 1 9.68-6 32.538 32.538 0 0 1 6.11-1.12 28.377 28.377 0 0 1 6.64.13 24.998 24.998 0 0 1 8.38 2.77 28.628 28.628 0 0 1 1.37 3.9 24.935 24.935 0 0 1 .61 10.26Z"/>
  <circle cx="122.05" cy="155.153" r="17" fill="#F2A196"/>
  <circle cx="127.45" cy="155.153" r="15.22" fill="#E88870"/>
  <path fill="#F2A196" d="m127.67 139.153 4.4 57 66.44 38.82c9.522 3.557 20.189-.691 24.66-9.82 9.56-19.58 24.9-50.49 22.88-62-3-17-11-23-11-23l3.33-19.94c1.25-7.51 2.86-15.35 1-22.9-2.13-8.65-8.67-12.35-14.05-18.82-14.16 18.24-37.44 28.55-57.77 39-10.49 5.44-39.89 21.66-39.89 21.66Z"/>
  <path stroke="#00214E" d="M202.2 134.253c-.08.34 13.36 36.12 13.36 36.12l-17.94.88m-37.9-43.93a80.556 80.556 0 0 1 28.13-.79m30.92.9a55.643 55.643 0 0 1 17.45-1.21"/>
  <path fill="#fff" d="M179.24 181.253a1.86 1.86 0 0 1 2.68-.5c2.08 1.46 5.88 4.56 11.28 5.63 7.36 1.47 13.74-1.48 15.27.42.86 1.07-.19 2.38-2.2 4a19.693 19.693 0 0 1-14.86 3.69c-7.08-1.33-12.4-9.53-12.4-12.44a1.67 1.67 0 0 1 .23-.8Z"/>
  <path fill="#00214E" d="M176.6 138.793c6.1.05 6.1 9.37 0 9.42h-.28c-6.1-.05-6.1-9.37 0-9.42h.28Zm50.26-.64c5.66 0 5.66 8.7 0 8.74h-.25c-5.67 0-5.67-8.7 0-8.74h.25Z"/>
</svg>
