<svg xmlns="http://www.w3.org/2000/svg" width="340" height="340" fill="none" viewBox="0 0 340 340">
  <path fill="#F2A196" d="M283.3 262.689c-64.481 54.41-157.65 58.165-226.3 9.12l47.59-25a46.372 46.372 0 0 0 6.47-4.11c.62-.47 1.24-1 1.83-1.47a46.34 46.34 0 0 0 12.09-15.64 44.995 44.995 0 0 0 4-14.68c.337-3.299.434-6.618.29-9.93-.21-5.72-.82-11.41-1.13-17.14-.19-3.16-.36-6.33-.53-9.49l2 .93 5.32 2.45 2.43.3 28.06 3.49 31.33 3.9 2.37 31.9.77 10.43.38 5.07v.33l12.3 4.38 70.73 25.16Z"/>
  <path fill="url(#a)" d="M283.3 262.689c-64.481 54.41-157.65 58.165-226.3 9.12l47.59-25a46.372 46.372 0 0 0 6.47-4.11c.62-.47 1.24-1 1.83-1.47 24.29 15.69 56.86 24.85 84.07 11.11 6.48-3.26 12.34-8.4 15.65-14.77l70.69 25.12Z"/>
  <path fill="#E88870" d="M200.31 233.189c-10.42 1.1-22.23-1.4-33.37-7.18-20.92-10.87-32.74-30.92-29.58-47.94l28.06 3.49 31.33 3.9 2.37 31.9 1.19 15.83Z"/>
  <path fill="#F2D4CF" d="M245.89 67.839a41.258 41.258 0 0 1 4.72 16.83c1.16 21.15-10.28 42.15-23.42 57.95l-.28.34c-10.09 11.59-26.67 14.93-40.37 20.3-4.93 1.94-58.39 19.75-58.24 23.11 0-.73-5.57-5.78-12.58-11.86a79.785 79.785 0 0 1-25.39-42.19c-3.16-13.82-1.8-31.12 1.68-44.8 6.28-24.66 26.19-41.34 49.94-48.5 23-6.93 52.92-7.27 75.06 2.7 11.85 5.34 22.86 14.53 28.88 26.12Z"/>
  <circle cx="116.52" cy="146.859" r="17" fill="#F2A196"/>
  <circle cx="121.91" cy="146.609" r="15.22" fill="#E88870"/>
  <path fill="#F2A196" d="m121.42 130.569 3.66 30 2.4 19.64c.88 7.23 3.9 11.44 8.88 17a85.217 85.217 0 0 0 32.31 22.5c11.81 4.64 28.11 9.06 40.25 3.5 12.4-5.69 15.81-20.06 19.53-32 3.72-11.94 7.1-25.08 6.33-37.77-1-17.23-6-26.7-6-26.7l2.4-20c.91-7.55 2.17-15.46 0-22.92-2.52-8.55-9.21-12-14.87-18.17-13.34 18.85-36.13 30.19-56 41.58-10.25 5.87-38.89 23.34-38.89 23.34Z"/>
  <path stroke="#00214E" d="M195.86 127.089c-.06.35 15.07 37.84 15.07 37.84l-17.88 1.67m-43.46-44a80.638 80.638 0 0 1 28.07-2.05m34.42-1.7a55.105 55.105 0 0 1 17.38-2m-68.37 65.18a39.663 39.663 0 0 1 14.59-15.11m1.3-30.33a11.592 11.592 0 0 1-6.6 9.6 23.743 23.743 0 0 1-6.34 1.66"/>
  <path fill="#F2D4CF" d="M243.09 107.769c.74-11.39-.48-23.22-5.86-33.29a37.382 37.382 0 0 0-14.4-15c-4.35-2.44-14-6.49-18.43-2.38-9.16 8.43 11.4 28.88 16.64 34.05a102.935 102.935 0 0 0 22.05 16.62Z"/>
  <path stroke="#00214E" d="m176.89 104.169 31.58-1.41m-35.3 8.12 31.57-1.42m4.93 23.38a34.465 34.465 0 0 0 4.06 7.05 10.092 10.092 0 0 0 6.42 3.71"/>
  <path fill="#fff" d="M172.98 178.009a1.859 1.859 0 0 1 2.66-.62c2.13 1.36 6.07 4.29 11.51 5.12 7.42 1.13 13.67-2.09 15.28-.26.9 1-.09 2.38-2 4.14a19.767 19.767 0 0 1-14.68 4.35c-7.13-1-12.81-9-12.94-11.87a1.703 1.703 0 0 1 .17-.86Z"/>
  <path fill="#00214E" d="M166.52 130.919c6.09-.34 6.69 9 .6 9.41h-.27c-6.09.34-6.69-9-.61-9.41h.28Zm50.11-3.93c5.66-.32 6.21 8.32.56 8.73h-.25c-5.65.32-6.21-8.31-.56-8.72h.25v-.01Z"/>
  <defs>
    <linearGradient id="a" x1="73.923" x2="260.9" y1="311.773" y2="220.869" gradientUnits="userSpaceOnUse">
      <stop stop-color="#16243F"/>
      <stop offset="1" stop-color="#6878B1"/>
    </linearGradient>
  </defs>
</svg>
