<svg xmlns="http://www.w3.org/2000/svg" width="340" height="340" fill="none" viewBox="0 0 340 340">
  <path fill="#845161" d="M185.864 217.699c-10.4-.18-20.81-.68-31.62-1.34-13.47-.83-29.84 2.5-42.7-2.66-12.48-5-20.43-12.93-28.63-23-4.27-5.21-10.86-7.86-17.25-10-6.39-2.14-13.06-4.11-18.2-8.47-5.14-4.36-8.27-11.93-5.33-18 7.23-14.91 30.75-9.93 30.8-32.43 0-7.65-3.41-16.22 1.13-22.38a19.069 19.069 0 0 1 5.54-4.58c10.3-6.35 23.58-5.73 33.8-12 11.54-7.14 9.14-20.65 19.42-30.07a71.916 71.916 0 0 1 11.08-7.94c26.92-16.66 54.75-15.1 82.33.77 14.75 8.51 27.56 23.77 33.59 39.61 6.69 17.64-6.51 37.25 4.6 52.59 2.52 3.48 5.86 6.3 8.59 9.62 11.44 13.9-6.17 22.46-13.39 31.9-5.79 7.59-4.9 18.69-10.46 26.45-6.45 9-19 10.51-30.09 11.2-11.39.75-22.3.92-33.21.73Z"/>
  <path fill="#F2A196" d="M299.974 269.419c-66.848 51.472-160.089 51.06-226.48-1l48.66-22.81a47.363 47.363 0 0 0 4.35-2.34l1.12-.7c.4-.25.79-.51 1.18-.78a46.535 46.535 0 0 0 14.67-16.47c4-7.55 5.32-15.89 5.38-24.39 0-4.67-.19-9.34-.31-14 0-1.053-.02-2.103-.06-3.15-.04-3.166-.073-6.336-.1-9.51l2 1 5.2 2.69 30.29 5.15 31.12 5.3.91 30.9v1.07l.47 15.87 11.47 4.67 9 3.64 61.13 24.86Z"/>
  <path fill="#E88870" d="M217.884 212.299c-2.72 1.68-5.29 2.47-7.54 2.23-14.79-1.59-43.64-13.18-61.8-34.63 0-1.053-.02-2.103-.06-3.15-.04-3.166-.073-6.336-.1-9.51l2 1 5.2 2.69 30.29 5.15 31.12 5.3.89 30.92Z"/>
  <circle cx="123.384" cy="142.239" r="17" fill="#F2A196"/>
  <circle cx="129.384" cy="140.239" r="17" fill="#E88870"/>
  <path fill="#F2A196" d="M238.924 116.499c11.74 40.69-13.21 89.87-28.54 89.87-21 0-72-16.78-83.73-57.46-11.73-40.68 3.86-80.92 34.86-89.87 31-8.95 65.66 16.78 77.41 57.46Z"/>
  <path fill="#00214E" d="M175.764 124.949c6.1 0 6.1 9.38 0 9.42h-.28c-6.1 0-6.1-9.37 0-9.42h.28Zm50.26-3.84c5.66 0 5.66 8.7 0 8.75h-.26c-5.66-.05-5.66-8.7 0-8.75h.26Z"/>
  <circle cx="175.744" cy="129.739" r="19" stroke="#fff"/>
  <circle cx="228.884" cy="126.739" r="19" stroke="#fff"/>
  <path fill="#845161" d="M200.214 62.41c-4.3 18.71-13.69 34.59-30.86 46.149-18.51 12.82-38.07 19-59.39 23.26.54-13.11-.9-31.55 5.86-43.25a79.476 79.476 0 0 1 32.31-30.36c14.8-7.65 37.71-15.15 54.35-9.84a112.166 112.166 0 0 1-2.27 14.04Z"/>
  <path stroke="#00214E" d="M201.964 118.399c-.08.34 7.92 32.34 7.92 32.34h-12.5m16.04-42.53a31.082 31.082 0 0 1 22.89-2.18m-78 5.85a36.701 36.701 0 0 1 31.22-1"/>
  <path stroke="#fff" d="m194.744 129.739 15.14-1.29"/>
  <path fill="url(#a)" d="M299.974 269.419c-66.848 51.472-160.089 51.06-226.48-1l48.66-22.81a46.731 46.731 0 0 0 6.65-3.82c.64-.44 1.28-.9 1.89-1.38a46.346 46.346 0 0 0 12.78-15.09 44.666 44.666 0 0 0 4.64-14.48 28.405 28.405 0 0 0 2.22 1.94 95.138 95.138 0 0 0 19.82 11.26 98.757 98.757 0 0 0 10.46 3.69 93.483 93.483 0 0 0 33 3.49c1.54-.12 3.09-.27 4.63-.38l.15 5.08v.29l12.1 4.92 69.48 28.29Z"/>
  <path fill="#fff" d="M175.974 162.029a1.863 1.863 0 0 1 2.68-.5c2.08 1.46 5.88 4.56 11.28 5.64 7.36 1.46 13.74-1.48 15.27.41.86 1.07-.19 2.38-2.2 4a19.684 19.684 0 0 1-14.86 3.69c-7.08-1.33-12.4-9.53-12.4-12.43.009-.285.088-.563.23-.81Z"/>
  <defs>
    <linearGradient id="a" x1="73.494" x2="299.974" y1="307.742" y2="307.742" gradientUnits="userSpaceOnUse">
      <stop stop-color="#16243F"/>
      <stop offset="1" stop-color="#6878B1"/>
    </linearGradient>
  </defs>
</svg>
