<svg xmlns="http://www.w3.org/2000/svg" width="340" height="340" fill="none" viewBox="0 0 340 340">
  <path fill="#F2D4CF" d="M191.49 242.762a388.715 388.715 0 0 1-55.49-9.31c-37-9.22-72.77-25.51-101-51.14 24.9-26 38.47-41.05 58-71.26 14.49-22.42 32.29-61.84 59.13-72 42.07-15.93 98.88-.45 110.84 46.87 5.05 20 5.24 40.92 2.38 61.26-1.3 9.17-10.58 98.69-15.9 98.6-19.33-.34-38.69-1.13-57.96-3.02Z"/>
  <path fill="#F2A196" d="M304.85 268.572c-66.848 51.472-160.089 51.06-226.48-1l48.66-22.81a47.363 47.363 0 0 0 4.35-2.34l1.12-.7c.4-.25.79-.51 1.18-.78a46.543 46.543 0 0 0 14.67-16.47c4-7.55 5.32-15.89 5.38-24.39 0-5.72-.31-11.44-.37-17.17-.04-3.166-.073-6.336-.1-9.51l2 1 5.2 2.69 30.3 5.16 31.12 5.3.94 32 .47 15.87 11.47 4.64 9 3.64 61.09 24.87Z"/>
  <path fill="#E88870" d="M222.67 214.432c-2.72 1.68-5.29 2.47-7.54 2.23-14.79-1.59-43.64-13.18-61.8-34.63 0-1.053-.02-2.103-.06-3.15-.04-3.173-.073-6.343-.1-9.51l2 1 5.2 2.69 30.29 5.15 31.12 5.3.89 30.92Z"/>
  <circle cx="128.26" cy="141.392" r="17" fill="#F2A196"/>
  <circle cx="134.26" cy="139.392" r="17" fill="#E88870"/>
  <path fill="#F2A196" d="M243.76 115.642c11.74 40.69-13.21 89.87-28.54 89.87-21 0-72-16.77-83.74-57.46-11.74-40.69 3.87-80.92 34.87-89.87 31-8.95 65.7 16.78 77.41 57.46Z"/>
  <circle cx="180.62" cy="128.892" r="19" stroke="#fff"/>
  <circle cx="233.76" cy="125.892" r="19" stroke="#fff"/>
  <path fill="#F2D4CF" d="M205.09 61.562c-4.3 18.7-13.69 34.58-30.86 46.14-18.52 12.83-39.8 14.63-61.13 18.86.54-13.11.83-27.15 7.6-38.85a79.46 79.46 0 0 1 32.31-30.35c14.8-7.66 37.71-15.16 54.35-9.85a112.333 112.333 0 0 1-2.27 14.05Z"/>
  <path stroke="#00214E" d="M206.84 117.542c-.08.35 7.92 32.35 7.92 32.35h-12.5m16.03-42.56a31.214 31.214 0 0 1 22.86-2.16m-77.97 5.86a36.763 36.763 0 0 1 31.23-1"/>
  <path stroke="#fff" d="m199.62 128.892 15.14-1.29"/>
  <path fill="#00214E" d="M304.85 268.572c-66.848 51.472-160.089 51.06-226.48-1l48.66-22.81a46.787 46.787 0 0 0 6.65-3.82c.64-.44 1.28-.9 1.89-1.38a46.346 46.346 0 0 0 12.78-15.09 44.666 44.666 0 0 0 4.64-14.48 28.405 28.405 0 0 0 2.22 1.94 95.138 95.138 0 0 0 19.82 11.26 98.757 98.757 0 0 0 10.46 3.69 93.506 93.506 0 0 0 33 3.49c1.54-.12 3.09-.27 4.63-.38l.15 5.08v.33l12.1 4.92 69.48 28.25Z"/>
  <path fill="#fff" d="M180.85 161.182a1.85 1.85 0 0 1 2.68-.51c2.08 1.47 5.88 4.56 11.28 5.64 7.36 1.46 13.74-1.48 15.27.42.86 1.07-.19 2.37-2.2 4.05a19.735 19.735 0 0 1-14.86 3.68c-7.08-1.32-12.4-9.53-12.4-12.43a1.661 1.661 0 0 1 .23-.85Z"/>
  <path fill="#00214E" d="M181.58 122.542c6.1.05 6.1 9.38 0 9.43h-.28c-6.1-.05-6.1-9.38 0-9.43h.28Zm50.26-.66c5.66 0 5.66 8.7 0 8.75h-.26c-5.66-.05-5.66-8.7 0-8.75h.26Z"/>
</svg>
